{
.appVersion = "1213";
DisplayStrings = (
"OH/l.ss01/a.ss01 ayhnobyn /l.ss01/l.ss01/Placeholder/l.ss01/l.ss01  oo/Placeholder oo\012/l.ss01/l.ss01/l.ss01/l.ss01/l.ss01/l.ss01/Placeholder/Placeholder/Placeholder/Placeholder/Placeholder/l.ss01/l.ss01/l.ss01/l.ss01/l.ss01/l.ss01 \012nnnn/Placeholder/Placeholder/Placeholder/Placeholder nnnn\012oooo/Placeholder/Placeholder/Placeholder/Placeholder oooo",
"ONH II/Placeholder II OO/Placeholder OO\012HHHH/Placeholder/Placeholder/Placeholder/Placeholder HHHH\012OOOO/Placeholder/Placeholder/Placeholder/Placeholder OOO\012IIIIII/Placeholder/Placeholder/Placeholder/Placeholder IIIIII",
"Looed singled jolled fold concatenations gelts byg one andy\012anoas suits Aoibbeculaes sickness skipjack phonate. Kilobit gulf ichthyoticd notating slunk helloin patagonia patagonia yonde\012tenean knoten tnan noten hlloing Aobbculas\012lucky naughty luck naughty yonde yonde"
);
copyright = "Copyright © 2019 by Jacques Le Bailly. All rights reserved.";
customParameters = (
{
name = vendorID;
value = bvf;
},
{
name = unicodeRanges;
value = (
0
);
},
{
name = codePageRanges;
value = (
1252
);
},
{
name = glyphOrder;
value = (
A,
Aogonek,
AE,
B,
C,
D,
Eth,
E,
Eogonek,
F,
G,
H,
Hbar,
I,
Iogonek,
I_J.loclNLD,
J,
K,
L,
Lcaron,
Ldot,
Lslash,
M,
N,
Eng,
O,
Oslash,
Ohorn,
Oogonek,
OE,
P,
Thorn,
Q,
R,
S,
Germandbls,
Schwa,
T,
Tbar,
U,
Uogonek,
Uhorn,
V,
W,
X,
Y,
Z,
a,
aogonek,
ae,
b,
c,
d,
dcaron,
dcroat,
eth,
e,
eogonek,
f,
g,
h,
hbar,
i,
idotless,
iogonek,
i_j.loclNLD,
j,
jdotless,
k,
kgreenlandic,
l,
ldot,
lcaron,
lslash,
m,
n,
eng,
o,
oogonek,
oslash,
ohorn,
oe,
p,
thorn,
q,
r,
s,
germandbls,
schwa,
t,
tbar,
tcaron,
u,
uogonek,
uhorn,
v,
w,
x,
y,
z
);
}
);
date = "2019-02-19 19:56:29 +0000";
designer = "Jacques Le Bailly";
disablesNiceNames = 1;
familyName = LV_Serif;
featurePrefixes = (
{
automatic = 1;
code = "languagesystem DFLT dflt;\012";
name = Languagesystems;
}
);
features = (
{
automatic = 1;

glyphs = (
{
color = 3;
glyphname = A;
lastChange = "2019-02-19 15:55:46 +0000";
layers = (
{
background = {
paths = (
{
closed = 1;
nodes = (
"104 0 LINE",
"416 735 LINE",
"367 735 LINE",
"679 0 LINE",
"780 0 LINE",
"430 810 LINE",
"350 810 LINE",
"0 0 LINE"
);
},
{
closed = 1;
nodes = (
"642 201 LINE",
"622 286 LINE",
"164 286 LINE",
"146 201 LINE"
);
}
);
};
layerId = "A3B50665-EA37-4AC6-885C-1233CA61B6BD";
paths = (
{
closed = 1;
nodes = (
"83 0 LINE SMOOTH",
"97 0 OFFCURVE",
"107 6 OFFCURVE",
"112 19 CURVE SMOOTH",
"416 735 LINE",
"367 735 LINE",
"671 19 LINE SMOOTH",
"676 6 OFFCURVE",
"686 0 OFFCURVE",
"700 0 CURVE SMOOTH",
"748 0 LINE SMOOTH",
"767 0 OFFCURVE",
"774 12 OFFCURVE",
"767 29 CURVE SMOOTH",
"438 791 LINE SMOOTH",
"433 804 OFFCURVE",
"423 810 OFFCURVE",
"409 810 CURVE SMOOTH",
"371 810 LINE SMOOTH",
"357 810 OFFCURVE",
"347 804 OFFCURVE",
"342 791 CURVE SMOOTH",
"13 29 LINE SMOOTH",
"6 12 OFFCURVE",
"13 0 OFFCURVE",
"32 0 CURVE SMOOTH"
);
},
{
closed = 1;
nodes = (
"642 201 LINE",
"622 286 LINE",
"164 286 LINE",
"146 201 LINE"
);
}
);
width = 780;
},
{
background = {
paths = (
{
closed = 1;
nodes = (
"170 0 LINE",
"428 670 LINE",
"360 670 LINE",
"618 0 LINE",
"799 0 LINE",
"469 810 LINE",
"319 810 LINE",
"-11 0 LINE"
);
},
{
closed = 1;
nodes = (
"646 163 LINE",
"576 318 LINE",
"223 318 LINE",
"152 163 LINE"
);
}
);
};
layerId = "014D4A40-7C7F-4023-B30E-1F55CE5EA091";
paths = (
{
closed = 1;
nodes = (
"136 0 LINE SMOOTH",
"159 0 OFFCURVE",
"174 11 OFFCURVE",
"182 32 CURVE SMOOTH",
"428 670 LINE",
"363 670 LINE",
"609 32 LINE SMOOTH",
"617 11 OFFCURVE",
"632 0 OFFCURVE",
"655 0 CURVE SMOOTH",
"749 0 LINE SMOOTH",
"779 0 OFFCURVE",
"791 18 OFFCURVE",
"780 46 CURVE SMOOTH",
"482 779 LINE SMOOTH",
"473 801 OFFCURVE",
"458 810 OFFCURVE",
"435 810 CURVE SMOOTH",
"353 810 LINE SMOOTH",
"330 810 OFFCURVE",
"315 801 OFFCURVE",
"306 779 CURVE SMOOTH",
"8 46 LINE SMOOTH",
"-3 18 OFFCURVE",
"9 0 OFFCURVE",
"39 0 CURVE SMOOTH"
);
},
{
closed = 1;
nodes = (
"646 163 LINE",
"576 318 LINE",
"223 318 LINE",
"152 163 LINE"
);
}
);
width = 788;
}
);
unicode = 0041;
},
{
color = 3;
glyphname = D;
lastChange = "2019-02-19 15:55:30 +0000";
layers = (
{
background = {
paths = (
{
closed = 1;
nodes = (
"632 -10 OFFCURVE",
"740 131 OFFCURVE",
"740 409 CURVE SMOOTH",
"740 685 OFFCURVE",
"635 820 OFFCURVE",
"410 820 CURVE SMOOTH",
"185 820 OFFCURVE",
"80 685 OFFCURVE",
"80 409 CURVE SMOOTH",
"80 131 OFFCURVE",
"188 -10 OFFCURVE",
"410 -10 CURVE SMOOTH"
);
},
{
closed = 1;
nodes = (
"237 85 OFFCURVE",
"180 190 OFFCURVE",
"180 408 CURVE SMOOTH",
"180 626 OFFCURVE",
"235 725 OFFCURVE",
"410 725 CURVE SMOOTH",
"585 725 OFFCURVE",
"640 626 OFFCURVE",
"640 408 CURVE SMOOTH",
"640 190 OFFCURVE",
"583 85 OFFCURVE",
"410 85 CURVE SMOOTH"
);
}
);
};
layerId = "A3B50665-EA37-4AC6-885C-1233CA61B6BD";
paths = (
{
closed = 1;
nodes = (
"120 810 LINE SMOOTH",
"108 810 OFFCURVE",
"98 799 OFFCURVE",
"98 788 CURVE SMOOTH",
"98 22 LINE SMOOTH",
"98 11 OFFCURVE",
"108 0 OFFCURVE",
"120 0 CURVE SMOOTH",
"385 0 LINE SMOOTH",
"627 0 OFFCURVE",
"735 148 OFFCURVE",
"735 409 CURVE SMOOTH",
"735 670 OFFCURVE",
"630 810 OFFCURVE",
"385 810 CURVE SMOOTH"
);
},
{
closed = 1;
nodes = (
"195 88 LINE",
"195 722 LINE",
"365 722 LINE SMOOTH",
"580 722 OFFCURVE",
"635 614 OFFCURVE",
"635 408 CURVE SMOOTH",
"635 202 OFFCURVE",
"578 88 OFFCURVE",
"365 88 CURVE SMOOTH"
);
}
);
width = 798;
},
{
layerId = "014D4A40-7C7F-4023-B30E-1F55CE5EA091";
paths = (
{
closed = 1;
nodes = (
"120 810 LINE SMOOTH",
"90 810 OFFCURVE",
"80 790 OFFCURVE",
"80 770 CURVE SMOOTH",
"80 40 LINE SMOOTH",
"80 20 OFFCURVE",
"90 0 OFFCURVE",
"120 0 CURVE SMOOTH",
"410 0 LINE SMOOTH",
"654 0 OFFCURVE",
"780 150 OFFCURVE",
"780 409 CURVE SMOOTH",
"780 668 OFFCURVE",
"656 810 OFFCURVE",
"410 810 CURVE SMOOTH"
);
},
{
closed = 1;
nodes = (
"252 159 LINE",
"252 651 LINE",
"390 651 LINE SMOOTH",
"536 651 OFFCURVE",
"604 580 OFFCURVE",
"604 404 CURVE SMOOTH",
"604 228 OFFCURVE",
"536 159 OFFCURVE",
"390 159 CURVE SMOOTH"
);
}
);
width = 835;
}
);
leftMetricsKey = H;
rightMetricsKey = O;
unicode = 0044;
},
{
color = 3;
glyphname = H;
lastChange = "2019-02-19 15:54:55 +0000";
layers = (
{
background = {
paths = (
{
closed = 1;
nodes = (
"240 770 LINE SMOOTH",
"240 790 OFFCURVE",
"228 810 OFFCURVE",
"198 810 CURVE SMOOTH",
"108 810 LINE SMOOTH",
"78 810 OFFCURVE",
"68 790 OFFCURVE",
"68 770 CURVE SMOOTH",
"68 40 LINE SMOOTH",
"68 20 OFFCURVE",
"78 0 OFFCURVE",
"108 0 CURVE SMOOTH",
"200 0 LINE SMOOTH",
"230 0 OFFCURVE",
"240 20 OFFCURVE",
"240 40 CURVE SMOOTH"
);
},
{
closed = 1;
nodes = (
"538 40 LINE SMOOTH",
"538 20 OFFCURVE",
"548 0 OFFCURVE",
"578 0 CURVE SMOOTH",
"670 0 LINE SMOOTH",
"700 0 OFFCURVE",
"710 20 OFFCURVE",
"710 40 CURVE SMOOTH",
"710 770 LINE SMOOTH",
"710 790 OFFCURVE",
"698 810 OFFCURVE",
"668 810 CURVE SMOOTH",
"578 810 LINE SMOOTH",
"548 810 OFFCURVE",
"538 790 OFFCURVE",
"538 770 CURVE SMOOTH"
);
},
{
closed = 1;
nodes = (
"574 491 LINE",
"204 491 LINE",
"204 332 LINE",
"574 332 LINE"
);
}
);
};
hints = (
{
horizontal = 1;
place = "{0, 21}";
target = up;
type = BottomGhost;
},
{
horizontal = 1;
place = "{364, 86}";
type = Stem;
},
{
horizontal = 1;
place = "{801, -20}";
target = down;
type = TopGhost;
},
{
place = "{96, 92}";
type = Stem;
},
{
place = "{576, 92}";
type = Stem;
}
);
layerId = "A3B50665-EA37-4AC6-885C-1233CA61B6BD";
paths = (
{
closed = 1;
nodes = (
"195 788 LINE SMOOTH",
"195 799 OFFCURVE",
"185 810 OFFCURVE",
"173 810 CURVE SMOOTH",
"120 810 LINE SMOOTH",
"108 810 OFFCURVE",
"98 799 OFFCURVE",
"98 788 CURVE SMOOTH",
"98 22 LINE SMOOTH",
"98 11 OFFCURVE",
"108 0 OFFCURVE",
"120 0 CURVE SMOOTH",
"173 0 LINE SMOOTH",
"185 0 OFFCURVE",
"195 11 OFFCURVE",
"195 22 CURVE SMOOTH"
);
},
{
closed = 1;
nodes = (
"577 22 LINE SMOOTH",
"577 11 OFFCURVE",
"587 0 OFFCURVE",
"599 0 CURVE SMOOTH",
"652 0 LINE SMOOTH",
"664 0 OFFCURVE",
"674 11 OFFCURVE",
"674 22 CURVE SMOOTH",
"674 788 LINE SMOOTH",
"674 799 OFFCURVE",
"664 810 OFFCURVE",
"652 810 CURVE SMOOTH",
"599 810 LINE SMOOTH",
"587 810 OFFCURVE",
"577 799 OFFCURVE",
"577 788 CURVE SMOOTH"
);
},
{
closed = 1;
nodes = (
"593 455 LINE",
"179 455 LINE",
"179 367 LINE",
"593 367 LINE"
);
}
);
width = 772;
},
{
background = {
paths = (
{
closed = 1;
nodes = (
"210 788 LINE SMOOTH",
"210 799 OFFCURVE",
"200 810 OFFCURVE",
"188 810 CURVE SMOOTH",
"135 810 LINE SMOOTH",
"123 810 OFFCURVE",
"113 799 OFFCURVE",
"113 788 CURVE SMOOTH",
"113 22 LINE SMOOTH",
"113 11 OFFCURVE",
"123 0 OFFCURVE",
"135 0 CURVE SMOOTH",
"188 0 LINE SMOOTH",
"200 0 OFFCURVE",
"210 11 OFFCURVE",
"210 22 CURVE SMOOTH"
);
},
{
closed = 1;
nodes = (
"592 22 LINE SMOOTH",
"592 11 OFFCURVE",
"602 0 OFFCURVE",
"614 0 CURVE SMOOTH",
"667 0 LINE SMOOTH",
"679 0 OFFCURVE",
"689 11 OFFCURVE",
"689 22 CURVE SMOOTH",
"689 788 LINE SMOOTH",
"689 799 OFFCURVE",
"679 810 OFFCURVE",
"667 810 CURVE SMOOTH",
"614 810 LINE SMOOTH",
"602 810 OFFCURVE",
"592 799 OFFCURVE",
"592 788 CURVE SMOOTH"
);
},
{
closed = 1;
nodes = (
"608 455 LINE",
"194 455 LINE",
"194 367 LINE",
"608 367 LINE"
);
}
);
};
hints = (
{
horizontal = 1;
place = "{0, 21}";
target = up;
type = BottomGhost;
},
{
horizontal = 1;
place = "{342, 139}";
type = Stem;
},
{
horizontal = 1;
place = "{810, -20}";
target = down;
type = TopGhost;
},
{
place = "{65, 162}";
type = Stem;
},
{
place = "{545, 162}";
type = Stem;
}
);
layerId = "014D4A40-7C7F-4023-B30E-1F55CE5EA091";
paths = (
{
closed = 1;
nodes = (
"252 770 LINE SMOOTH",
"252 790 OFFCURVE",
"240 810 OFFCURVE",
"210 810 CURVE SMOOTH",
"120 810 LINE SMOOTH",
"90 810 OFFCURVE",
"80 790 OFFCURVE",
"80 770 CURVE SMOOTH",
"80 40 LINE SMOOTH",
"80 20 OFFCURVE",
"90 0 OFFCURVE",
"120 0 CURVE SMOOTH",
"212 0 LINE SMOOTH",
"242 0 OFFCURVE",
"252 20 OFFCURVE",
"252 40 CURVE SMOOTH"
);
},
{
closed = 1;
nodes = (
"550 40 LINE SMOOTH",
"550 20 OFFCURVE",
"560 0 OFFCURVE",
"590 0 CURVE SMOOTH",
"682 0 LINE SMOOTH",
"712 0 OFFCURVE",
"722 20 OFFCURVE",
"722 40 CURVE SMOOTH",
"722 770 LINE SMOOTH",
"722 790 OFFCURVE",
"710 810 OFFCURVE",
"680 810 CURVE SMOOTH",
"590 810 LINE SMOOTH",
"560 810 OFFCURVE",
"550 790 OFFCURVE",
"550 770 CURVE SMOOTH"
);
},
{
closed = 1;
nodes = (
"586 491 LINE",
"216 491 LINE",
"216 332 LINE",
"586 332 LINE"
);
}
);
width = 802;
}
);
note = H;
rightMetricsKey = "=|";
unicode = 0048;
},
{
color = 3;
glyphname = I;
lastChange = "2019-02-19 15:55:52 +0000";
layers = (
{
layerId = "A3B50665-EA37-4AC6-885C-1233CA61B6BD";
paths = (
{
closed = 1;
nodes = (
"195 788 LINE SMOOTH",
"195 799 OFFCURVE",
"185 810 OFFCURVE",
"173 810 CURVE SMOOTH",
"120 810 LINE SMOOTH",
"108 810 OFFCURVE",
"98 799 OFFCURVE",
"98 788 CURVE SMOOTH",
"98 22 LINE SMOOTH",
"98 11 OFFCURVE",
"108 0 OFFCURVE",
"120 0 CURVE SMOOTH",
"173 0 LINE SMOOTH",
"185 0 OFFCURVE",
"195 11 OFFCURVE",
"195 22 CURVE SMOOTH"
);
}
);
width = 293;
},
{
layerId = "014D4A40-7C7F-4023-B30E-1F55CE5EA091";
paths = (
{
closed = 1;
nodes = (
"252 770 LINE SMOOTH",
"252 790 OFFCURVE",
"240 810 OFFCURVE",
"210 810 CURVE SMOOTH",
"120 810 LINE SMOOTH",
"90 810 OFFCURVE",
"80 790 OFFCURVE",
"80 770 CURVE SMOOTH",
"80 40 LINE SMOOTH",
"80 20 OFFCURVE",
"90 0 OFFCURVE",
"120 0 CURVE SMOOTH",
"212 0 LINE SMOOTH",
"242 0 OFFCURVE",
"252 20 OFFCURVE",
"252 40 CURVE SMOOTH"
);
}
);
width = 332;
}
);
leftMetricsKey = H;
rightMetricsKey = H;
unicode = 0049;
},
{
color = 3;
glyphname = K;
lastChange = "2019-02-19 15:56:09 +0000";
layers = (
{
background = {
paths = (
{
closed = 1;
nodes = (
"895 1 LINE",
"895 810 LINE",
"798 810 LINE",
"798 1 LINE"
);
},
{
closed = 1;
nodes = (
"1347 -6 OFFCURVE",
"1382 1 OFFCURVE",
"1406 12 CURVE",
"1406 104 LINE",
"1386 94 OFFCURVE",
"1354 88 OFFCURVE",
"1328 88 CURVE SMOOTH",
"1265 88 OFFCURVE",
"1229 119 OFFCURVE",
"1171 191 CURVE SMOOTH",
"960 456 LINE",
"964 386 LINE",
"1380 810 LINE",
"1258 810 LINE",
"886 431 LINE",
"885 399 LINE",
"1126 99 LINE SMOOTH",
"1181 30 OFFCURVE",
"1238 1 OFFCURVE",
"1315 -4 CURVE SMOOTH"
);
},
{
closed = 1;
nodes = (
"195 788 LINE SMOOTH",
"195 799 OFFCURVE",
"185 810 OFFCURVE",
"173 810 CURVE SMOOTH",
"120 810 LINE SMOOTH",
"108 810 OFFCURVE",
"98 799 OFFCURVE",
"98 788 CURVE SMOOTH",
"98 22 LINE SMOOTH",
"98 11 OFFCURVE",
"108 0 OFFCURVE",
"120 0 CURVE SMOOTH",
"173 0 LINE SMOOTH",
"185 0 OFFCURVE",
"195 11 OFFCURVE",
"195 22 CURVE SMOOTH"
);
},
{
closed = 1;
nodes = (
"577 22 LINE SMOOTH",
"577 11 OFFCURVE",
"587 0 OFFCURVE",
"599 0 CURVE SMOOTH",
"652 0 LINE SMOOTH",
"664 0 OFFCURVE",
"674 11 OFFCURVE",
"674 22 CURVE SMOOTH",
"674 788 LINE SMOOTH",
"674 799 OFFCURVE",
"664 810 OFFCURVE",
"652 810 CURVE SMOOTH",
"599 810 LINE SMOOTH",
"587 810 OFFCURVE",
"577 799 OFFCURVE",
"577 788 CURVE SMOOTH"
);
},
{
closed = 1;
nodes = (
"593 455 LINE",
"179 455 LINE",
"179 367 LINE",
"593 367 LINE"
);
}
);
};
layerId = "A3B50665-EA37-4AC6-885C-1233CA61B6BD";
paths = (
{
closed = 1;
nodes = (
"170 1 LINE SMOOTH",
"186 1 OFFCURVE",
"195 10 OFFCURVE",
"195 26 CURVE SMOOTH",
"195 785 LINE SMOOTH",
"195 801 OFFCURVE",
"186 810 OFFCURVE",
"170 810 CURVE SMOOTH",
"123 810 LINE SMOOTH",
"107 810 OFFCURVE",
"98 801 OFFCURVE",
"98 785 CURVE SMOOTH",
"98 26 LINE SMOOTH",
"98 10 OFFCURVE",
"107 1 OFFCURVE",
"123 1 CURVE SMOOTH"
);
},
{
closed = 1;
nodes = (
"640 -10 OFFCURVE",
"667 -6 OFFCURVE",
"689 1 CURVE SMOOTH",
"701 5 OFFCURVE",
"706 15 OFFCURVE",
"706 29 CURVE SMOOTH",
"706 70 LINE SMOOTH",
"706 88 OFFCURVE",
"696 95 OFFCURVE",
"678 90 CURVE SMOOTH",
"662 86 OFFCURVE",
"644 84 OFFCURVE",
"628 84 CURVE SMOOTH",
"565 84 OFFCURVE",
"527 115 OFFCURVE",
"471 187 CURVE SMOOTH",
"260 456 LINE",
"264 386 LINE",
"650 779 LINE SMOOTH",
"665 795 OFFCURVE",
"659 810 OFFCURVE",
"637 810 CURVE SMOOTH",
"576 810 LINE SMOOTH",
"564 810 OFFCURVE",
"554 806 OFFCURVE",
"545 797 CURVE SMOOTH",
"186 431 LINE",
"185 399 LINE",
"426 95 LINE SMOOTH",
"481 26 OFFCURVE",
"538 -2 OFFCURVE",
"615 -8 CURVE SMOOTH"
);
}
);
width = 668;
},
{
background = {
paths = (
{
closed = 1;
nodes = (
"1189 0 LINE",
"1189 810 LINE",
"1017 810 LINE",
"1017 0 LINE"
);
},
{
closed = 1;
nodes = (
"1623 -10 OFFCURVE",
"1674 -6 OFFCURVE",
"1708 8 CURVE",
"1708 162 LINE",
"1686 155 OFFCURVE",
"1657 149 OFFCURVE",
"1634 149 CURVE SMOOTH",
"1580 149 OFFCURVE",
"1532 172 OFFCURVE",
"1485 235 CURVE SMOOTH",
"1322 456 LINE",
"1310 380 LINE",
"1687 810 LINE",
"1480 810 LINE",
"1154 438 LINE",
"1150 398 LINE",
"1381 93 LINE SMOOTH",
"1436 20 OFFCURVE",
"1510 -10 OFFCURVE",
"1590 -10 CURVE SMOOTH"
);
},
{
closed = 1;
nodes = (
"227 1 LINE SMOOTH",
"243 1 OFFCURVE",
"252 10 OFFCURVE",
"252 26 CURVE SMOOTH",
"252 785 LINE SMOOTH",
"252 801 OFFCURVE",
"243 810 OFFCURVE",
"227 810 CURVE SMOOTH",
"180 810 LINE SMOOTH",
"164 810 OFFCURVE",
"155 801 OFFCURVE",
"155 785 CURVE SMOOTH",
"155 26 LINE SMOOTH",
"155 10 OFFCURVE",
"164 1 OFFCURVE",
"180 1 CURVE SMOOTH"
);
},
{
closed = 1;
nodes = (
"697 -10 OFFCURVE",
"724 -6 OFFCURVE",
"746 1 CURVE SMOOTH",
"758 5 OFFCURVE",
"763 15 OFFCURVE",
"763 29 CURVE SMOOTH",
"763 70 LINE SMOOTH",
"763 88 OFFCURVE",
"753 95 OFFCURVE",
"735 90 CURVE SMOOTH",
"719 86 OFFCURVE",
"701 84 OFFCURVE",
"685 84 CURVE SMOOTH",
"622 84 OFFCURVE",
"584 115 OFFCURVE",
"528 187 CURVE SMOOTH",
"317 456 LINE",
"321 386 LINE",
"707 779 LINE SMOOTH",
"722 795 OFFCURVE",
"716 810 OFFCURVE",
"694 810 CURVE SMOOTH",
"633 810 LINE SMOOTH",
"621 810 OFFCURVE",
"611 806 OFFCURVE",
"602 797 CURVE SMOOTH",
"243 431 LINE",
"242 399 LINE",
"483 95 LINE SMOOTH",
"538 26 OFFCURVE",
"595 -2 OFFCURVE",
"672 -8 CURVE SMOOTH"
);
}
);
};
layerId = "014D4A40-7C7F-4023-B30E-1F55CE5EA091";
paths = (
{
closed = 1;
nodes = (
"212 0 LINE SMOOTH",
"238 0 OFFCURVE",
"252 14 OFFCURVE",
"252 40 CURVE SMOOTH",
"252 770 LINE SMOOTH",
"252 796 OFFCURVE",
"238 810 OFFCURVE",
"212 810 CURVE SMOOTH",
"120 810 LINE SMOOTH",
"94 810 OFFCURVE",
"80 796 OFFCURVE",
"80 770 CURVE SMOOTH",
"80 40 LINE SMOOTH",
"80 14 OFFCURVE",
"94 0 OFFCURVE",
"120 0 CURVE SMOOTH"
);
},
{
closed = 1;
nodes = (
"688 -10 OFFCURVE",
"718 -7 OFFCURVE",
"744 -2 CURVE SMOOTH",
"767 3 OFFCURVE",
"779 19 OFFCURVE",
"779 43 CURVE SMOOTH",
"779 112 LINE SMOOTH",
"779 139 OFFCURVE",
"765 150 OFFCURVE",
"735 147 CURVE SMOOTH",
"725 146 OFFCURVE",
"714 143 OFFCURVE",
"695 143 CURVE SMOOTH",
"646 143 OFFCURVE",
"603 168 OFFCURVE",
"571 214 CURVE SMOOTH",
"405 456 LINE",
"393 380 LINE",
"740 761 LINE SMOOTH",
"763 787 OFFCURVE",
"752 810 OFFCURVE",
"718 810 CURVE SMOOTH",
"603 810 LINE SMOOTH",
"583 810 OFFCURVE",
"569 804 OFFCURVE",
"554 788 CURVE SMOOTH",
"237 438 LINE",
"233 398 LINE",
"452 93 LINE SMOOTH",
"500 26 OFFCURVE",
"573 -10 OFFCURVE",
"661 -10 CURVE SMOOTH"
);
}
);
width = 755;
}
);
leftMetricsKey = H;
unicode = 004B;
},
{
color = 3;
glyphname = L;
lastChange = "2019-02-19 20:23:27 +0000";
layers = (
{
background = {
paths = (
{
closed = 1;
nodes = (
"532 0 LINE",
"544 90 LINE",
"193 90 LINE",
"193 810 LINE",
"96 810 LINE",
"96 0 LINE"
);
}
);
};
layerId = "A3B50665-EA37-4AC6-885C-1233CA61B6BD";
paths = (
{
closed = 1;
nodes = (
"508 0 LINE SMOOTH",
"523 0 OFFCURVE",
"533 7 OFFCURVE",
"535 23 CURVE SMOOTH",
"540 63 LINE SMOOTH",
"542 79 OFFCURVE",
"534 90 OFFCURVE",
"517 90 CURVE SMOOTH",
"193 90 LINE",
"193 785 LINE SMOOTH",
"193 801 OFFCURVE",
"184 810 OFFCURVE",
"168 810 CURVE SMOOTH",
"121 810 LINE SMOOTH",
"105 810 OFFCURVE",
"96 801 OFFCURVE",
"96 785 CURVE SMOOTH",
"96 25 LINE SMOOTH",
"96 9 OFFCURVE",
"105 0 OFFCURVE",
"121 0 CURVE SMOOTH"
);
}
);
width = 544;
},
{
background = {
paths = (
{
closed = 1;
nodes = (
"579 0 LINE",
"591 161 LINE",
"252 161 LINE",
"252 808 LINE",
"80 808 LINE",
"80 0 LINE"
);
}
);
};
layerId = "014D4A40-7C7F-4023-B30E-1F55CE5EA091";
paths = (
{
closed = 1;
nodes = (
"540 0 LINE SMOOTH",
"565 0 OFFCURVE",
"580 12 OFFCURVE",
"582 38 CURVE SMOOTH",
"588 120 LINE SMOOTH",
"590 146 OFFCURVE",
"575 161 OFFCURVE",
"549 161 CURVE SMOOTH",
"252 161 LINE",
"252 768 LINE SMOOTH",
"252 794 OFFCURVE",
"238 808 OFFCURVE",
"212 808 CURVE SMOOTH",
"120 808 LINE SMOOTH",
"94 808 OFFCURVE",
"80 794 OFFCURVE",
"80 768 CURVE SMOOTH",
"80 40 LINE SMOOTH",
"80 14 OFFCURVE",
"94 0 OFFCURVE",
"120 0 CURVE SMOOTH"
);
}
);
width = 594;
}
);
leftMetricsKey = H;
unicode = 004C;
},
{
color = 3;
glyphname = M;
lastChange = "2019-02-19 15:56:25 +0000";
layers = (
{
background = {
paths = (
{
closed = 1;
nodes = (
"191 0 LINE",
"191 702 LINE",
"148 697 LINE",
"422 255 LINE",
"500 255 LINE",
"774 697 LINE",
"731 702 LINE",
"731 0 LINE",
"824 0 LINE",
"824 810 LINE",
"740 810 LINE",
"432 315 LINE",
"490 315 LINE",
"182 810 LINE",
"98 810 LINE",
"98 0 LINE"
);
}
);
};
guideLines = (
{
angle = 58.3281;
position = "{564, 362}";
}
);
layerId = "A3B50665-EA37-4AC6-885C-1233CA61B6BD";
paths = (
{
closed = 1;
nodes = (
"166 0 LINE SMOOTH",
"182 0 OFFCURVE",
"191 9 OFFCURVE",
"191 25 CURVE SMOOTH",
"191 702 LINE",
"143 697 LINE",
"412 272 LINE SMOOTH",
"419 261 OFFCURVE",
"429 255 OFFCURVE",
"442 255 CURVE SMOOTH",
"480 255 LINE SMOOTH",
"493 255 OFFCURVE",
"503 261 OFFCURVE",
"510 272 CURVE SMOOTH",
"774 697 LINE",
"731 702 LINE",
"731 25 LINE SMOOTH",
"731 9 OFFCURVE",
"740 0 OFFCURVE",
"756 0 CURVE SMOOTH",
"799 0 LINE SMOOTH",
"815 0 OFFCURVE",
"824 9 OFFCURVE",
"824 25 CURVE SMOOTH",
"824 785 LINE SMOOTH",
"824 801 OFFCURVE",
"815 810 OFFCURVE",
"799 810 CURVE SMOOTH",
"760 810 LINE SMOOTH",
"747 810 OFFCURVE",
"737 804 OFFCURVE",
"730 793 CURVE SMOOTH",
"432 315 LINE",
"495 315 LINE",
"192 793 LINE SMOOTH",
"185 804 OFFCURVE",
"175 810 OFFCURVE",
"162 810 CURVE SMOOTH",
"123 810 LINE SMOOTH",
"107 810 OFFCURVE",
"98 801 OFFCURVE",
"98 785 CURVE SMOOTH",
"98 25 LINE SMOOTH",
"98 9 OFFCURVE",
"107 0 OFFCURVE",
"123 0 CURVE SMOOTH"
);
}
);
width = 922;
},
{
background = {
paths = (
{
closed = 1;
nodes = (
"247 0 LINE",
"247 592 LINE",
"202 581 LINE",
"423 220 LINE",
"533 220 LINE",
"754 581 LINE",
"709 592 LINE",
"709 0 LINE",
"876 0 LINE",
"876 810 LINE",
"724 810 LINE",
"438 345 LINE",
"518 345 LINE",
"232 810 LINE",
"80 810 LINE",
"80 0 LINE"
);
}
);
};
guideLines = (
{
angle = 58.5255;
position = "{644, 681}";
}
);
layerId = "014D4A40-7C7F-4023-B30E-1F55CE5EA091";
paths = (
{
closed = 1;
nodes = (
"207 0 LINE SMOOTH",
"233 0 OFFCURVE",
"247 14 OFFCURVE",
"247 40 CURVE SMOOTH",
"247 592 LINE",
"194 581 LINE",
"406 246 LINE SMOOTH",
"417 228 OFFCURVE",
"433 220 OFFCURVE",
"454 220 CURVE SMOOTH",
"502 220 LINE SMOOTH",
"524 220 OFFCURVE",
"538 228 OFFCURVE",
"549 247 CURVE SMOOTH",
"754 581 LINE",
"709 592 LINE",
"709 40 LINE SMOOTH",
"709 14 OFFCURVE",
"723 0 OFFCURVE",
"749 0 CURVE SMOOTH",
"836 0 LINE SMOOTH",
"862 0 OFFCURVE",
"876 14 OFFCURVE",
"876 40 CURVE SMOOTH",
"876 770 LINE SMOOTH",
"876 796 OFFCURVE",
"862 810 OFFCURVE",
"836 810 CURVE SMOOTH",
"755 810 LINE SMOOTH",
"734 810 OFFCURVE",
"719 802 OFFCURVE",
"708 783 CURVE SMOOTH",
"438 345 LINE",
"526 345 LINE",
"249 784 LINE SMOOTH",
"238 802 OFFCURVE",
"222 810 OFFCURVE",
"201 810 CURVE SMOOTH",
"120 810 LINE SMOOTH",
"94 810 OFFCURVE",
"80 796 OFFCURVE",
"80 770 CURVE SMOOTH",
"80 40 LINE SMOOTH",
"80 14 OFFCURVE",
"94 0 OFFCURVE",
"120 0 CURVE SMOOTH"
);
}
);
width = 956;
}
);
leftMetricsKey = H;
rightMetricsKey = H;
unicode = 004D;
},
{
color = 3;
glyphname = N;
lastChange = "2019-02-19 15:55:16 +0000";
layers = (
{
background = {
paths = (
{
closed = 1;
nodes = (
"535 40 LINE SMOOTH",
"535 20 OFFCURVE",
"545 0 OFFCURVE",
"575 0 CURVE SMOOTH",
"667 0 LINE SMOOTH",
"697 0 OFFCURVE",
"707 20 OFFCURVE",
"707 40 CURVE SMOOTH",
"707 770 LINE SMOOTH",
"707 790 OFFCURVE",
"695 810 OFFCURVE",
"665 810 CURVE SMOOTH",
"575 810 LINE SMOOTH",
"545 810 OFFCURVE",
"535 790 OFFCURVE",
"535 770 CURVE SMOOTH"
);
},
{
closed = 1;
nodes = (
"574 419 LINE",
"243 786 LINE SMOOTH",
"234 796 OFFCURVE",
"225 810 OFFCURVE",
"195 810 CURVE SMOOTH",
"105 810 LINE SMOOTH",
"75 810 OFFCURVE",
"65 790 OFFCURVE",
"65 770 CURVE SMOOTH",
"65 40 LINE SMOOTH",
"65 20 OFFCURVE",
"75 0 OFFCURVE",
"105 0 CURVE SMOOTH",
"197 0 LINE SMOOTH",
"227 0 OFFCURVE",
"237 20 OFFCURVE",
"237 40 CURVE SMOOTH",
"237 617 LINE",
"198 568 LINE",
"574 150 LINE"
);
}
);
};
hints = (
{
horizontal = 1;
place = "{0, 21}";
target = up;
type = BottomGhost;
},
{
horizontal = 1;
place = "{801, -20}";
target = down;
type = TopGhost;
},
{
place = "{96, 92}";
type = Stem;
},
{
place = "{576, 92}";
type = Stem;
}
);
layerId = "A3B50665-EA37-4AC6-885C-1233CA61B6BD";
paths = (
{
closed = 1;
nodes = (
"577 22 LINE SMOOTH",
"577 11 OFFCURVE",
"587 0 OFFCURVE",
"599 0 CURVE SMOOTH",
"652 0 LINE SMOOTH",
"664 0 OFFCURVE",
"674 11 OFFCURVE",
"674 22 CURVE SMOOTH",
"674 788 LINE SMOOTH",
"674 799 OFFCURVE",
"662 810 OFFCURVE",
"652 810 CURVE SMOOTH",
"599 810 LINE SMOOTH",
"589 810 OFFCURVE",
"577 799 OFFCURVE",
"577 788 CURVE SMOOTH"
);
},
{
closed = 1;
nodes = (
"610 337 LINE",
"196 795 LINE SMOOTH",
"187 805 OFFCURVE",
"180 810 OFFCURVE",
"164 810 CURVE SMOOTH",
"120 810 LINE SMOOTH",
"108 810 OFFCURVE",
"98 799 OFFCURVE",
"98 788 CURVE SMOOTH",
"98 22 LINE SMOOTH",
"98 11 OFFCURVE",
"108 0 OFFCURVE",
"120 0 CURVE SMOOTH",
"173 0 LINE SMOOTH",
"185 0 OFFCURVE",
"195 11 OFFCURVE",
"195 22 CURVE SMOOTH",
"195 703 LINE",
"167 687 LINE",
"610 197 LINE"
);
}
);
width = 772;
},
{
background = {
paths = (
{
closed = 1;
nodes = (
"252 770 LINE SMOOTH",
"252 790 OFFCURVE",
"240 810 OFFCURVE",
"210 810 CURVE SMOOTH",
"120 810 LINE SMOOTH",
"90 810 OFFCURVE",
"80 790 OFFCURVE",
"80 770 CURVE SMOOTH",
"80 40 LINE SMOOTH",
"80 20 OFFCURVE",
"90 0 OFFCURVE",
"120 0 CURVE SMOOTH",
"212 0 LINE SMOOTH",
"242 0 OFFCURVE",
"252 20 OFFCURVE",
"252 40 CURVE SMOOTH"
);
},
{
closed = 1;
nodes = (
"550 40 LINE SMOOTH",
"550 20 OFFCURVE",
"560 0 OFFCURVE",
"590 0 CURVE SMOOTH",
"682 0 LINE SMOOTH",
"712 0 OFFCURVE",
"722 20 OFFCURVE",
"722 40 CURVE SMOOTH",
"722 770 LINE SMOOTH",
"722 790 OFFCURVE",
"710 810 OFFCURVE",
"680 810 CURVE SMOOTH",
"590 810 LINE SMOOTH",
"560 810 OFFCURVE",
"550 790 OFFCURVE",
"550 770 CURVE SMOOTH"
);
},
{
closed = 1;
nodes = (
"586 491 LINE",
"216 491 LINE",
"216 332 LINE",
"586 332 LINE"
);
}
);
};
hints = (
{
horizontal = 1;
place = "{0, 21}";
target = up;
type = BottomGhost;
},
{
horizontal = 1;
place = "{810, -20}";
target = down;
type = TopGhost;
},
{
place = "{65, 162}";
type = Stem;
},
{
place = "{545, 162}";
type = Stem;
}
);
layerId = "014D4A40-7C7F-4023-B30E-1F55CE5EA091";
paths = (
{
closed = 1;
nodes = (
"550 40 LINE SMOOTH",
"550 20 OFFCURVE",
"560 0 OFFCURVE",
"590 0 CURVE SMOOTH",
"682 0 LINE SMOOTH",
"712 0 OFFCURVE",
"722 20 OFFCURVE",
"722 40 CURVE SMOOTH",
"722 770 LINE SMOOTH",
"722 790 OFFCURVE",
"710 810 OFFCURVE",
"680 810 CURVE SMOOTH",
"590 810 LINE SMOOTH",
"560 810 OFFCURVE",
"550 790 OFFCURVE",
"550 770 CURVE SMOOTH"
);
},
{
closed = 1;
nodes = (
"589 419 LINE",
"258 786 LINE SMOOTH",
"249 796 OFFCURVE",
"240 810 OFFCURVE",
"210 810 CURVE SMOOTH",
"120 810 LINE SMOOTH",
"90 810 OFFCURVE",
"80 790 OFFCURVE",
"80 770 CURVE SMOOTH",
"80 40 LINE SMOOTH",
"80 20 OFFCURVE",
"90 0 OFFCURVE",
"120 0 CURVE SMOOTH",
"212 0 LINE SMOOTH",
"242 0 OFFCURVE",
"252 20 OFFCURVE",
"252 40 CURVE SMOOTH",
"252 617 LINE",
"213 568 LINE",
"589 150 LINE"
);
}
);
width = 802;
}
);
leftMetricsKey = H;
note = N;
rightMetricsKey = H;
unicode = 004E;
},
{
color = 3;
glyphname = O;
lastChange = "2019-02-19 15:55:10 +0000";
layers = (
{
background = {
paths = (
{
closed = 1;
nodes = (
"637 -10 OFFCURVE",
"753 137 OFFCURVE",
"753 409 CURVE SMOOTH",
"753 681 OFFCURVE",
"638 820 OFFCURVE",
"393 820 CURVE SMOOTH",
"148 820 OFFCURVE",
"33 681 OFFCURVE",
"33 409 CURVE SMOOTH",
"33 137 OFFCURVE",
"149 -10 OFFCURVE",
"393 -10 CURVE SMOOTH"
);
},
{
closed = 1;
nodes = (
"267 155 OFFCURVE",
"209 220 OFFCURVE",
"209 409 CURVE SMOOTH",
"209 598 OFFCURVE",
"267 665 OFFCURVE",
"393 665 CURVE SMOOTH",
"519 665 OFFCURVE",
"577 598 OFFCURVE",
"577 409 CURVE SMOOTH",
"577 220 OFFCURVE",
"519 155 OFFCURVE",
"393 155 CURVE SMOOTH"
);
}
);
};
guideLines = (
{
angle = 90;
position = "{704, 356}";
},
{
angle = 90;
position = "{767, 356}";
}
);
layerId = "A3B50665-EA37-4AC6-885C-1233CA61B6BD";
paths = (
{
closed = 1;
nodes = (
"615 -10 OFFCURVE",
"723 131 OFFCURVE",
"723 409 CURVE SMOOTH",
"723 685 OFFCURVE",
"618 820 OFFCURVE",
"393 820 CURVE SMOOTH",
"168 820 OFFCURVE",
"63 685 OFFCURVE",
"63 409 CURVE SMOOTH",
"63 131 OFFCURVE",
"171 -10 OFFCURVE",
"393 -10 CURVE SMOOTH"
);
},
{
closed = 1;
nodes = (
"220 84 OFFCURVE",
"163 189 OFFCURVE",
"163 408 CURVE SMOOTH",
"163 627 OFFCURVE",
"218 726 OFFCURVE",
"393 726 CURVE SMOOTH",
"568 726 OFFCURVE",
"623 627 OFFCURVE",
"623 408 CURVE SMOOTH",
"623 189 OFFCURVE",
"566 84 OFFCURVE",
"393 84 CURVE SMOOTH"
);
}
);
width = 786;
},
{
background = {
paths = (
{
closed = 1;
nodes = (
"1573 -10 OFFCURVE",
"1693 140 OFFCURVE",
"1693 412 CURVE SMOOTH",
"1693 684 OFFCURVE",
"1574 820 OFFCURVE",
"1315 820 CURVE SMOOTH",
"1056 820 OFFCURVE",
"937 684 OFFCURVE",
"937 412 CURVE SMOOTH",
"937 140 OFFCURVE",
"1057 -10 OFFCURVE",
"1315 -10 CURVE SMOOTH"
);
},
{
closed = 1;
nodes = (
"1174 155 OFFCURVE",
"1111 230 OFFCURVE",
"1111 411 CURVE SMOOTH",
"1111 591 OFFCURVE",
"1174 665 OFFCURVE",
"1315 665 CURVE SMOOTH",
"1456 665 OFFCURVE",
"1519 591 OFFCURVE",
"1519 411 CURVE SMOOTH",
"1519 230 OFFCURVE",
"1456 155 OFFCURVE",
"1315 155 CURVE SMOOTH"
);
},
{
closed = 1;
nodes = (
"266 770 LINE SMOOTH",
"266 790 OFFCURVE",
"254 810 OFFCURVE",
"224 810 CURVE SMOOTH",
"134 810 LINE SMOOTH",
"104 810 OFFCURVE",
"94 790 OFFCURVE",
"94 770 CURVE SMOOTH",
"94 40 LINE SMOOTH",
"94 20 OFFCURVE",
"104 0 OFFCURVE",
"134 0 CURVE SMOOTH",
"226 0 LINE SMOOTH",
"256 0 OFFCURVE",
"266 20 OFFCURVE",
"266 40 CURVE SMOOTH"
);
},
{
closed = 1;
nodes = (
"564 40 LINE SMOOTH",
"564 20 OFFCURVE",
"574 0 OFFCURVE",
"604 0 CURVE SMOOTH",
"696 0 LINE SMOOTH",
"726 0 OFFCURVE",
"736 20 OFFCURVE",
"736 40 CURVE SMOOTH",
"736 770 LINE SMOOTH",
"736 790 OFFCURVE",
"724 810 OFFCURVE",
"694 810 CURVE SMOOTH",
"604 810 LINE SMOOTH",
"574 810 OFFCURVE",
"564 790 OFFCURVE",
"564 770 CURVE SMOOTH"
);
},
{
closed = 1;
nodes = (
"600 491 LINE",
"230 491 LINE",
"230 332 LINE",
"600 332 LINE"
);
}
);
};
layerId = "014D4A40-7C7F-4023-B30E-1F55CE5EA091";
paths = (
{
closed = 1;
nodes = (
"659 -10 OFFCURVE",
"775 137 OFFCURVE",
"775 409 CURVE SMOOTH",
"775 681 OFFCURVE",
"660 820 OFFCURVE",
"415 820 CURVE SMOOTH",
"170 820 OFFCURVE",
"55 681 OFFCURVE",
"55 409 CURVE SMOOTH",
"55 137 OFFCURVE",
"171 -10 OFFCURVE",
"415 -10 CURVE SMOOTH"
);
},
{
closed = 1;
nodes = (
"289 155 OFFCURVE",
"231 220 OFFCURVE",
"231 409 CURVE SMOOTH",
"231 598 OFFCURVE",
"289 665 OFFCURVE",
"415 665 CURVE SMOOTH",
"541 665 OFFCURVE",
"599 598 OFFCURVE",
"599 409 CURVE SMOOTH",
"599 220 OFFCURVE",
"541 155 OFFCURVE",
"415 155 CURVE SMOOTH"
);
}
);
width = 830;
}
);
rightMetricsKey = "=|";
unicode = 004F;
},
{
color = 3;
glyphname = a;
lastChange = "2019-02-21 20:53:23 +0000";
layers = (
{
background = {
paths = (
{
closed = 1;
nodes = (
"460 525 OFFCURVE",
"485 470 OFFCURVE",
"485 301 CURVE SMOOTH",
"485 132 OFFCURVE",
"460 76 OFFCURVE",
"318 76 CURVE SMOOTH",
"196 76 OFFCURVE",
"147 132 OFFCURVE",
"147 301 CURVE SMOOTH",
"147 470 OFFCURVE",
"196 525 OFFCURVE",
"318 525 CURVE SMOOTH"
);
},
{
closed = 1;
nodes = (
"576 575 LINE SMOOTH",
"576 591 OFFCURVE",
"567 600 OFFCURVE",
"551 600 CURVE SMOOTH",
"508 600 LINE SMOOTH",
"492 600 OFFCURVE",
"483 591 OFFCURVE",
"483 575 CURVE SMOOTH",
"483 502 LINE",
"495 529 LINE",
"469 575 OFFCURVE",
"407 611 OFFCURVE",
"304 611 CURVE SMOOTH",
"135 611 OFFCURVE",
"53 512 OFFCURVE",
"53 301 CURVE SMOOTH",
"53 90 OFFCURVE",
"135 -10 OFFCURVE",
"304 -10 CURVE SMOOTH",
"416 -10 OFFCURVE",
"482 29 OFFCURVE",
"498 82 CURVE",
"485 144 LINE",
"485 113 LINE SMOOTH",
"485 36 OFFCURVE",
"532 -4 OFFCURVE",
"621 -4 CURVE SMOOTH",
"635 -4 OFFCURVE",
"652 -2 OFFCURVE",
"666 1 CURVE SMOOTH",
"680 4 OFFCURVE",
"686 15 OFFCURVE",
"686 29 CURVE SMOOTH",
"686 55 LINE SMOOTH",
"686 72 OFFCURVE",
"676 79 OFFCURVE",
"658 77 CURVE SMOOTH",
"649 76 OFFCURVE",
"641 75 OFFCURVE",
"632 75 CURVE SMOOTH",
"589 75 OFFCURVE",
"576 91 OFFCURVE",
"576 131 CURVE SMOOTH"
);
}
);
};
hints = (
{
horizontal = 1;
place = "{-10, 90}";
type = Stem;
},
{
horizontal = 1;
place = "{521, 90}";
type = Stem;
},
{
horizontal = 1;
place = "{801, -20}";
target = down;
type = TopGhost;
},
{
place = "{77, 93}";
type = Stem;
},
{
place = "{487, 93}";
type = Stem;
},
{
horizontal = 1;
place = "{0, 21}";
target = up;
type = BottomGhost;
}
);
layerId = "A3B50665-EA37-4AC6-885C-1233CA61B6BD";
paths = (
{
closed = 1;
nodes = (
"460 525 OFFCURVE",
"485 470 OFFCURVE",
"485 301 CURVE SMOOTH",
"485 133 OFFCURVE",
"460 77 OFFCURVE",
"318 77 CURVE SMOOTH",
"196 77 OFFCURVE",
"147 133 OFFCURVE",
"147 301 CURVE SMOOTH",
"147 470 OFFCURVE",
"196 525 OFFCURVE",
"318 525 CURVE SMOOTH"
);
},
{
closed = 1;
nodes = (
"576 575 LINE SMOOTH",
"576 591 OFFCURVE",
"567 600 OFFCURVE",
"551 600 CURVE SMOOTH",
"513 600 LINE SMOOTH",
"497 600 OFFCURVE",
"488 591 OFFCURVE",
"488 575 CURVE SMOOTH",
"488 502 LINE",
"495 529 LINE",
"469 575 OFFCURVE",
"407 611 OFFCURVE",
"304 611 CURVE SMOOTH",
"135 611 OFFCURVE",
"53 512 OFFCURVE",
"53 301 CURVE SMOOTH",
"53 90 OFFCURVE",
"135 -10 OFFCURVE",
"304 -10 CURVE SMOOTH",
"416 -10 OFFCURVE",
"482 29 OFFCURVE",
"498 82 CURVE",
"485 144 LINE",
"485 113 LINE SMOOTH",
"485 36 OFFCURVE",
"532 -4 OFFCURVE",
"621 -4 CURVE SMOOTH",
"635 -4 OFFCURVE",
"652 -2 OFFCURVE",
"666 1 CURVE SMOOTH",
"680 4 OFFCURVE",
"686 15 OFFCURVE",
"686 29 CURVE SMOOTH",
"686 55 LINE SMOOTH",
"686 72 OFFCURVE",
"676 79 OFFCURVE",
"658 77 CURVE SMOOTH",
"649 76 OFFCURVE",
"641 75 OFFCURVE",
"632 75 CURVE SMOOTH",
"589 75 OFFCURVE",
"576 91 OFFCURVE",
"576 131 CURVE SMOOTH"
);
}
);
width = 679;
},
{
background = {
paths = (
{
closed = 1;
nodes = (
"497 600 LINE SMOOTH",
"472 600 OFFCURVE",
"457 585 OFFCURVE",
"457 560 CURVE SMOOTH",
"457 504 LINE",
"476 531 LINE",
"446 585 OFFCURVE",
"389 610 OFFCURVE",
"302 610 CURVE SMOOTH",
"131 610 OFFCURVE",
"45 506 OFFCURVE",
"45 300 CURVE SMOOTH",
"45 95 OFFCURVE",
"132 -10 OFFCURVE",
"302 -10 CURVE SMOOTH",
"396 -10 OFFCURVE",
"454 18 OFFCURVE",
"480 79 CURVE",
"480 30 LINE SMOOTH",
"480 9 OFFCURVE",
"493 0 OFFCURVE",
"522 0 CURVE SMOOTH",
"579 0 LINE SMOOTH",
"604 0 OFFCURVE",
"619 15 OFFCURVE",
"619 40 CURVE SMOOTH",
"619 560 LINE SMOOTH",
"619 585 OFFCURVE",
"604 600 OFFCURVE",
"579 600 CURVE SMOOTH"
);
},
{
closed = 1;
nodes = (
"426 465 OFFCURVE",
"457 425 OFFCURVE",
"457 305 CURVE SMOOTH",
"457 185 OFFCURVE",
"426 145 OFFCURVE",
"333 145 CURVE SMOOTH",
"242 145 OFFCURVE",
"207 189 OFFCURVE",
"207 305 CURVE SMOOTH",
"207 421 OFFCURVE",
"242 465 OFFCURVE",
"333 465 CURVE SMOOTH"
);
}
);
};
hints = (
{
horizontal = 1;
place = "{-10, 155}";
type = Stem;
},
{
horizontal = 1;
place = "{465, 155}";
type = Stem;
},
{
horizontal = 1;
place = "{810, -20}";
target = down;
type = TopGhost;
},
{
place = "{55, 162}";
type = Stem;
},
{
place = "{441, 162}";
type = Stem;
},
{
horizontal = 1;
place = "{0, 21}";
target = up;
type = BottomGhost;
},
{
place = "{464, 139}";
type = Stem;
}
);
layerId = "014D4A40-7C7F-4023-B30E-1F55CE5EA091";
paths = (
{
closed = 1;
nodes = (
"426 469 OFFCURVE",
"457 424 OFFCURVE",
"457 301 CURVE SMOOTH",
"457 178 OFFCURVE",
"426 133 OFFCURVE",
"333 133 CURVE SMOOTH",
"242 133 OFFCURVE",
"207 182 OFFCURVE",
"207 301 CURVE SMOOTH",
"207 420 OFFCURVE",
"242 469 OFFCURVE",
"333 469 CURVE SMOOTH"
);
},
{
closed = 1;
nodes = (
"619 560 LINE SMOOTH",
"619 585 OFFCURVE",
"604 600 OFFCURVE",
"579 600 CURVE SMOOTH",
"507 600 LINE SMOOTH",
"482 600 OFFCURVE",
"467 585 OFFCURVE",
"467 560 CURVE SMOOTH",
"467 504 LINE",
"476 531 LINE",
"446 585 OFFCURVE",
"389 610 OFFCURVE",
"302 610 CURVE SMOOTH",
"131 610 OFFCURVE",
"45 506 OFFCURVE",
"45 300 CURVE SMOOTH",
"45 95 OFFCURVE",
"132 -10 OFFCURVE",
"302 -10 CURVE SMOOTH",
"396 -10 OFFCURVE",
"454 18 OFFCURVE",
"480 79 CURVE",
"457 210 LINE",
"457 155 LINE SMOOTH",
"457 57 OFFCURVE",
"519 -4 OFFCURVE",
"648 -4 CURVE SMOOTH",
"668 -4 OFFCURVE",
"688 -1 OFFCURVE",
"706 4 CURVE SMOOTH",
"726 10 OFFCURVE",
"735 25 OFFCURVE",
"735 48 CURVE SMOOTH",
"735 98 LINE SMOOTH",
"735 126 OFFCURVE",
"725 138 OFFCURVE",
"700 132 CURVE SMOOTH",
"691 130 OFFCURVE",
"681 128 OFFCURVE",
"673 128 CURVE SMOOTH",
"637 128 OFFCURVE",
"619 146 OFFCURVE",
"619 187 CURVE SMOOTH"
);
}
);
width = 715;
}
);
leftMetricsKey = o;
note = d;
unicode = 0061;
},
{
color = 3;
glyphname = b;
lastChange = "2019-02-19 15:26:12 +0000";
layers = (
{
hints = (
{
horizontal = 1;
place = "{0, 21}";
target = up;
type = BottomGhost;
},
{
horizontal = 1;
place = "{521, 90}";
type = Stem;
},
{
horizontal = 1;
place = "{801, -20}";
target = down;
type = TopGhost;
},
{
place = "{87, 93}";
type = Stem;
},
{
place = "{497, 93}";
type = Stem;
},
{
horizontal = 1;
place = "{-10, 90}";
type = Stem;
}
);
layerId = "A3B50665-EA37-4AC6-885C-1233CA61B6BD";
paths = (
{
closed = 1;
nodes = (
"463 525 OFFCURVE",
"512 470 OFFCURVE",
"512 301 CURVE SMOOTH",
"512 132 OFFCURVE",
"463 76 OFFCURVE",
"341 76 CURVE SMOOTH",
"199 76 OFFCURVE",
"174 132 OFFCURVE",
"174 301 CURVE SMOOTH",
"174 470 OFFCURVE",
"199 525 OFFCURVE",
"341 525 CURVE SMOOTH"
);
},
{
closed = 1;
nodes = (
"144 0 LINE SMOOTH",
"160 0 OFFCURVE",
"169 9 OFFCURVE",
"169 25 CURVE SMOOTH",
"169 107 LINE",
"161 82 LINE",
"177 29 OFFCURVE",
"243 -10 OFFCURVE",
"355 -10 CURVE SMOOTH",
"524 -10 OFFCURVE",
"606 90 OFFCURVE",
"606 301 CURVE SMOOTH",
"606 512 OFFCURVE",
"524 611 OFFCURVE",
"355 611 CURVE SMOOTH",
"252 611 OFFCURVE",
"190 575 OFFCURVE",
"164 529 CURVE",
"176 502 LINE",
"176 785 LINE SMOOTH",
"176 801 OFFCURVE",
"167 810 OFFCURVE",
"151 810 CURVE SMOOTH",
"108 810 LINE SMOOTH",
"92 810 OFFCURVE",
"83 801 OFFCURVE",
"83 785 CURVE SMOOTH",
"83 25 LINE SMOOTH",
"83 9 OFFCURVE",
"92 0 OFFCURVE",
"108 0 CURVE SMOOTH"
);
}
);
width = 659;
},
{
background = {
paths = (
{
closed = 1;
nodes = (
"309 620 OFFCURVE",
"264 599 OFFCURVE",
"237 567 CURVE",
"237 770 LINE SMOOTH",
"237 790 OFFCURVE",
"227 810 OFFCURVE",
"197 810 CURVE SMOOTH",
"115 810 LINE SMOOTH",
"85 810 OFFCURVE",
"75 790 OFFCURVE",
"75 770 CURVE SMOOTH",
"75 40 LINE SMOOTH",
"75 20 OFFCURVE",
"85 0 OFFCURVE",
"115 0 CURVE SMOOTH",
"172 0 LINE SMOOTH",
"202 0 OFFCURVE",
"214 10 OFFCURVE",
"214 30 CURVE SMOOTH",
"214 80 LINE",
"237 27 OFFCURVE",
"283 -10 OFFCURVE",
"383 -10 CURVE SMOOTH",
"544 -10 OFFCURVE",
"595 73 OFFCURVE",
"611 161 CURVE SMOOTH",
"616 189 OFFCURVE",
"623 234 OFFCURVE",
"623 305 CURVE SMOOTH",
"623 376 OFFCURVE",
"616 421 OFFCURVE",
"611 449 CURVE SMOOTH",
"595 537 OFFCURVE",
"545 620 OFFCURVE",
"383 620 CURVE SMOOTH"
);
},
{
closed = 1;
nodes = (
"434 465 OFFCURVE",
"449 439 OFFCURVE",
"453 415 CURVE SMOOTH",
"459 380 OFFCURVE",
"461 350 OFFCURVE",
"461 305 CURVE SMOOTH",
"461 260 OFFCURVE",
"459 230 OFFCURVE",
"453 195 CURVE SMOOTH",
"449 171 OFFCURVE",
"434 145 OFFCURVE",
"348 145 CURVE SMOOTH",
"263 145 OFFCURVE",
"249 171 OFFCURVE",
"245 195 CURVE SMOOTH",
"239 230 OFFCURVE",
"237 260 OFFCURVE",
"237 305 CURVE SMOOTH",
"237 349 OFFCURVE",
"239 380 OFFCURVE",
"245 415 CURVE SMOOTH",
"249 439 OFFCURVE",
"263 465 OFFCURVE",
"348 465 CURVE SMOOTH"
);
}
);
};
hints = (
{
horizontal = 1;
place = "{-10, 155}";
type = Stem;
},
{
horizontal = 1;
place = "{465, 155}";
type = Stem;
},
{
horizontal = 1;
place = "{810, -20}";
target = down;
type = TopGhost;
},
{
place = "{65, 162}";
type = Stem;
},
{
place = "{451, 162}";
type = Stem;
},
{
horizontal = 1;
place = "{0, 21}";
target = up;
type = BottomGhost;
},
{
place = "{65, 139}";
type = Stem;
}
);
layerId = "014D4A40-7C7F-4023-B30E-1F55CE5EA091";
paths = (
{
closed = 1;
nodes = (
"452 469 OFFCURVE",
"487 420 OFFCURVE",
"487 300 CURVE SMOOTH",
"487 180 OFFCURVE",
"452 131 OFFCURVE",
"361 131 CURVE SMOOTH",
"268 131 OFFCURVE",
"237 176 OFFCURVE",
"237 300 CURVE SMOOTH",
"237 424 OFFCURVE",
"268 469 OFFCURVE",
"361 469 CURVE SMOOTH"
);
},
{
closed = 1;
nodes = (
"187 0 LINE SMOOTH",
"213 0 OFFCURVE",
"227 14 OFFCURVE",
"227 40 CURVE SMOOTH",
"227 114 LINE",
"214 79 LINE",
"240 18 OFFCURVE",
"298 -10 OFFCURVE",
"392 -10 CURVE SMOOTH",
"562 -10 OFFCURVE",
"649 95 OFFCURVE",
"649 300 CURVE SMOOTH",
"649 506 OFFCURVE",
"563 610 OFFCURVE",
"392 610 CURVE SMOOTH",
"305 610 OFFCURVE",
"248 585 OFFCURVE",
"218 531 CURVE",
"237 504 LINE",
"237 770 LINE SMOOTH",
"237 795 OFFCURVE",
"222 810 OFFCURVE",
"197 810 CURVE SMOOTH",
"115 810 LINE SMOOTH",
"90 810 OFFCURVE",
"75 795 OFFCURVE",
"75 770 CURVE SMOOTH",
"75 40 LINE SMOOTH",
"75 14 OFFCURVE",
"89 0 OFFCURVE",
"115 0 CURVE SMOOTH"
);
}
);
width = 694;
}
);
leftMetricsKey = h;
note = b;
rightMetricsKey = o;
unicode = 0062;
},
{
color = 3;
glyphname = c;
lastChange = "2019-02-19 15:26:29 +0000";
layers = (
{
background = {
paths = (
{
closed = 1;
nodes = (
"135 611 OFFCURVE",
"53 512 OFFCURVE",
"53 301 CURVE SMOOTH",
"53 90 OFFCURVE",
"135 -10 OFFCURVE",
"316 -10 CURVE SMOOTH",
"497 -10 OFFCURVE",
"579 90 OFFCURVE",
"579 301 CURVE SMOOTH",
"579 512 OFFCURVE",
"497 611 OFFCURVE",
"316 611 CURVE SMOOTH"
);
},
{
closed = 1;
nodes = (
"196 76 OFFCURVE",
"147 132 OFFCURVE",
"147 301 CURVE SMOOTH",
"147 470 OFFCURVE",
"196 525 OFFCURVE",
"316 525 CURVE SMOOTH",
"436 525 OFFCURVE",
"485 470 OFFCURVE",
"485 301 CURVE SMOOTH",
"485 132 OFFCURVE",
"436 76 OFFCURVE",
"316 76 CURVE SMOOTH"
);
}
);
};
layerId = "A3B50665-EA37-4AC6-885C-1233CA61B6BD";
paths = (
{
closed = 1;
nodes = (
"371 -10 OFFCURVE",
"417 -5 OFFCURVE",
"462 6 CURVE SMOOTH",
"476 10 OFFCURVE",
"483 20 OFFCURVE",
"483 34 CURVE SMOOTH",
"483 72 LINE SMOOTH",
"483 89 OFFCURVE",
"473 97 OFFCURVE",
"456 93 CURVE SMOOTH",
"418 84 OFFCURVE",
"373 76 OFFCURVE",
"325 76 CURVE SMOOTH",
"196 76 OFFCURVE",
"148 132 OFFCURVE",
"148 301 CURVE SMOOTH",
"148 470 OFFCURVE",
"196 526 OFFCURVE",
"325 526 CURVE SMOOTH",
"373 526 OFFCURVE",
"418 518 OFFCURVE",
"456 509 CURVE SMOOTH",
"473 505 OFFCURVE",
"483 513 OFFCURVE",
"483 530 CURVE SMOOTH",
"483 567 LINE SMOOTH",
"483 581 OFFCURVE",
"476 591 OFFCURVE",
"462 595 CURVE SMOOTH",
"417 608 OFFCURVE",
"371 611 OFFCURVE",
"327 611 CURVE SMOOTH",
"135 611 OFFCURVE",
"53 511 OFFCURVE",
"53 301 CURVE SMOOTH",
"53 90 OFFCURVE",
"135 -10 OFFCURVE",
"327 -10 CURVE SMOOTH"
);
}
);
width = 498;
},
{
background = {
paths = (
{
closed = 1;
nodes = (
"131 610 OFFCURVE",
"45 516 OFFCURVE",
"45 305 CURVE SMOOTH",
"45 85 OFFCURVE",
"132 -10 OFFCURVE",
"332 -10 CURVE SMOOTH",
"530 -10 OFFCURVE",
"617 85 OFFCURVE",
"617 305 CURVE SMOOTH",
"617 516 OFFCURVE",
"531 610 OFFCURVE",
"332 610 CURVE SMOOTH"
);
},
{
closed = 1;
nodes = (
"420 469 OFFCURVE",
"455 421 OFFCURVE",
"455 305 CURVE SMOOTH",
"455 189 OFFCURVE",
"420 141 OFFCURVE",
"332 141 CURVE SMOOTH",
"242 141 OFFCURVE",
"207 189 OFFCURVE",
"207 305 CURVE SMOOTH",
"207 421 OFFCURVE",
"242 469 OFFCURVE",
"332 469 CURVE SMOOTH"
);
}
);
};
layerId = "014D4A40-7C7F-4023-B30E-1F55CE5EA091";
paths = (
{
closed = 1;
nodes = (
"398 -10 OFFCURVE",
"451 -3 OFFCURVE",
"486 5 CURVE SMOOTH",
"510 10 OFFCURVE",
"521 25 OFFCURVE",
"521 49 CURVE SMOOTH",
"521 115 LINE SMOOTH",
"521 142 OFFCURVE",
"505 156 OFFCURVE",
"478 152 CURVE SMOOTH",
"436 146 OFFCURVE",
"395 138 OFFCURVE",
"351 139 CURVE SMOOTH",
"242 141 OFFCURVE",
"210 187 OFFCURVE",
"210 302 CURVE SMOOTH",
"210 413 OFFCURVE",
"242 461 OFFCURVE",
"351 461 CURVE SMOOTH",
"395 461 OFFCURVE",
"436 454 OFFCURVE",
"478 448 CURVE SMOOTH",
"505 444 OFFCURVE",
"521 458 OFFCURVE",
"521 485 CURVE SMOOTH",
"521 551 LINE SMOOTH",
"521 575 OFFCURVE",
"510 590 OFFCURVE",
"486 595 CURVE SMOOTH",
"451 603 OFFCURVE",
"398 610 OFFCURVE",
"352 610 CURVE SMOOTH",
"132 610 OFFCURVE",
"45 515 OFFCURVE",
"45 302 CURVE SMOOTH",
"45 85 OFFCURVE",
"132 -10 OFFCURVE",
"352 -10 CURVE SMOOTH"
);
}
);
width = 536;
}
);
leftMetricsKey = o;
unicode = 0063;
},
{
color = 3;
glyphname = d;
lastChange = "2019-02-19 15:26:46 +0000";
layers = (
{
background = {
paths = (
{
closed = 1;
nodes = (
"506 801 LINE SMOOTH",
"493 801 OFFCURVE",
"483 790 OFFCURVE",
"483 779 CURVE SMOOTH",
"483 502 LINE",
"495 529 LINE",
"469 575 OFFCURVE",
"417 611 OFFCURVE",
"314 611 CURVE SMOOTH",
"148 611 OFFCURVE",
"99 533 OFFCURVE",
"87 466 CURVE SMOOTH",
"78 417 OFFCURVE",
"73 373 OFFCURVE",
"73 301 CURVE SMOOTH",
"73 230 OFFCURVE",
"79 185 OFFCURVE",
"87 134 CURVE SMOOTH",
"97 68 OFFCURVE",
"148 -10 OFFCURVE",
"314 -10 CURVE SMOOTH",
"411 -10 OFFCURVE",
"463 22 OFFCURVE",
"490 63 CURVE",
"490 21 LINE SMOOTH",
"490 10 OFFCURVE",
"500 0 OFFCURVE",
"512 0 CURVE SMOOTH",
"554 0 LINE SMOOTH",
"566 0 OFFCURVE",
"576 11 OFFCURVE",
"576 22 CURVE SMOOTH",
"576 779 LINE SMOOTH",
"576 790 OFFCURVE",
"566 801 OFFCURVE",
"554 801 CURVE SMOOTH"
);
},
{
closed = 1;
nodes = (
"449 521 OFFCURVE",
"467 484 OFFCURVE",
"473 451 CURVE SMOOTH",
"482 404 OFFCURVE",
"484 364 OFFCURVE",
"484 301 CURVE SMOOTH",
"484 238 OFFCURVE",
"481 197 OFFCURVE",
"473 149 CURVE SMOOTH",
"468 117 OFFCURVE",
"449 80 OFFCURVE",
"326 80 CURVE SMOOTH",
"201 80 OFFCURVE",
"183 117 OFFCURVE",
"177 149 CURVE SMOOTH",
"168 197 OFFCURVE",
"166 238 OFFCURVE",
"166 301 CURVE SMOOTH",
"166 365 OFFCURVE",
"168 404 OFFCURVE",
"177 451 CURVE SMOOTH",
"183 484 OFFCURVE",
"201 521 OFFCURVE",
"327 521 CURVE SMOOTH"
);
}
);
};
hints = (
{
horizontal = 1;
place = "{-10, 90}";
type = Stem;
},
{
horizontal = 1;
place = "{521, 90}";
type = Stem;
},
{
horizontal = 1;
place = "{801, -20}";
target = down;
type = TopGhost;
},
{
place = "{77, 93}";
type = Stem;
},
{
place = "{487, 93}";
type = Stem;
},
{
horizontal = 1;
place = "{0, 21}";
target = up;
type = BottomGhost;
}
);
layerId = "A3B50665-EA37-4AC6-885C-1233CA61B6BD";
paths = (
{
closed = 1;
nodes = (
"416 -10 OFFCURVE",
"482 29 OFFCURVE",
"498 82 CURVE",
"485 144 LINE",
"485 113 LINE SMOOTH",
"485 36 OFFCURVE",
"532 -4 OFFCURVE",
"621 -4 CURVE SMOOTH",
"635 -4 OFFCURVE",
"652 -2 OFFCURVE",
"666 1 CURVE SMOOTH",
"680 4 OFFCURVE",
"686 15 OFFCURVE",
"686 29 CURVE SMOOTH",
"686 55 LINE SMOOTH",
"686 72 OFFCURVE",
"676 79 OFFCURVE",
"658 77 CURVE SMOOTH",
"649 76 OFFCURVE",
"641 75 OFFCURVE",
"632 75 CURVE SMOOTH",
"589 75 OFFCURVE",
"576 91 OFFCURVE",
"576 131 CURVE SMOOTH",
"576 785 LINE SMOOTH",
"576 801 OFFCURVE",
"567 810 OFFCURVE",
"551 810 CURVE SMOOTH",
"508 810 LINE SMOOTH",
"492 810 OFFCURVE",
"483 801 OFFCURVE",
"483 785 CURVE SMOOTH",
"483 502 LINE",
"495 529 LINE",
"469 575 OFFCURVE",
"407 611 OFFCURVE",
"304 611 CURVE SMOOTH",
"135 611 OFFCURVE",
"53 512 OFFCURVE",
"53 301 CURVE SMOOTH",
"53 90 OFFCURVE",
"135 -10 OFFCURVE",
"304 -10 CURVE SMOOTH"
);
},
{
closed = 1;
nodes = (
"196 77 OFFCURVE",
"147 133 OFFCURVE",
"147 301 CURVE SMOOTH",
"147 470 OFFCURVE",
"196 525 OFFCURVE",
"318 525 CURVE SMOOTH",
"460 525 OFFCURVE",
"485 470 OFFCURVE",
"485 301 CURVE SMOOTH",
"485 133 OFFCURVE",
"460 77 OFFCURVE",
"318 77 CURVE SMOOTH"
);
}
);
width = 679;
},
{
background = {
paths = (
{
closed = 1;
nodes = (
"497 810 LINE SMOOTH",
"467 810 OFFCURVE",
"457 790 OFFCURVE",
"457 770 CURVE SMOOTH",
"457 504 LINE",
"476 531 LINE",
"450 578 OFFCURVE",
"404 610 OFFCURVE",
"311 610 CURVE SMOOTH",
"149 610 OFFCURVE",
"98 528 OFFCURVE",
"83 442 CURVE SMOOTH",
"78 414 OFFCURVE",
"71 370 OFFCURVE",
"71 300 CURVE SMOOTH",
"71 230 OFFCURVE",
"78 186 OFFCURVE",
"83 158 CURVE SMOOTH",
"98 72 OFFCURVE",
"150 -10 OFFCURVE",
"311 -10 CURVE SMOOTH",
"410 -10 OFFCURVE",
"457 26 OFFCURVE",
"480 79 CURVE",
"480 30 LINE SMOOTH",
"480 10 OFFCURVE",
"492 0 OFFCURVE",
"522 0 CURVE SMOOTH",
"579 0 LINE SMOOTH",
"609 0 OFFCURVE",
"619 20 OFFCURVE",
"619 40 CURVE SMOOTH",
"619 770 LINE SMOOTH",
"619 790 OFFCURVE",
"609 810 OFFCURVE",
"579 810 CURVE SMOOTH"
);
},
{
closed = 1;
nodes = (
"431 465 OFFCURVE",
"445 439 OFFCURVE",
"449 415 CURVE SMOOTH",
"455 380 OFFCURVE",
"457 349 OFFCURVE",
"457 305 CURVE SMOOTH",
"457 260 OFFCURVE",
"455 230 OFFCURVE",
"449 195 CURVE SMOOTH",
"445 171 OFFCURVE",
"431 145 OFFCURVE",
"346 145 CURVE SMOOTH",
"260 145 OFFCURVE",
"245 171 OFFCURVE",
"241 195 CURVE SMOOTH",
"235 230 OFFCURVE",
"233 260 OFFCURVE",
"233 305 CURVE SMOOTH",
"233 350 OFFCURVE",
"235 380 OFFCURVE",
"241 415 CURVE SMOOTH",
"245 439 OFFCURVE",
"260 465 OFFCURVE",
"346 465 CURVE SMOOTH"
);
}
);
};
hints = (
{
horizontal = 1;
place = "{-10, 155}";
type = Stem;
},
{
horizontal = 1;
place = "{465, 155}";
type = Stem;
},
{
horizontal = 1;
place = "{810, -20}";
target = down;
type = TopGhost;
},
{
place = "{55, 162}";
type = Stem;
},
{
place = "{441, 162}";
type = Stem;
},
{
horizontal = 1;
place = "{0, 21}";
target = up;
type = BottomGhost;
},
{
place = "{464, 139}";
type = Stem;
}
);
layerId = "014D4A40-7C7F-4023-B30E-1F55CE5EA091";
paths = (
{
closed = 1;
nodes = (
"396 -10 OFFCURVE",
"454 18 OFFCURVE",
"480 79 CURVE",
"457 210 LINE",
"457 155 LINE SMOOTH",
"457 57 OFFCURVE",
"519 -4 OFFCURVE",
"648 -4 CURVE SMOOTH",
"668 -4 OFFCURVE",
"688 -1 OFFCURVE",
"706 4 CURVE SMOOTH",
"726 10 OFFCURVE",
"735 25 OFFCURVE",
"735 48 CURVE SMOOTH",
"735 98 LINE SMOOTH",
"735 126 OFFCURVE",
"725 138 OFFCURVE",
"700 132 CURVE SMOOTH",
"691 130 OFFCURVE",
"681 128 OFFCURVE",
"673 128 CURVE SMOOTH",
"637 128 OFFCURVE",
"619 146 OFFCURVE",
"619 187 CURVE SMOOTH",
"619 770 LINE SMOOTH",
"619 795 OFFCURVE",
"604 810 OFFCURVE",
"579 810 CURVE SMOOTH",
"497 810 LINE SMOOTH",
"472 810 OFFCURVE",
"457 795 OFFCURVE",
"457 770 CURVE SMOOTH",
"457 504 LINE",
"476 531 LINE",
"446 585 OFFCURVE",
"389 610 OFFCURVE",
"302 610 CURVE SMOOTH",
"131 610 OFFCURVE",
"45 506 OFFCURVE",
"45 300 CURVE SMOOTH",
"45 95 OFFCURVE",
"132 -10 OFFCURVE",
"302 -10 CURVE SMOOTH"
);
},
{
closed = 1;
nodes = (
"242 141 OFFCURVE",
"207 189 OFFCURVE",
"207 305 CURVE SMOOTH",
"207 421 OFFCURVE",
"242 469 OFFCURVE",
"333 469 CURVE SMOOTH",
"426 469 OFFCURVE",
"457 425 OFFCURVE",
"457 305 CURVE SMOOTH",
"457 185 OFFCURVE",
"426 141 OFFCURVE",
"333 141 CURVE SMOOTH"
);
}
);
width = 715;
}
);
leftMetricsKey = o;
note = d;
rightMetricsKey = a;
unicode = 0064;
},
{
color = 3;
glyphname = e;
lastChange = "2019-02-19 15:56:59 +0000";
layers = (
{
background = {
paths = (
{
closed = 1;
nodes = (
"835 611 OFFCURVE",
"753 512 OFFCURVE",
"753 301 CURVE SMOOTH",
"753 90 OFFCURVE",
"835 -10 OFFCURVE",
"1016 -10 CURVE SMOOTH",
"1197 -10 OFFCURVE",
"1279 90 OFFCURVE",
"1279 301 CURVE SMOOTH",
"1279 512 OFFCURVE",
"1197 611 OFFCURVE",
"1016 611 CURVE SMOOTH"
);
},
{
closed = 1;
nodes = (
"896 76 OFFCURVE",
"847 132 OFFCURVE",
"847 301 CURVE SMOOTH",
"847 470 OFFCURVE",
"896 525 OFFCURVE",
"1016 525 CURVE SMOOTH",
"1136 525 OFFCURVE",
"1185 470 OFFCURVE",
"1185 301 CURVE SMOOTH",
"1185 132 OFFCURVE",
"1136 76 OFFCURVE",
"1016 76 CURVE SMOOTH"
);
},
{
closed = 1;
nodes = (
"148 470 OFFCURVE",
"196 526 OFFCURVE",
"325 526 CURVE SMOOTH",
"373 526 OFFCURVE",
"418 518 OFFCURVE",
"456 509 CURVE SMOOTH",
"473 505 OFFCURVE",
"483 513 OFFCURVE",
"483 530 CURVE SMOOTH",
"483 567 LINE SMOOTH",
"483 581 OFFCURVE",
"476 591 OFFCURVE",
"462 595 CURVE SMOOTH",
"417 608 OFFCURVE",
"371 611 OFFCURVE",
"327 611 CURVE SMOOTH",
"135 611 OFFCURVE",
"53 511 OFFCURVE",
"53 301 CURVE SMOOTH",
"53 90 OFFCURVE",
"135 -10 OFFCURVE",
"327 -10 CURVE SMOOTH",
"371 -10 OFFCURVE",
"417 -5 OFFCURVE",
"462 6 CURVE SMOOTH",
"476 10 OFFCURVE",
"483 20 OFFCURVE",
"483 34 CURVE SMOOTH",
"483 72 LINE SMOOTH",
"483 89 OFFCURVE",
"473 97 OFFCURVE",
"456 93 CURVE SMOOTH",
"418 84 OFFCURVE",
"373 76 OFFCURVE",
"325 76 CURVE SMOOTH",
"196 76 OFFCURVE",
"148 132 OFFCURVE",
"148 301 CURVE"
);
}
);
};
hints = (
{
horizontal = 1;
place = "{-10, 90}";
type = Stem;
},
{
horizontal = 1;
place = "{522, 89}";
type = Stem;
},
{
place = "{77, 92}";
type = Stem;
},
{
place = "{469, 96}";
type = Stem;
}
);
layerId = "A3B50665-EA37-4AC6-885C-1233CA61B6BD";
paths = (
{
closed = 1;
nodes = (
"147 301 CURVE SMOOTH",
"147 469 OFFCURVE",
"196 526 OFFCURVE",
"316 526 CURVE SMOOTH",
"406 526 OFFCURVE",
"445 500 OFFCURVE",
"445 442 CURVE SMOOTH",
"445 404 OFFCURVE",
"422 373 OFFCURVE",
"385 355 CURVE SMOOTH",
"132 232 LINE",
"132 144 LINE",
"414 282 LINE SMOOTH",
"506 327 OFFCURVE",
"541 374 OFFCURVE",
"541 447 CURVE SMOOTH",
"541 547 OFFCURVE",
"473 611 OFFCURVE",
"316 611 CURVE SMOOTH",
"142 611 OFFCURVE",
"53 511 OFFCURVE",
"53 300 CURVE SMOOTH",
"53 90 OFFCURVE",
"135 -10 OFFCURVE",
"335 -10 CURVE SMOOTH",
"399 -10 OFFCURVE",
"445 -1 OFFCURVE",
"490 9 CURVE SMOOTH",
"504 12 OFFCURVE",
"511 23 OFFCURVE",
"511 37 CURVE SMOOTH",
"511 74 LINE SMOOTH",
"511 91 OFFCURVE",
"501 99 OFFCURVE",
"484 95 CURVE SMOOTH",
"446 86 OFFCURVE",
"401 75 OFFCURVE",
"333 75 CURVE SMOOTH",
"194 75 OFFCURVE",
"147 132 OFFCURVE"
);
}
);
width = 586;
},
{
background = {
paths = (
{
closed = 1;
nodes = (
"204 305 CURVE SMOOTH",
"204 441 OFFCURVE",
"256 478 OFFCURVE",
"337 478 CURVE SMOOTH",
"387 478 OFFCURVE",
"406 462 OFFCURVE",
"406 430 CURVE SMOOTH",
"406 407 OFFCURVE",
"390 387 OFFCURVE",
"359 372 CURVE SMOOTH",
"169 279 LINE",
"169 155 LINE",
"474 304 LINE SMOOTH",
"549 341 OFFCURVE",
"576 382 OFFCURVE",
"576 447 CURVE SMOOTH",
"576 532 OFFCURVE",
"530 610 OFFCURVE",
"342 610 CURVE SMOOTH",
"151 610 OFFCURVE",
"45 506 OFFCURVE",
"45 307 CURVE SMOOTH",
"45 85 OFFCURVE",
"132 -10 OFFCURVE",
"352 -10 CURVE SMOOTH",
"428 -10 OFFCURVE",
"481 -2 OFFCURVE",
"516 5 CURVE SMOOTH",
"540 10 OFFCURVE",
"551 25 OFFCURVE",
"551 49 CURVE SMOOTH",
"551 112 LINE SMOOTH",
"551 139 OFFCURVE",
"535 153 OFFCURVE",
"508 149 CURVE SMOOTH",
"466 143 OFFCURVE",
"425 136 OFFCURVE",
"351 136 CURVE SMOOTH",
"247 136 OFFCURVE",
"204 187 OFFCURVE"
);
}
);
};
hints = (
{
horizontal = 1;
place = "{-10, 155}";
type = Stem;
},
{
horizontal = 1;
place = "{472, 148}";
type = Stem;
},
{
place = "{55, 160}";
type = Stem;
},
{
place = "{416, 170}";
type = Stem;
}
);
layerId = "014D4A40-7C7F-4023-B30E-1F55CE5EA091";
paths = (
{
closed = 1;
nodes = (
"204 305 CURVE SMOOTH",
"204 441 OFFCURVE",
"256 478 OFFCURVE",
"337 478 CURVE SMOOTH",
"384 478 OFFCURVE",
"406 462 OFFCURVE",
"406 430 CURVE SMOOTH",
"406 407 OFFCURVE",
"390 387 OFFCURVE",
"359 372 CURVE SMOOTH",
"169 279 LINE",
"169 145 LINE",
"474 294 LINE SMOOTH",
"549 331 OFFCURVE",
"576 379 OFFCURVE",
"576 444 CURVE SMOOTH",
"576 532 OFFCURVE",
"530 610 OFFCURVE",
"342 610 CURVE SMOOTH",
"151 610 OFFCURVE",
"45 506 OFFCURVE",
"45 307 CURVE SMOOTH",
"45 85 OFFCURVE",
"132 -10 OFFCURVE",
"352 -10 CURVE SMOOTH",
"425 -10 OFFCURVE",
"478 -2 OFFCURVE",
"513 5 CURVE SMOOTH",
"537 10 OFFCURVE",
"548 25 OFFCURVE",
"548 49 CURVE SMOOTH",
"548 112 LINE SMOOTH",
"548 139 OFFCURVE",
"532 153 OFFCURVE",
"505 149 CURVE SMOOTH",
"463 143 OFFCURVE",
"422 136 OFFCURVE",
"351 136 CURVE SMOOTH",
"247 136 OFFCURVE",
"204 187 OFFCURVE"
);
}
);
width = 599;
}
);
leftMetricsKey = o;
note = e;
unicode = 0065;
},
{
color = 3;
glyphname = f;
lastChange = "2019-02-19 15:27:48 +0000";
layers = (
{
background = {
paths = (
{
closed = 1;
nodes = (
"191 820 OFFCURVE",
"103 733 OFFCURVE",
"103 584 CURVE SMOOTH",
"103 25 LINE SMOOTH",
"103 9 OFFCURVE",
"112 0 OFFCURVE",
"128 0 CURVE SMOOTH",
"171 0 LINE SMOOTH",
"187 0 OFFCURVE",
"196 9 OFFCURVE",
"196 25 CURVE SMOOTH",
"196 576 LINE SMOOTH",
"196 700 OFFCURVE",
"256 738 OFFCURVE",
"339 738 CURVE SMOOTH",
"372 738 OFFCURVE",
"397 733 OFFCURVE",
"421 725 CURVE SMOOTH",
"439 719 OFFCURVE",
"450 727 OFFCURVE",
"450 745 CURVE SMOOTH",
"450 779 LINE SMOOTH",
"450 793 OFFCURVE",
"443 803 OFFCURVE",
"429 807 CURVE SMOOTH",
"398 816 OFFCURVE",
"363 820 OFFCURVE",
"335 820 CURVE SMOOTH"
);
},
{
closed = 1;
nodes = (
"372 519 LINE SMOOTH",
"388 519 OFFCURVE",
"397 528 OFFCURVE",
"397 544 CURVE SMOOTH",
"397 575 LINE SMOOTH",
"397 591 OFFCURVE",
"388 600 OFFCURVE",
"372 600 CURVE SMOOTH",
"28 600 LINE SMOOTH",
"12 600 OFFCURVE",
"3 591 OFFCURVE",
"3 575 CURVE SMOOTH",
"3 544 LINE SMOOTH",
"3 528 OFFCURVE",
"12 519 OFFCURVE",
"28 519 CURVE SMOOTH"
);
}
);
};
layerId = "A3B50665-EA37-4AC6-885C-1233CA61B6BD";
paths = (
{
closed = 1;
nodes = (
"197 820 OFFCURVE",
"103 728 OFFCURVE",
"103 584 CURVE SMOOTH",
"103 25 LINE SMOOTH",
"103 9 OFFCURVE",
"112 0 OFFCURVE",
"128 0 CURVE SMOOTH",
"171 0 LINE SMOOTH",
"187 0 OFFCURVE",
"196 9 OFFCURVE",
"196 25 CURVE SMOOTH",
"196 576 LINE SMOOTH",
"196 700 OFFCURVE",
"259 738 OFFCURVE",
"349 738 CURVE SMOOTH",
"390 738 OFFCURVE",
"415 733 OFFCURVE",
"439 725 CURVE SMOOTH",
"457 719 OFFCURVE",
"468 727 OFFCURVE",
"468 745 CURVE SMOOTH",
"468 779 LINE SMOOTH",
"468 793 OFFCURVE",
"461 803 OFFCURVE",
"447 807 CURVE SMOOTH",
"416 816 OFFCURVE",
"384 820 OFFCURVE",
"351 820 CURVE SMOOTH"
);
},
{
closed = 1;
nodes = (
"372 519 LINE SMOOTH",
"388 519 OFFCURVE",
"397 528 OFFCURVE",
"397 544 CURVE SMOOTH",
"397 575 LINE SMOOTH",
"397 591 OFFCURVE",
"388 600 OFFCURVE",
"372 600 CURVE SMOOTH",
"28 600 LINE SMOOTH",
"12 600 OFFCURVE",
"3 591 OFFCURVE",
"3 575 CURVE SMOOTH",
"3 544 LINE SMOOTH",
"3 528 OFFCURVE",
"12 519 OFFCURVE",
"28 519 CURVE SMOOTH"
);
}
);
width = 351;
},
{
background = {
paths = (
{
closed = 1;
nodes = (
"212 820 OFFCURVE",
"96 734 OFFCURVE",
"96 584 CURVE SMOOTH",
"96 40 LINE SMOOTH",
"96 14 OFFCURVE",
"110 0 OFFCURVE",
"136 0 CURVE SMOOTH",
"212 0 LINE SMOOTH",
"238 0 OFFCURVE",
"252 14 OFFCURVE",
"252 40 CURVE SMOOTH",
"252 582 LINE SMOOTH",
"252 650 OFFCURVE",
"300 689 OFFCURVE",
"384 689 CURVE SMOOTH",
"404 689 OFFCURVE",
"426 687 OFFCURVE",
"447 682 CURVE SMOOTH",
"476 675 OFFCURVE",
"492 685 OFFCURVE",
"492 714 CURVE SMOOTH",
"492 769 LINE SMOOTH",
"492 793 OFFCURVE",
"481 809 OFFCURVE",
"457 813 CURVE SMOOTH",
"427 818 OFFCURVE",
"398 820 OFFCURVE",
"376 820 CURVE SMOOTH"
);
},
{
closed = 1;
nodes = (
"394 468 LINE SMOOTH",
"420 468 OFFCURVE",
"434 482 OFFCURVE",
"434 508 CURVE SMOOTH",
"434 560 LINE SMOOTH",
"434 586 OFFCURVE",
"420 600 OFFCURVE",
"394 600 CURVE SMOOTH",
"35 600 LINE SMOOTH",
"9 600 OFFCURVE",
"-5 586 OFFCURVE",
"-5 560 CURVE SMOOTH",
"-5 508 LINE SMOOTH",
"-5 482 OFFCURVE",
"9 468 OFFCURVE",
"35 468 CURVE SMOOTH"
);
}
);
};
layerId = "014D4A40-7C7F-4023-B30E-1F55CE5EA091";
paths = (
{
closed = 1;
nodes = (
"212 820 OFFCURVE",
"96 734 OFFCURVE",
"96 584 CURVE SMOOTH",
"96 40 LINE SMOOTH",
"96 14 OFFCURVE",
"110 0 OFFCURVE",
"136 0 CURVE SMOOTH",
"212 0 LINE SMOOTH",
"238 0 OFFCURVE",
"252 14 OFFCURVE",
"252 40 CURVE SMOOTH",
"252 582 LINE SMOOTH",
"252 650 OFFCURVE",
"300 689 OFFCURVE",
"391 689 CURVE SMOOTH",
"419 689 OFFCURVE",
"441 687 OFFCURVE",
"462 682 CURVE SMOOTH",
"491 675 OFFCURVE",
"507 685 OFFCURVE",
"507 714 CURVE SMOOTH",
"507 769 LINE SMOOTH",
"507 793 OFFCURVE",
"496 809 OFFCURVE",
"472 813 CURVE SMOOTH",
"442 818 OFFCURVE",
"413 820 OFFCURVE",
"386 820 CURVE SMOOTH"
);
},
{
closed = 1;
nodes = (
"394 468 LINE SMOOTH",
"420 468 OFFCURVE",
"434 482 OFFCURVE",
"434 508 CURVE SMOOTH",
"434 560 LINE SMOOTH",
"434 586 OFFCURVE",
"420 600 OFFCURVE",
"394 600 CURVE SMOOTH",
"35 600 LINE SMOOTH",
"9 600 OFFCURVE",
"-5 586 OFFCURVE",
"-5 560 CURVE SMOOTH",
"-5 508 LINE SMOOTH",
"-5 482 OFFCURVE",
"9 468 OFFCURVE",
"35 468 CURVE SMOOTH"
);
}
);
width = 406;
}
);
unicode = 0066;
},
{
color = 3;
glyphname = g;
lastChange = "2019-02-19 15:27:50 +0000";
layers = (
{
background = {
paths = (
{
closed = 1;
nodes = (
"1406 -209 OFFCURVE",
"1452 -134 OFFCURVE",
"1465 -64 CURVE SMOOTH",
"1474 -14 OFFCURVE",
"1480 30 OFFCURVE",
"1480 101 CURVE SMOOTH",
"1480 577 LINE SMOOTH",
"1480 589 OFFCURVE",
"1470 600 OFFCURVE",
"1457 600 CURVE SMOOTH",
"1412 600 LINE SMOOTH",
"1400 600 OFFCURVE",
"1390 590 OFFCURVE",
"1390 579 CURVE SMOOTH",
"1390 546 LINE",
"1362 583 OFFCURVE",
"1311 611 OFFCURVE",
"1217 611 CURVE SMOOTH",
"1051 611 OFFCURVE",
"1002 533 OFFCURVE",
"990 466 CURVE SMOOTH",
"981 417 OFFCURVE",
"976 373 OFFCURVE",
"976 318 CURVE SMOOTH",
"976 265 OFFCURVE",
"982 220 OFFCURVE",
"990 169 CURVE SMOOTH",
"1000 103 OFFCURVE",
"1051 25 OFFCURVE",
"1217 25 CURVE SMOOTH",
"1307 25 OFFCURVE",
"1358 51 OFFCURVE",
"1387 86 CURVE",
"1386 30 OFFCURVE",
"1383 -4 OFFCURVE",
"1376 -46 CURVE SMOOTH",
"1370 -82 OFFCURVE",
"1355 -119 OFFCURVE",
"1214 -119 CURVE SMOOTH",
"1121 -119 OFFCURVE",
"1076 -110 OFFCURVE",
"1033 -106 CURVE SMOOTH",
"1023 -105 OFFCURVE",
"1011 -113 OFFCURVE",
"1011 -125 CURVE SMOOTH",
"1011 -171 LINE SMOOTH",
"1011 -185 OFFCURVE",
"1021 -195 OFFCURVE",
"1033 -196 CURVE",
"1073 -202 OFFCURVE",
"1136 -209 OFFCURVE",
"1212 -209 CURVE SMOOTH"
);
},
{
closed = 1;
nodes = (
"1104 115 OFFCURVE",
"1086 152 OFFCURVE",
"1080 184 CURVE SMOOTH",
"1071 232 OFFCURVE",
"1069 273 OFFCURVE",
"1069 318 CURVE SMOOTH",
"1069 365 OFFCURVE",
"1071 404 OFFCURVE",
"1080 451 CURVE SMOOTH",
"1086 484 OFFCURVE",
"1104 521 OFFCURVE",
"1230 521 CURVE SMOOTH",
"1352 521 OFFCURVE",
"1370 484 OFFCURVE",
"1376 451 CURVE SMOOTH",
"1385 404 OFFCURVE",
"1387 364 OFFCURVE",
"1387 318 CURVE SMOOTH",
"1387 273 OFFCURVE",
"1384 232 OFFCURVE",
"1376 184 CURVE SMOOTH",
"1371 152 OFFCURVE",
"1352 115 OFFCURVE",
"1229 115 CURVE SMOOTH"
);
},
{
closed = 1;
nodes = (
"501 -200 OFFCURVE",
"583 -100 OFFCURVE",
"583 111 CURVE SMOOTH",
"583 321 OFFCURVE",
"501 421 OFFCURVE",
"309 421 CURVE SMOOTH",
"265 421 OFFCURVE",
"219 418 OFFCURVE",
"174 405 CURVE SMOOTH",
"160 401 OFFCURVE",
"153 391 OFFCURVE",
"153 377 CURVE SMOOTH",
"153 340 LINE SMOOTH",
"153 323 OFFCURVE",
"163 315 OFFCURVE",
"180 319 CURVE SMOOTH",
"218 328 OFFCURVE",
"263 336 OFFCURVE",
"311 336 CURVE SMOOTH",
"440 336 OFFCURVE",
"488 280 OFFCURVE",
"488 111 CURVE",
"488 -58 OFFCURVE",
"440 -114 OFFCURVE",
"311 -114 CURVE SMOOTH",
"263 -114 OFFCURVE",
"218 -106 OFFCURVE",
"180 -97 CURVE SMOOTH",
"163 -93 OFFCURVE",
"153 -101 OFFCURVE",
"153 -118 CURVE SMOOTH",
"153 -156 LINE SMOOTH",
"153 -170 OFFCURVE",
"160 -180 OFFCURVE",
"174 -184 CURVE SMOOTH",
"219 -197 OFFCURVE",
"265 -200 OFFCURVE",
"309 -200 CURVE SMOOTH"
);
}
);
};
hints = (
{
horizontal = 1;
place = "{-209, 90}";
type = Stem;
},
{
horizontal = 1;
place = "{25, 90}";
type = Stem;
},
{
horizontal = 1;
place = "{521, 90}";
type = Stem;
},
{
place = "{77, 93}";
type = Stem;
},
{
place = "{488, 93}";
type = Stem;
},
{
horizontal = 1;
place = "{600, -20}";
target = down;
type = TopGhost;
}
);
layerId = "A3B50665-EA37-4AC6-885C-1233CA61B6BD";
paths = (
{
closed = 1;
nodes = (
"197 97 OFFCURVE",
"147 149 OFFCURVE",
"147 310 CURVE SMOOTH",
"147 471 OFFCURVE",
"197 525 OFFCURVE",
"320 525 CURVE SMOOTH",
"464 525 OFFCURVE",
"489 471 OFFCURVE",
"489 310 CURVE SMOOTH",
"489 149 OFFCURVE",
"464 97 OFFCURVE",
"320 97 CURVE SMOOTH"
);
},
{
closed = 1;
nodes = (
"580 575 LINE SMOOTH",
"580 591 OFFCURVE",
"571 600 OFFCURVE",
"555 600 CURVE SMOOTH",
"519 600 LINE SMOOTH",
"503 600 OFFCURVE",
"494 591 OFFCURVE",
"494 575 CURVE SMOOTH",
"494 494 LINE",
"502 522 LINE",
"486 573 OFFCURVE",
"419 611 OFFCURVE",
"306 611 CURVE SMOOTH",
"136 611 OFFCURVE",
"53 514 OFFCURVE",
"53 310 CURVE SMOOTH",
"53 106 OFFCURVE",
"136 10 OFFCURVE",
"306 10 CURVE SMOOTH",
"410 10 OFFCURVE",
"473 45 OFFCURVE",
"499 89 CURVE",
"487 114 LINE",
"487 81 LINE SMOOTH",
"487 -60 OFFCURVE",
"437 -112 OFFCURVE",
"281 -112 CURVE SMOOTH",
"213 -112 OFFCURVE",
"163 -98 OFFCURVE",
"120 -85 CURVE SMOOTH",
"103 -80 OFFCURVE",
"93 -89 OFFCURVE",
"93 -106 CURVE SMOOTH",
"93 -152 LINE SMOOTH",
"93 -166 OFFCURVE",
"103 -173 OFFCURVE",
"115 -177 CURVE SMOOTH",
"159 -192 OFFCURVE",
"215 -199 OFFCURVE",
"279 -199 CURVE SMOOTH",
"491 -199 OFFCURVE",
"580 -107 OFFCURVE",
"580 81 CURVE SMOOTH"
);
}
);
width = 663;
},
{
background = {
paths = (
{
closed = 1;
nodes = (
"243 171 OFFCURVE",
"207 213 OFFCURVE",
"207 315 CURVE SMOOTH",
"207 417 OFFCURVE",
"243 459 OFFCURVE",
"335 459 CURVE SMOOTH",
"430 459 OFFCURVE",
"461 420 OFFCURVE",
"461 315 CURVE SMOOTH",
"461 210 OFFCURVE",
"430 171 OFFCURVE",
"335 171 CURVE SMOOTH"
);
},
{
closed = 1;
nodes = (
"623 560 LINE SMOOTH",
"623 586 OFFCURVE",
"609 600 OFFCURVE",
"583 600 CURVE SMOOTH",
"511 600 LINE SMOOTH",
"485 600 OFFCURVE",
"471 586 OFFCURVE",
"471 560 CURVE SMOOTH",
"471 486 LINE",
"484 521 LINE",
"458 581 OFFCURVE",
"399 610 OFFCURVE",
"304 610 CURVE SMOOTH",
"133 610 OFFCURVE",
"45 510 OFFCURVE",
"45 315 CURVE SMOOTH",
"45 119 OFFCURVE",
"132 20 OFFCURVE",
"304 20 CURVE SMOOTH",
"392 20 OFFCURVE",
"450 46 OFFCURVE",
"480 99 CURVE",
"466 133 LINE",
"466 92 LINE SMOOTH",
"466 -3 OFFCURVE",
"426 -49 OFFCURVE",
"297 -51 CURVE SMOOTH",
"243 -52 OFFCURVE",
"174 -38 OFFCURVE",
"132 -29 CURVE SMOOTH",
"105 -23 OFFCURVE",
"89 -39 OFFCURVE",
"89 -66 CURVE SMOOTH",
"89 -137 LINE SMOOTH",
"89 -161 OFFCURVE",
"100 -175 OFFCURVE",
"124 -181 CURVE SMOOTH",
"168 -192 OFFCURVE",
"230 -200 OFFCURVE",
"296 -200 CURVE SMOOTH",
"536 -200 OFFCURVE",
"623 -105 OFFCURVE",
"623 92 CURVE SMOOTH"
);
}
);
};
hints = (
{
horizontal = 1;
place = "{-200, 148}";
type = Stem;
},
{
horizontal = 1;
place = "{57, 151}";
type = Stem;
},
{
horizontal = 1;
place = "{600, -20}";
target = down;
type = TopGhost;
},
{
place = "{55, 166}";
type = Stem;
},
{
place = "{445, 162}";
type = Stem;
},
{
horizontal = 1;
place = "{465, 155}";
type = Stem;
},
{
place = "{468, 139}";
type = Stem;
}
);
layerId = "014D4A40-7C7F-4023-B30E-1F55CE5EA091";
paths = (
{
closed = 1;
nodes = (
"243 164 OFFCURVE",
"207 209 OFFCURVE",
"207 315 CURVE SMOOTH",
"207 422 OFFCURVE",
"243 468 OFFCURVE",
"335 468 CURVE SMOOTH",
"430 468 OFFCURVE",
"461 427 OFFCURVE",
"461 315 CURVE SMOOTH",
"461 206 OFFCURVE",
"430 164 OFFCURVE",
"335 164 CURVE SMOOTH"
);
},
{
closed = 1;
nodes = (
"623 560 LINE SMOOTH",
"623 586 OFFCURVE",
"609 600 OFFCURVE",
"583 600 CURVE SMOOTH",
"511 600 LINE SMOOTH",
"485 600 OFFCURVE",
"471 586 OFFCURVE",
"471 560 CURVE SMOOTH",
"471 486 LINE",
"484 521 LINE",
"458 581 OFFCURVE",
"399 610 OFFCURVE",
"304 610 CURVE SMOOTH",
"133 610 OFFCURVE",
"45 510 OFFCURVE",
"45 315 CURVE SMOOTH",
"45 119 OFFCURVE",
"132 20 OFFCURVE",
"304 20 CURVE SMOOTH",
"392 20 OFFCURVE",
"450 46 OFFCURVE",
"480 99 CURVE",
"466 133 LINE",
"466 92 LINE SMOOTH",
"466 -3 OFFCURVE",
"426 -49 OFFCURVE",
"297 -51 CURVE SMOOTH",
"243 -52 OFFCURVE",
"174 -38 OFFCURVE",
"132 -29 CURVE SMOOTH",
"105 -23 OFFCURVE",
"89 -39 OFFCURVE",
"89 -66 CURVE SMOOTH",
"89 -137 LINE SMOOTH",
"89 -161 OFFCURVE",
"100 -175 OFFCURVE",
"124 -181 CURVE SMOOTH",
"168 -192 OFFCURVE",
"230 -200 OFFCURVE",
"296 -200 CURVE SMOOTH",
"536 -200 OFFCURVE",
"623 -105 OFFCURVE",
"623 92 CURVE SMOOTH"
);
}
);
width = 698;
}
);
leftMetricsKey = o;
note = g;
rightMetricsKey = "=|n";
unicode = 0067;
},
{
color = 3;
glyphname = h;
lastChange = "2019-02-19 15:25:08 +0000";
layers = (
{
background = {
paths = (
{
closed = 1;
nodes = (
"573 331 LINE SMOOTH",
"573 517 OFFCURVE",
"497 611 OFFCURVE",
"334 611 CURVE SMOOTH",
"252 611 OFFCURVE",
"190 575 OFFCURVE",
"164 529 CURVE",
"171 492 LINE",
"171 789 LINE SMOOTH",
"171 800 OFFCURVE",
"161 810 OFFCURVE",
"148 810 CURVE SMOOTH",
"105 810 LINE SMOOTH",
"93 810 OFFCURVE",
"83 799 OFFCURVE",
"83 788 CURVE SMOOTH",
"83 25 LINE SMOOTH",
"83 9 OFFCURVE",
"92 0 OFFCURVE",
"108 0 CURVE SMOOTH",
"151 0 LINE SMOOTH",
"167 0 OFFCURVE",
"176 9 OFFCURVE",
"176 25 CURVE SMOOTH",
"176 331 LINE SMOOTH",
"176 470 OFFCURVE",
"220 525 OFFCURVE",
"328 525 CURVE SMOOTH",
"436 525 OFFCURVE",
"480 470 OFFCURVE",
"480 331 CURVE SMOOTH",
"480 123 LINE SMOOTH",
"480 36 OFFCURVE",
"531 -4 OFFCURVE",
"618 -4 CURVE SMOOTH",
"632 -4 OFFCURVE",
"649 -2 OFFCURVE",
"663 1 CURVE SMOOTH",
"677 4 OFFCURVE",
"683 15 OFFCURVE",
"683 29 CURVE SMOOTH",
"683 55 LINE SMOOTH",
"683 72 OFFCURVE",
"673 79 OFFCURVE",
"655 77 CURVE SMOOTH",
"646 76 OFFCURVE",
"638 75 OFFCURVE",
"629 75 CURVE SMOOTH",
"586 75 OFFCURVE",
"573 91 OFFCURVE",
"573 141 CURVE SMOOTH"
);
}
);
};
hints = (
{
horizontal = 1;
place = "{0, 21}";
target = up;
type = BottomGhost;
},
{
horizontal = 1;
place = "{521, 90}";
type = Stem;
},
{
horizontal = 1;
place = "{801, -20}";
target = down;
type = TopGhost;
},
{
place = "{87, 93}";
type = Stem;
},
{
place = "{484, 93}";
type = Stem;
}
);
layerId = "A3B50665-EA37-4AC6-885C-1233CA61B6BD";
paths = (
{
closed = 1;
nodes = (
"573 331 LINE SMOOTH",
"573 517 OFFCURVE",
"497 611 OFFCURVE",
"334 611 CURVE SMOOTH",
"252 611 OFFCURVE",
"190 574 OFFCURVE",
"164 526 CURVE",
"176 492 LINE",
"176 789 LINE SMOOTH",
"176 800 OFFCURVE",
"166 810 OFFCURVE",
"153 810 CURVE SMOOTH",
"105 810 LINE SMOOTH",
"93 810 OFFCURVE",
"83 799 OFFCURVE",
"83 788 CURVE SMOOTH",
"83 25 LINE SMOOTH",
"83 9 OFFCURVE",
"92 0 OFFCURVE",
"108 0 CURVE SMOOTH",
"151 0 LINE SMOOTH",
"167 0 OFFCURVE",
"176 9 OFFCURVE",
"176 25 CURVE SMOOTH",
"176 331 LINE SMOOTH",
"176 470 OFFCURVE",
"220 525 OFFCURVE",
"328 525 CURVE SMOOTH",
"436 525 OFFCURVE",
"480 470 OFFCURVE",
"480 331 CURVE SMOOTH",
"480 123 LINE SMOOTH",
"480 36 OFFCURVE",
"531 -4 OFFCURVE",
"618 -4 CURVE SMOOTH",
"632 -4 OFFCURVE",
"649 -2 OFFCURVE",
"663 1 CURVE SMOOTH",
"677 4 OFFCURVE",
"683 15 OFFCURVE",
"683 29 CURVE SMOOTH",
"683 55 LINE SMOOTH",
"683 72 OFFCURVE",
"673 79 OFFCURVE",
"655 77 CURVE SMOOTH",
"646 76 OFFCURVE",
"638 75 OFFCURVE",
"629 75 CURVE SMOOTH",
"586 75 OFFCURVE",
"573 91 OFFCURVE",
"573 141 CURVE SMOOTH"
);
}
);
width = 676;
},
{
background = {
paths = (
{
closed = 1;
nodes = (
"611 338 LINE SMOOTH",
"611 527 OFFCURVE",
"542 610 OFFCURVE",
"386 610 CURVE SMOOTH",
"305 610 OFFCURVE",
"248 585 OFFCURVE",
"218 531 CURVE",
"227 479 LINE",
"227 570 LINE SMOOTH",
"227 590 OFFCURVE",
"215 600 OFFCURVE",
"185 600 CURVE SMOOTH",
"115 600 LINE SMOOTH",
"85 600 OFFCURVE",
"75 580 OFFCURVE",
"75 560 CURVE SMOOTH",
"75 40 LINE SMOOTH",
"75 20 OFFCURVE",
"85 0 OFFCURVE",
"115 0 CURVE SMOOTH",
"197 0 LINE SMOOTH",
"227 0 OFFCURVE",
"237 20 OFFCURVE",
"237 40 CURVE SMOOTH",
"237 338 LINE SMOOTH",
"237 426 OFFCURVE",
"272 469 OFFCURVE",
"343 469 CURVE SMOOTH",
"414 469 OFFCURVE",
"449 426 OFFCURVE",
"449 338 CURVE SMOOTH",
"449 155 LINE SMOOTH",
"449 57 OFFCURVE",
"511 -4 OFFCURVE",
"640 -4 CURVE SMOOTH",
"660 -4 OFFCURVE",
"680 -1 OFFCURVE",
"698 4 CURVE SMOOTH",
"718 10 OFFCURVE",
"727 25 OFFCURVE",
"727 48 CURVE SMOOTH",
"727 98 LINE SMOOTH",
"727 126 OFFCURVE",
"717 138 OFFCURVE",
"692 132 CURVE SMOOTH",
"683 130 OFFCURVE",
"673 128 OFFCURVE",
"665 128 CURVE SMOOTH",
"629 128 OFFCURVE",
"611 146 OFFCURVE",
"611 187 CURVE SMOOTH"
);
}
);
};
hints = (
{
horizontal = 1;
place = "{0, 21}";
target = up;
type = BottomGhost;
},
{
horizontal = 1;
place = "{465, 155}";
type = Stem;
},
{
horizontal = 1;
place = "{810, -20}";
target = down;
type = TopGhost;
},
{
place = "{65, 162}";
type = Stem;
},
{
place = "{439, 162}";
type = Stem;
}
);
layerId = "014D4A40-7C7F-4023-B30E-1F55CE5EA091";
paths = (
{
closed = 1;
nodes = (
"611 338 LINE SMOOTH",
"611 527 OFFCURVE",
"542 610 OFFCURVE",
"386 610 CURVE SMOOTH",
"305 610 OFFCURVE",
"248 585 OFFCURVE",
"218 527 CURVE",
"237 479 LINE",
"237 780 LINE SMOOTH",
"237 800 OFFCURVE",
"225 810 OFFCURVE",
"195 810 CURVE SMOOTH",
"115 810 LINE SMOOTH",
"85 810 OFFCURVE",
"75 790 OFFCURVE",
"75 770 CURVE SMOOTH",
"75 40 LINE SMOOTH",
"75 20 OFFCURVE",
"85 0 OFFCURVE",
"115 0 CURVE SMOOTH",
"197 0 LINE SMOOTH",
"227 0 OFFCURVE",
"237 20 OFFCURVE",
"237 40 CURVE SMOOTH",
"237 338 LINE SMOOTH",
"237 426 OFFCURVE",
"272 469 OFFCURVE",
"343 469 CURVE SMOOTH",
"414 469 OFFCURVE",
"449 426 OFFCURVE",
"449 338 CURVE SMOOTH",
"449 155 LINE SMOOTH",
"449 57 OFFCURVE",
"511 -4 OFFCURVE",
"640 -4 CURVE SMOOTH",
"660 -4 OFFCURVE",
"680 -1 OFFCURVE",
"698 4 CURVE SMOOTH",
"718 10 OFFCURVE",
"727 25 OFFCURVE",
"727 48 CURVE SMOOTH",
"727 98 LINE SMOOTH",
"727 126 OFFCURVE",
"717 138 OFFCURVE",
"692 132 CURVE SMOOTH",
"683 130 OFFCURVE",
"673 128 OFFCURVE",
"665 128 CURVE SMOOTH",
"629 128 OFFCURVE",
"611 146 OFFCURVE",
"611 187 CURVE SMOOTH"
);
}
);
width = 707;
}
);
note = h;
rightMetricsKey = n;
unicode = 0068;
},
{
color = 3;
glyphname = i;
lastChange = "2019-02-19 15:27:59 +0000";
layers = (
{
hints = (
{
horizontal = 1;
place = "{0, 21}";
target = up;
type = BottomGhost;
},
{
horizontal = 1;
place = "{602, -20}";
target = down;
type = TopGhost;
},
{
horizontal = 1;
place = "{696, 105}";
type = Stem;
},
{
place = "{87, 93}";
type = Stem;
}
);
layerId = "A3B50665-EA37-4AC6-885C-1233CA61B6BD";
paths = (
{
closed = 1;
nodes = (
"105 602 LINE SMOOTH",
"93 602 OFFCURVE",
"83 591 OFFCURVE",
"83 580 CURVE SMOOTH",
"83 22 LINE SMOOTH",
"83 11 OFFCURVE",
"93 0 OFFCURVE",
"105 0 CURVE SMOOTH",
"153 0 LINE SMOOTH",
"166 0 OFFCURVE",
"176 11 OFFCURVE",
"176 22 CURVE SMOOTH",
"176 581 LINE SMOOTH",
"176 592 OFFCURVE",
"165 602 OFFCURVE",
"153 602 CURVE SMOOTH"
);
},
{
closed = 1;
nodes = (
"174 704 OFFCURVE",
"196 728 OFFCURVE",
"196 763 CURVE SMOOTH",
"196 796 OFFCURVE",
"174 820 OFFCURVE",
"130 820 CURVE SMOOTH",
"86 820 OFFCURVE",
"63 796 OFFCURVE",
"63 763 CURVE SMOOTH",
"63 728 OFFCURVE",
"86 704 OFFCURVE",
"130 704 CURVE SMOOTH"
);
}
);
width = 259;
},
{
hints = (
{
horizontal = 1;
place = "{0, 21}";
target = up;
type = BottomGhost;
},
{
horizontal = 1;
place = "{620, -20}";
target = down;
type = TopGhost;
},
{
horizontal = 1;
place = "{670, 140}";
type = Stem;
},
{
place = "{65, 162}";
type = Stem;
}
);
layerId = "014D4A40-7C7F-4023-B30E-1F55CE5EA091";
paths = (
{
closed = 1;
nodes = (
"115 600 LINE SMOOTH",
"85 600 OFFCURVE",
"75 580 OFFCURVE",
"75 560 CURVE SMOOTH",
"75 40 LINE SMOOTH",
"75 20 OFFCURVE",
"85 0 OFFCURVE",
"115 0 CURVE SMOOTH",
"197 0 LINE SMOOTH",
"227 0 OFFCURVE",
"237 20 OFFCURVE",
"237 40 CURVE SMOOTH",
"237 570 LINE SMOOTH",
"237 590 OFFCURVE",
"225 600 OFFCURVE",
"195 600 CURVE SMOOTH"
);
},
{
closed = 1;
nodes = (
"229 640 OFFCURVE",
"262 681 OFFCURVE",
"262 730 CURVE SMOOTH",
"262 780 OFFCURVE",
"229 820 OFFCURVE",
"156 820 CURVE SMOOTH",
"83 820 OFFCURVE",
"50 780 OFFCURVE",
"50 730 CURVE SMOOTH",
"50 680 OFFCURVE",
"83 640 OFFCURVE",
"156 640 CURVE SMOOTH"
);
}
);
width = 312;
}
);
note = i;
unicode = 0069;
},
{
color = 3;
glyphname = j;
lastChange = "2019-02-19 15:28:16 +0000";
layers = (
{
background = {
paths = (
{
closed = 1;
nodes = (
"100 -190 OFFCURVE",
"188 -103 OFFCURVE",
"188 46 CURVE SMOOTH",
"188 600 LINE",
"95 600 LINE",
"95 54 LINE SMOOTH",
"95 -70 OFFCURVE",
"35 -108 OFFCURVE",
"-48 -108 CURVE SMOOTH",
"-94 -108 OFFCURVE",
"-123 -99 OFFCURVE",
"-159 -84 CURVE",
"-159 -171 LINE",
"-123 -183 OFFCURVE",
"-79 -190 OFFCURVE",
"-44 -190 CURVE SMOOTH"
);
},
{
closed = 1;
nodes = (
"186 704 OFFCURVE",
"208 728 OFFCURVE",
"208 763 CURVE SMOOTH",
"208 796 OFFCURVE",
"186 820 OFFCURVE",
"142 820 CURVE SMOOTH",
"98 820 OFFCURVE",
"75 796 OFFCURVE",
"75 763 CURVE SMOOTH",
"75 728 OFFCURVE",
"98 704 OFFCURVE",
"142 704 CURVE SMOOTH"
);
}
);
};
guideLines = (
{
angle = 270;
position = "{95, 251}";
}
);
layerId = "A3B50665-EA37-4AC6-885C-1233CA61B6BD";
paths = (
{
closed = 1;
nodes = (
"100 -190 OFFCURVE",
"188 -103 OFFCURVE",
"188 46 CURVE SMOOTH",
"188 575 LINE SMOOTH",
"188 591 OFFCURVE",
"179 600 OFFCURVE",
"163 600 CURVE SMOOTH",
"120 600 LINE SMOOTH",
"104 600 OFFCURVE",
"95 591 OFFCURVE",
"95 575 CURVE SMOOTH",
"95 54 LINE SMOOTH",
"95 -70 OFFCURVE",
"35 -108 OFFCURVE",
"-48 -108 CURVE SMOOTH",
"-81 -108 OFFCURVE",
"-106 -103 OFFCURVE",
"-130 -95 CURVE SMOOTH",
"-148 -89 OFFCURVE",
"-159 -97 OFFCURVE",
"-159 -115 CURVE SMOOTH",
"-159 -149 LINE SMOOTH",
"-159 -163 OFFCURVE",
"-152 -173 OFFCURVE",
"-138 -177 CURVE SMOOTH",
"-107 -185 OFFCURVE",
"-72 -190 OFFCURVE",
"-44 -190 CURVE SMOOTH"
);
},
{
closed = 1;
nodes = (
"186 704 OFFCURVE",
"208 728 OFFCURVE",
"208 763 CURVE SMOOTH",
"208 796 OFFCURVE",
"186 820 OFFCURVE",
"142 820 CURVE SMOOTH",
"98 820 OFFCURVE",
"75 796 OFFCURVE",
"75 763 CURVE SMOOTH",
"75 728 OFFCURVE",
"98 704 OFFCURVE",
"142 704 CURVE SMOOTH"
);
}
);
width = 271;
},
{
background = {
paths = (
{
closed = 1;
nodes = (
"127 -200 OFFCURVE",
"243 -114 OFFCURVE",
"243 36 CURVE SMOOTH",
"243 600 LINE",
"87 600 LINE",
"87 38 LINE SMOOTH",
"87 -30 OFFCURVE",
"39 -69 OFFCURVE",
"-45 -69 CURVE SMOOTH",
"-79 -69 OFFCURVE",
"-117 -64 OFFCURVE",
"-153 -47 CURVE",
"-153 -185 LINE",
"-112 -196 OFFCURVE",
"-67 -200 OFFCURVE",
"-37 -200 CURVE SMOOTH"
);
},
{
closed = 1;
nodes = (
"238 640 OFFCURVE",
"271 681 OFFCURVE",
"271 730 CURVE SMOOTH",
"271 780 OFFCURVE",
"238 820 OFFCURVE",
"165 820 CURVE SMOOTH",
"92 820 OFFCURVE",
"59 780 OFFCURVE",
"59 730 CURVE SMOOTH",
"59 680 OFFCURVE",
"92 640 OFFCURVE",
"165 640 CURVE SMOOTH"
);
}
);
};
guideLines = (
{
angle = 270;
position = "{87, 269}";
}
);
layerId = "014D4A40-7C7F-4023-B30E-1F55CE5EA091";
paths = (
{
closed = 1;
nodes = (
"127 -200 OFFCURVE",
"243 -114 OFFCURVE",
"243 36 CURVE SMOOTH",
"243 560 LINE SMOOTH",
"243 586 OFFCURVE",
"229 600 OFFCURVE",
"203 600 CURVE SMOOTH",
"127 600 LINE SMOOTH",
"101 600 OFFCURVE",
"87 586 OFFCURVE",
"87 560 CURVE SMOOTH",
"87 38 LINE SMOOTH",
"87 -30 OFFCURVE",
"39 -69 OFFCURVE",
"-45 -69 CURVE SMOOTH",
"-65 -69 OFFCURVE",
"-87 -67 OFFCURVE",
"-108 -62 CURVE SMOOTH",
"-137 -56 OFFCURVE",
"-153 -65 OFFCURVE",
"-153 -94 CURVE SMOOTH",
"-153 -149 LINE SMOOTH",
"-153 -173 OFFCURVE",
"-142 -189 OFFCURVE",
"-118 -193 CURVE SMOOTH",
"-88 -198 OFFCURVE",
"-59 -200 OFFCURVE",
"-37 -200 CURVE SMOOTH"
);
},
{
closed = 1;
nodes = (
"238 640 OFFCURVE",
"271 681 OFFCURVE",
"271 730 CURVE SMOOTH",
"271 780 OFFCURVE",
"238 820 OFFCURVE",
"165 820 CURVE SMOOTH",
"92 820 OFFCURVE",
"59 780 OFFCURVE",
"59 730 CURVE SMOOTH",
"59 680 OFFCURVE",
"92 640 OFFCURVE",
"165 640 CURVE SMOOTH"
);
}
);
width = 318;
}
);
unicode = 006A;
},
{
color = 3;
glyphname = k;
lastChange = "2019-02-19 15:28:24 +0000";
layers = (
{
background = {
paths = (
{
closed = 1;
nodes = (
"1286 779 LINE SMOOTH",
"1286 790 OFFCURVE",
"1275 801 OFFCURVE",
"1263 801 CURVE SMOOTH",
"1215 801 LINE SMOOTH",
"1203 801 OFFCURVE",
"1193 790 OFFCURVE",
"1193 779 CURVE SMOOTH",
"1193 22 LINE SMOOTH",
"1193 11 OFFCURVE",
"1203 0 OFFCURVE",
"1215 0 CURVE SMOOTH",
"1263 0 LINE SMOOTH",
"1276 0 OFFCURVE",
"1286 11 OFFCURVE",
"1286 22 CURVE SMOOTH"
);
},
{
closed = 1;
nodes = (
"1624 278 OFFCURVE",
"1571 314 OFFCURVE",
"1455 314 CURVE",
"1455 298 LINE",
"1568 298 OFFCURVE",
"1616 367 OFFCURVE",
"1621 488 CURVE SMOOTH",
"1625 579 LINE SMOOTH",
"1625 590 OFFCURVE",
"1615 600 OFFCURVE",
"1602 600 CURVE SMOOTH",
"1554 600 LINE SMOOTH",
"1542 600 OFFCURVE",
"1533 589 OFFCURVE",
"1532 577 CURVE SMOOTH",
"1528 488 LINE SMOOTH",
"1523 374 OFFCURVE",
"1475 343 OFFCURVE",
"1350 343 CURVE SMOOTH",
"1270 343 LINE",
"1270 258 LINE",
"1414 258 LINE SMOOTH",
"1529 258 OFFCURVE",
"1547 221 OFFCURVE",
"1560 166 CURVE SMOOTH",
"1570 123 LINE SMOOTH",
"1590 37 OFFCURVE",
"1631 -4 OFFCURVE",
"1718 -4 CURVE SMOOTH",
"1732 -4 OFFCURVE",
"1749 -2 OFFCURVE",
"1763 1 CURVE SMOOTH",
"1777 4 OFFCURVE",
"1783 15 OFFCURVE",
"1783 29 CURVE SMOOTH",
"1783 55 LINE SMOOTH",
"1783 72 OFFCURVE",
"1773 79 OFFCURVE",
"1755 77 CURVE SMOOTH",
"1746 76 OFFCURVE",
"1738 75 OFFCURVE",
"1729 75 CURVE SMOOTH",
"1686 75 OFFCURVE",
"1677 90 OFFCURVE",
"1663 141 CURVE SMOOTH",
"1646 201 LINE SMOOTH"
);
},
{
closed = 1;
nodes = (
"223 770 LINE SMOOTH",
"223 790 OFFCURVE",
"211 810 OFFCURVE",
"181 810 CURVE SMOOTH",
"101 810 LINE SMOOTH",
"71 810 OFFCURVE",
"61 790 OFFCURVE",
"61 770 CURVE SMOOTH",
"61 40 LINE SMOOTH",
"61 20 OFFCURVE",
"71 0 OFFCURVE",
"101 0 CURVE SMOOTH",
"183 0 LINE SMOOTH",
"213 0 OFFCURVE",
"223 20 OFFCURVE",
"223 40 CURVE SMOOTH"
);
},
{
closed = 1;
nodes = (
"486 283 OFFCURVE",
"430 317 OFFCURVE",
"335 317 CURVE",
"335 290 LINE",
"467 290 OFFCURVE",
"535 365 OFFCURVE",
"541 502 CURVE SMOOTH",
"544 570 LINE SMOOTH",
"545 590 OFFCURVE",
"532 600 OFFCURVE",
"502 600 CURVE SMOOTH",
"422 600 LINE SMOOTH",
"392 600 OFFCURVE",
"383 580 OFFCURVE",
"382 560 CURVE SMOOTH",
"379 502 LINE SMOOTH",
"374 401 OFFCURVE",
"347 375 OFFCURVE",
"246 375 CURVE SMOOTH",
"207 375 LINE",
"207 227 LINE",
"252 227 LINE SMOOTH",
"324 227 OFFCURVE",
"340 212 OFFCURVE",
"354 156 CURVE SMOOTH",
"363 121 LINE SMOOTH",
"382 47 OFFCURVE",
"426 -4 OFFCURVE",
"549 -4 CURVE SMOOTH",
"573 -4 OFFCURVE",
"593 -1 OFFCURVE",
"611 4 CURVE SMOOTH",
"631 10 OFFCURVE",
"640 25 OFFCURVE",
"640 48 CURVE SMOOTH",
"640 98 LINE SMOOTH",
"640 126 OFFCURVE",
"630 138 OFFCURVE",
"605 132 CURVE SMOOTH",
"596 130 OFFCURVE",
"586 128 OFFCURVE",
"574 128 CURVE SMOOTH",
"536 128 OFFCURVE",
"521 144 OFFCURVE",
"510 189 CURVE SMOOTH",
"501 224 LINE SMOOTH"
);
}
);
};
hints = (
{
horizontal = 1;
place = "{0, 21}";
target = up;
type = BottomGhost;
},
{
horizontal = 1;
place = "{258, 85}";
type = Stem;
},
{
horizontal = 1;
place = "{600, -20}";
target = down;
type = TopGhost;
},
{
horizontal = 1;
place = "{801, -20}";
target = down;
type = TopGhost;
},
{
place = "{87, 93}";
type = Stem;
},
{
place = "{425, 93}";
type = Stem;
}
);
layerId = "A3B50665-EA37-4AC6-885C-1233CA61B6BD";
paths = (
{
closed = 1;
nodes = (
"176 788 LINE SMOOTH",
"176 799 OFFCURVE",
"165 810 OFFCURVE",
"153 810 CURVE SMOOTH",
"105 810 LINE SMOOTH",
"93 810 OFFCURVE",
"83 799 OFFCURVE",
"83 788 CURVE SMOOTH",
"83 22 LINE SMOOTH",
"83 11 OFFCURVE",
"93 0 OFFCURVE",
"105 0 CURVE SMOOTH",
"153 0 LINE SMOOTH",
"166 0 OFFCURVE",
"176 11 OFFCURVE",
"176 22 CURVE SMOOTH"
);
},
{
closed = 1;
nodes = (
"457 281 OFFCURVE",
"433 314 OFFCURVE",
"315 314 CURVE",
"315 298 LINE",
"458 298 OFFCURVE",
"509 377 OFFCURVE",
"515 488 CURVE SMOOTH",
"520 579 LINE SMOOTH",
"521 590 OFFCURVE",
"510 600 OFFCURVE",
"497 600 CURVE SMOOTH",
"449 600 LINE SMOOTH",
"437 600 OFFCURVE",
"428 589 OFFCURVE",
"427 577 CURVE SMOOTH",
"422 488 LINE SMOOTH",
"416 384 OFFCURVE",
"365 345 OFFCURVE",
"240 345 CURVE SMOOTH",
"160 345 LINE",
"160 260 LINE",
"240 260 LINE SMOOTH",
"341 260 OFFCURVE",
"374 238 OFFCURVE",
"394 166 CURVE SMOOTH",
"411 106 LINE SMOOTH",
"433 28 OFFCURVE",
"475 -4 OFFCURVE",
"558 -4 CURVE SMOOTH",
"577 -4 OFFCURVE",
"594 0 OFFCURVE",
"608 3 CURVE SMOOTH",
"622 6 OFFCURVE",
"628 17 OFFCURVE",
"628 31 CURVE SMOOTH",
"628 57 LINE SMOOTH",
"628 74 OFFCURVE",
"618 81 OFFCURVE",
"600 79 CURVE SMOOTH",
"591 78 OFFCURVE",
"583 75 OFFCURVE",
"569 75 CURVE SMOOTH",
"525 75 OFFCURVE",
"513 86 OFFCURVE",
"497 141 CURVE SMOOTH",
"480 201 LINE SMOOTH"
);
}
);
width = 621;
},
{
background = {
paths = (
{
closed = 1;
nodes = (
"237 770 LINE SMOOTH",
"237 790 OFFCURVE",
"225 810 OFFCURVE",
"195 810 CURVE SMOOTH",
"115 810 LINE SMOOTH",
"85 810 OFFCURVE",
"75 790 OFFCURVE",
"75 770 CURVE SMOOTH",
"75 40 LINE SMOOTH",
"75 20 OFFCURVE",
"85 0 OFFCURVE",
"115 0 CURVE SMOOTH",
"197 0 LINE SMOOTH",
"227 0 OFFCURVE",
"237 20 OFFCURVE",
"237 40 CURVE SMOOTH"
);
},
{
closed = 1;
nodes = (
"503 283 OFFCURVE",
"447 317 OFFCURVE",
"349 317 CURVE",
"349 290 LINE",
"491 290 OFFCURVE",
"555 365 OFFCURVE",
"555 502 CURVE SMOOTH",
"555 570 LINE SMOOTH",
"555 590 OFFCURVE",
"543 600 OFFCURVE",
"513 600 CURVE SMOOTH",
"433 600 LINE SMOOTH",
"403 600 OFFCURVE",
"393 580 OFFCURVE",
"393 560 CURVE SMOOTH",
"393 532 LINE SMOOTH",
"393 401 OFFCURVE",
"371 375 OFFCURVE",
"260 375 CURVE SMOOTH",
"221 375 LINE",
"221 227 LINE",
"266 227 LINE SMOOTH",
"338 227 OFFCURVE",
"354 212 OFFCURVE",
"368 156 CURVE SMOOTH",
"377 121 LINE SMOOTH",
"396 47 OFFCURVE",
"439 -4 OFFCURVE",
"560 -4 CURVE SMOOTH",
"580 -4 OFFCURVE",
"600 -1 OFFCURVE",
"618 4 CURVE SMOOTH",
"638 10 OFFCURVE",
"647 25 OFFCURVE",
"647 48 CURVE SMOOTH",
"647 98 LINE SMOOTH",
"647 126 OFFCURVE",
"637 138 OFFCURVE",
"612 132 CURVE SMOOTH",
"603 130 OFFCURVE",
"593 128 OFFCURVE",
"585 128 CURVE SMOOTH",
"552 128 OFFCURVE",
"538 144 OFFCURVE",
"527 189 CURVE SMOOTH",
"518 224 LINE SMOOTH"
);
}
);
};
hints = (
{
horizontal = 1;
place = "{0, 21}";
target = up;
type = BottomGhost;
},
{
horizontal = 1;
place = "{227, 148}";
type = Stem;
},
{
horizontal = 1;
place = "{600, -20}";
target = down;
type = TopGhost;
},
{
horizontal = 1;
place = "{810, -20}";
target = down;
type = TopGhost;
},
{
place = "{65, 162}";
type = Stem;
},
{
place = "{383, 162}";
type = Stem;
}
);
layerId = "014D4A40-7C7F-4023-B30E-1F55CE5EA091";
paths = (
{
closed = 1;
nodes = (
"237 770 LINE SMOOTH",
"237 790 OFFCURVE",
"225 810 OFFCURVE",
"195 810 CURVE SMOOTH",
"115 810 LINE SMOOTH",
"85 810 OFFCURVE",
"75 790 OFFCURVE",
"75 770 CURVE SMOOTH",
"75 40 LINE SMOOTH",
"75 20 OFFCURVE",
"85 0 OFFCURVE",
"115 0 CURVE SMOOTH",
"197 0 LINE SMOOTH",
"227 0 OFFCURVE",
"237 20 OFFCURVE",
"237 40 CURVE SMOOTH"
);
},
{
closed = 1;
nodes = (
"500 283 OFFCURVE",
"444 317 OFFCURVE",
"349 317 CURVE",
"349 290 LINE",
"481 290 OFFCURVE",
"549 365 OFFCURVE",
"555 502 CURVE SMOOTH",
"558 570 LINE SMOOTH",
"559 590 OFFCURVE",
"546 600 OFFCURVE",
"516 600 CURVE SMOOTH",
"436 600 LINE SMOOTH",
"406 600 OFFCURVE",
"397 580 OFFCURVE",
"396 560 CURVE SMOOTH",
"393 502 LINE SMOOTH",
"388 401 OFFCURVE",
"361 375 OFFCURVE",
"260 375 CURVE SMOOTH",
"221 375 LINE",
"221 227 LINE",
"266 227 LINE SMOOTH",
"338 227 OFFCURVE",
"354 212 OFFCURVE",
"368 156 CURVE SMOOTH",
"377 121 LINE SMOOTH",
"396 47 OFFCURVE",
"440 -4 OFFCURVE",
"563 -4 CURVE SMOOTH",
"587 -4 OFFCURVE",
"607 -1 OFFCURVE",
"625 4 CURVE SMOOTH",
"645 10 OFFCURVE",
"654 25 OFFCURVE",
"654 48 CURVE SMOOTH",
"654 98 LINE SMOOTH",
"654 126 OFFCURVE",
"644 138 OFFCURVE",
"619 132 CURVE SMOOTH",
"610 130 OFFCURVE",
"600 128 OFFCURVE",
"588 128 CURVE SMOOTH",
"550 128 OFFCURVE",
"535 144 OFFCURVE",
"524 189 CURVE SMOOTH",
"515 224 LINE SMOOTH"
);
}
);
width = 634;
}
);
leftMetricsKey = h;
note = k;
unicode = 006B;
},
{
color = 3;
glyphname = l;
lastChange = "2019-02-19 15:28:38 +0000";
layers = (
{
background = {
paths = (
{
closed = 1;
nodes = (
"242 -4 OFFCURVE",
"268 0 OFFCURVE",
"286 7 CURVE",
"286 83 LINE",
"263 76 OFFCURVE",
"248 75 OFFCURVE",
"232 75 CURVE SMOOTH",
"189 75 OFFCURVE",
"176 91 OFFCURVE",
"176 131 CURVE SMOOTH",
"176 801 LINE",
"83 801 LINE",
"83 113 LINE SMOOTH",
"83 36 OFFCURVE",
"134 -4 OFFCURVE",
"221 -4 CURVE SMOOTH"
);
}
);
};
hints = (
{
horizontal = 1;
place = "{0, 21}";
target = up;
type = BottomGhost;
},
{
horizontal = 1;
place = "{801, -20}";
target = down;
type = TopGhost;
},
{
place = "{87, 93}";
type = Stem;
}
);
layerId = "A3B50665-EA37-4AC6-885C-1233CA61B6BD";
paths = (
{
closed = 1;
nodes = (
"235 -4 OFFCURVE",
"252 -2 OFFCURVE",
"266 1 CURVE SMOOTH",
"280 4 OFFCURVE",
"286 15 OFFCURVE",
"286 29 CURVE SMOOTH",
"286 55 LINE SMOOTH",
"286 72 OFFCURVE",
"276 79 OFFCURVE",
"258 77 CURVE SMOOTH",
"249 75 OFFCURVE",
"241 75 OFFCURVE",
"232 75 CURVE SMOOTH",
"189 75 OFFCURVE",
"176 91 OFFCURVE",
"176 141 CURVE SMOOTH",
"176 785 LINE SMOOTH",
"176 801 OFFCURVE",
"167 810 OFFCURVE",
"151 810 CURVE SMOOTH",
"108 810 LINE SMOOTH",
"92 810 OFFCURVE",
"83 801 OFFCURVE",
"83 785 CURVE SMOOTH",
"83 123 LINE SMOOTH",
"83 36 OFFCURVE",
"134 -4 OFFCURVE",
"221 -4 CURVE SMOOTH"
);
}
);
width = 279;
},
{
background = {
paths = (
{
closed = 1;
nodes = (
"297 -4 OFFCURVE",
"329 1 OFFCURVE",
"353 13 CURVE",
"353 138 LINE",
"334 128 OFFCURVE",
"313 124 OFFCURVE",
"294 124 CURVE SMOOTH",
"255 124 OFFCURVE",
"237 141 OFFCURVE",
"237 182 CURVE SMOOTH",
"237 810 LINE",
"75 810 LINE",
"75 155 LINE SMOOTH",
"75 57 OFFCURVE",
"137 -4 OFFCURVE",
"266 -4 CURVE SMOOTH"
);
}
);
};
hints = (
{
horizontal = 1;
place = "{0, 21}";
target = up;
type = BottomGhost;
},
{
horizontal = 1;
place = "{810, -20}";
target = down;
type = TopGhost;
},
{
place = "{65, 162}";
type = Stem;
}
);
layerId = "014D4A40-7C7F-4023-B30E-1F55CE5EA091";
paths = (
{
closed = 1;
nodes = (
"286 -4 OFFCURVE",
"306 -1 OFFCURVE",
"324 4 CURVE SMOOTH",
"344 9 OFFCURVE",
"353 25 OFFCURVE",
"353 48 CURVE SMOOTH",
"353 98 LINE SMOOTH",
"353 126 OFFCURVE",
"343 138 OFFCURVE",
"318 132 CURVE SMOOTH",
"309 130 OFFCURVE",
"299 128 OFFCURVE",
"291 128 CURVE SMOOTH",
"255 128 OFFCURVE",
"237 146 OFFCURVE",
"237 187 CURVE SMOOTH",
"237 770 LINE SMOOTH",
"237 796 OFFCURVE",
"223 810 OFFCURVE",
"197 810 CURVE SMOOTH",
"115 810 LINE SMOOTH",
"89 810 OFFCURVE",
"75 796 OFFCURVE",
"75 770 CURVE SMOOTH",
"75 155 LINE SMOOTH",
"75 57 OFFCURVE",
"137 -4 OFFCURVE",
"266 -4 CURVE SMOOTH"
);
}
);
width = 333;
}
);
note = l;
unicode = 006C;
},
{
glyphname = m;
lastChange = "2019-02-05 11:08:29 +0000";
layers = (
{
hints = (
{
horizontal = 1;
place = "{0, 21}";
target = up;
type = BottomGhost;
},
{
horizontal = 1;
place = "{521, 90}";
type = Stem;
},
{
place = "{87, 93}";
type = Stem;
},
{
place = "{464, 93}";
type = Stem;
},
{
place = "{842, 93}";
type = Stem;
}
);
layerId = "A3B50665-EA37-4AC6-885C-1233CA61B6BD";
paths = (
{
closed = 1;
nodes = (
"586 611 OFFCURVE",
"529 588 OFFCURVE",
"495 557 CURVE",
"460 588 OFFCURVE",
"400 611 OFFCURVE",
"298 611 CURVE SMOOTH",
"224 611 OFFCURVE",
"166 601 OFFCURVE",
"115 591 CURVE SMOOTH",
"97 588 OFFCURVE",
"87 575 OFFCURVE",
"87 559 CURVE SMOOTH",
"87 22 LINE SMOOTH",
"87 11 OFFCURVE",
"97 0 OFFCURVE",
"109 0 CURVE SMOOTH",
"157 0 LINE SMOOTH",
"170 0 OFFCURVE",
"180 11 OFFCURVE",
"180 22 CURVE SMOOTH",
"180 511 LINE",
"212 516 OFFCURVE",
"252 521 OFFCURVE",
"300 521 CURVE SMOOTH",
"428 521 OFFCURVE",
"447 484 OFFCURVE",
"453 452 CURVE SMOOTH",
"462 404 OFFCURVE",
"464 363 OFFCURVE",
"464 300 CURVE SMOOTH",
"464 22 LINE SMOOTH",
"464 11 OFFCURVE",
"474 0 OFFCURVE",
"487 0 CURVE SMOOTH",
"535 0 LINE SMOOTH",
"547 0 OFFCURVE",
"557 11 OFFCURVE",
"557 22 CURVE SMOOTH",
"557 299 LINE SMOOTH",
"557 374 OFFCURVE",
"551 419 OFFCURVE",
"542 474 CURVE",
"554 499 OFFCURVE",
"586 521 OFFCURVE",
"682 521 CURVE SMOOTH",
"806 521 OFFCURVE",
"825 484 OFFCURVE",
"831 452 CURVE SMOOTH",
"839 404 OFFCURVE",
"842 363 OFFCURVE",
"842 300 CURVE SMOOTH",
"842 22 LINE SMOOTH",
"842 11 OFFCURVE",
"852 0 OFFCURVE",
"865 0 CURVE SMOOTH",
"912 0 LINE SMOOTH",
"925 0 OFFCURVE",
"935 11 OFFCURVE",
"935 22 CURVE SMOOTH",
"935 299 LINE SMOOTH",
"935 371 OFFCURVE",
"929 417 OFFCURVE",
"920 467 CURVE SMOOTH",
"909 536 OFFCURVE",
"861 611 OFFCURVE",
"682 611 CURVE SMOOTH"
);
}
);
width = 1017;
},
{
hints = (
{
horizontal = 1;
place = "{0, 21}";
target = up;
type = BottomGhost;
},
{
horizontal = 1;
place = "{465, 155}";
type = Stem;
}
);
layerId = "014D4A40-7C7F-4023-B30E-1F55CE5EA091";
paths = (
{
closed = 1;
nodes = (
"590 620 OFFCURVE",
"537 601 OFFCURVE",
"500 572 CURVE",
"459 601 OFFCURVE",
"394 620 OFFCURVE",
"292 620 CURVE SMOOTH",
"232 620 OFFCURVE",
"167 612 OFFCURVE",
"105 595 CURVE SMOOTH",
"76 587 OFFCURVE",
"65 570 OFFCURVE",
"65 538 CURVE SMOOTH",
"65 40 LINE SMOOTH",
"65 20 OFFCURVE",
"75 0 OFFCURVE",
"105 0 CURVE SMOOTH",
"187 0 LINE SMOOTH",
"217 0 OFFCURVE",
"227 20 OFFCURVE",
"227 40 CURVE SMOOTH",
"227 462 LINE",
"256 465 OFFCURVE",
"282 465 OFFCURVE",
"297 465 CURVE SMOOTH",
"388 465 OFFCURVE",
"407 439 OFFCURVE",
"411 415 CURVE SMOOTH",
"417 380 OFFCURVE",
"419 351 OFFCURVE",
"419 304 CURVE SMOOTH",
"419 40 LINE SMOOTH",
"419 20 OFFCURVE",
"429 0 OFFCURVE",
"459 0 CURVE SMOOTH",
"541 0 LINE SMOOTH",
"571 0 OFFCURVE",
"581 20 OFFCURVE",
"581 40 CURVE SMOOTH",
"581 301 LINE SMOOTH",
"581 370 OFFCURVE",
"575 414 OFFCURVE",
"570 443 CURVE",
"583 455 OFFCURVE",
"609 465 OFFCURVE",
"660 465 CURVE SMOOTH",
"742 465 OFFCURVE",
"761 439 OFFCURVE",
"765 415 CURVE SMOOTH",
"771 380 OFFCURVE",
"773 351 OFFCURVE",
"773 304 CURVE SMOOTH",
"773 40 LINE SMOOTH",
"773 20 OFFCURVE",
"783 0 OFFCURVE",
"813 0 CURVE SMOOTH",
"895 0 LINE SMOOTH",
"925 0 OFFCURVE",
"935 20 OFFCURVE",
"935 40 CURVE SMOOTH",
"935 301 LINE SMOOTH",
"935 375 OFFCURVE",
"928 421 OFFCURVE",
"923 449 CURVE SMOOTH",
"907 541 OFFCURVE",
"857 620 OFFCURVE",
"661 620 CURVE SMOOTH"
);
}
);
width = 995;
}
);
note = m;
unicode = 006D;
},
{
color = 3;
glyphname = n;
lastChange = "2019-02-21 20:10:59 +0000";
layers = (
{
background = {
paths = (
{
closed = 1;
nodes = (
"573 331 LINE SMOOTH",
"573 517 OFFCURVE",
"497 611 OFFCURVE",
"334 611 CURVE SMOOTH",
"252 611 OFFCURVE",
"190 575 OFFCURVE",
"164 529 CURVE",
"171 492 LINE",
"171 579 LINE SMOOTH",
"171 590 OFFCURVE",
"161 600 OFFCURVE",
"148 600 CURVE SMOOTH",
"105 600 LINE SMOOTH",
"93 600 OFFCURVE",
"83 589 OFFCURVE",
"83 578 CURVE SMOOTH",
"83 25 LINE SMOOTH",
"83 9 OFFCURVE",
"92 0 OFFCURVE",
"108 0 CURVE SMOOTH",
"151 0 LINE SMOOTH",
"167 0 OFFCURVE",
"176 9 OFFCURVE",
"176 25 CURVE SMOOTH",
"176 331 LINE SMOOTH",
"176 470 OFFCURVE",
"220 525 OFFCURVE",
"328 525 CURVE SMOOTH",
"436 525 OFFCURVE",
"480 470 OFFCURVE",
"480 331 CURVE SMOOTH",
"480 123 LINE SMOOTH",
"480 36 OFFCURVE",
"531 -4 OFFCURVE",
"618 -4 CURVE SMOOTH",
"632 -4 OFFCURVE",
"649 -2 OFFCURVE",
"663 1 CURVE SMOOTH",
"677 4 OFFCURVE",
"683 15 OFFCURVE",
"683 29 CURVE SMOOTH",
"683 55 LINE SMOOTH",
"683 72 OFFCURVE",
"673 79 OFFCURVE",
"655 77 CURVE SMOOTH",
"646 76 OFFCURVE",
"638 75 OFFCURVE",
"629 75 CURVE SMOOTH",
"586 75 OFFCURVE",
"573 91 OFFCURVE",
"573 141 CURVE SMOOTH"
);
}
);
};
hints = (
{
horizontal = 1;
place = "{0, 21}";
target = up;
type = BottomGhost;
},
{
horizontal = 1;
place = "{521, 90}";
type = Stem;
},
{
place = "{87, 93}";
type = Stem;
},
{
place = "{484, 93}";
type = Stem;
}
);
layerId = "A3B50665-EA37-4AC6-885C-1233CA61B6BD";
paths = (
{
closed = 1;
nodes = (
"573 331 LINE SMOOTH",
"573 517 OFFCURVE",
"497 611 OFFCURVE",
"334 611 CURVE SMOOTH",
"252 611 OFFCURVE",
"190 575 OFFCURVE",
"164 529 CURVE",
"171 492 LINE",
"171 579 LINE SMOOTH",
"171 590 OFFCURVE",
"161 600 OFFCURVE",
"148 600 CURVE SMOOTH",
"105 600 LINE SMOOTH",
"93 600 OFFCURVE",
"83 589 OFFCURVE",
"83 578 CURVE SMOOTH",
"83 25 LINE SMOOTH",
"83 9 OFFCURVE",
"92 0 OFFCURVE",
"108 0 CURVE SMOOTH",
"151 0 LINE SMOOTH",
"167 0 OFFCURVE",
"176 9 OFFCURVE",
"176 25 CURVE SMOOTH",
"176 331 LINE SMOOTH",
"176 470 OFFCURVE",
"220 525 OFFCURVE",
"328 525 CURVE SMOOTH",
"436 525 OFFCURVE",
"480 470 OFFCURVE",
"480 331 CURVE SMOOTH",
"480 123 LINE SMOOTH",
"480 36 OFFCURVE",
"531 -4 OFFCURVE",
"618 -4 CURVE SMOOTH",
"632 -4 OFFCURVE",
"649 -2 OFFCURVE",
"663 1 CURVE SMOOTH",
"677 4 OFFCURVE",
"683 15 OFFCURVE",
"683 29 CURVE SMOOTH",
"683 55 LINE SMOOTH",
"683 72 OFFCURVE",
"673 79 OFFCURVE",
"655 77 CURVE SMOOTH",
"646 76 OFFCURVE",
"638 75 OFFCURVE",
"629 75 CURVE SMOOTH",
"586 75 OFFCURVE",
"573 91 OFFCURVE",
"573 141 CURVE SMOOTH"
);
}
);
width = 676;
},
{
background = {
paths = (
{
closed = 1;
nodes = (
"611 338 LINE SMOOTH",
"611 527 OFFCURVE",
"542 610 OFFCURVE",
"386 610 CURVE SMOOTH",
"305 610 OFFCURVE",
"248 585 OFFCURVE",
"218 531 CURVE",
"227 479 LINE",
"227 570 LINE SMOOTH",
"227 590 OFFCURVE",
"215 600 OFFCURVE",
"185 600 CURVE SMOOTH",
"115 600 LINE SMOOTH",
"85 600 OFFCURVE",
"75 580 OFFCURVE",
"75 560 CURVE SMOOTH",
"75 40 LINE SMOOTH",
"75 20 OFFCURVE",
"85 0 OFFCURVE",
"115 0 CURVE SMOOTH",
"197 0 LINE SMOOTH",
"227 0 OFFCURVE",
"237 20 OFFCURVE",
"237 40 CURVE SMOOTH",
"237 338 LINE SMOOTH",
"237 426 OFFCURVE",
"272 469 OFFCURVE",
"343 469 CURVE SMOOTH",
"414 469 OFFCURVE",
"449 426 OFFCURVE",
"449 338 CURVE SMOOTH",
"449 155 LINE SMOOTH",
"449 57 OFFCURVE",
"511 -4 OFFCURVE",
"640 -4 CURVE SMOOTH",
"660 -4 OFFCURVE",
"680 -1 OFFCURVE",
"698 4 CURVE SMOOTH",
"718 10 OFFCURVE",
"727 25 OFFCURVE",
"727 48 CURVE SMOOTH",
"727 98 LINE SMOOTH",
"727 126 OFFCURVE",
"717 138 OFFCURVE",
"692 132 CURVE SMOOTH",
"683 130 OFFCURVE",
"673 128 OFFCURVE",
"665 128 CURVE SMOOTH",
"629 128 OFFCURVE",
"611 146 OFFCURVE",
"611 187 CURVE SMOOTH"
);
}
);
};
hints = (
{
horizontal = 1;
place = "{0, 21}";
target = up;
type = BottomGhost;
},
{
horizontal = 1;
place = "{465, 155}";
type = Stem;
},
{
place = "{65, 162}";
type = Stem;
},
{
place = "{439, 162}";
type = Stem;
}
);
layerId = "014D4A40-7C7F-4023-B30E-1F55CE5EA091";
paths = (
{
closed = 1;
nodes = (
"611 338 LINE SMOOTH",
"611 527 OFFCURVE",
"542 610 OFFCURVE",
"386 610 CURVE SMOOTH",
"305 610 OFFCURVE",
"248 585 OFFCURVE",
"218 531 CURVE",
"227 479 LINE",
"227 570 LINE SMOOTH",
"227 590 OFFCURVE",
"215 600 OFFCURVE",
"185 600 CURVE SMOOTH",
"115 600 LINE SMOOTH",
"85 600 OFFCURVE",
"75 580 OFFCURVE",
"75 560 CURVE SMOOTH",
"75 40 LINE SMOOTH",
"75 20 OFFCURVE",
"85 0 OFFCURVE",
"115 0 CURVE SMOOTH",
"197 0 LINE SMOOTH",
"227 0 OFFCURVE",
"237 20 OFFCURVE",
"237 40 CURVE SMOOTH",
"237 338 LINE SMOOTH",
"237 426 OFFCURVE",
"272 469 OFFCURVE",
"343 469 CURVE SMOOTH",
"414 469 OFFCURVE",
"449 426 OFFCURVE",
"449 338 CURVE SMOOTH",
"449 155 LINE SMOOTH",
"449 57 OFFCURVE",
"511 -4 OFFCURVE",
"640 -4 CURVE SMOOTH",
"660 -4 OFFCURVE",
"680 -1 OFFCURVE",
"698 4 CURVE SMOOTH",
"718 10 OFFCURVE",
"727 25 OFFCURVE",
"727 48 CURVE SMOOTH",
"727 98 LINE SMOOTH",
"727 126 OFFCURVE",
"717 138 OFFCURVE",
"692 132 CURVE SMOOTH",
"683 130 OFFCURVE",
"673 128 OFFCURVE",
"665 128 CURVE SMOOTH",
"629 128 OFFCURVE",
"611 146 OFFCURVE",
"611 187 CURVE SMOOTH"
);
}
);
width = 707;
}
);
note = n;
unicode = 006E;
},
{
color = 3;
glyphname = o;
lastChange = "2019-02-19 15:26:11 +0000";
layers = (
{
background = {
paths = (
{
closed = 1;
nodes = (
"460 525 OFFCURVE",
"485 470 OFFCURVE",
"485 301 CURVE SMOOTH",
"485 132 OFFCURVE",
"460 76 OFFCURVE",
"318 76 CURVE SMOOTH",
"196 76 OFFCURVE",
"147 132 OFFCURVE",
"147 301 CURVE SMOOTH",
"147 470 OFFCURVE",
"196 525 OFFCURVE",
"318 525 CURVE SMOOTH"
);
},
{
closed = 1;
nodes = (
"576 575 LINE SMOOTH",
"576 591 OFFCURVE",
"567 600 OFFCURVE",
"551 600 CURVE SMOOTH",
"508 600 LINE SMOOTH",
"492 600 OFFCURVE",
"483 591 OFFCURVE",
"483 575 CURVE SMOOTH",
"483 502 LINE",
"495 529 LINE",
"469 575 OFFCURVE",
"407 611 OFFCURVE",
"304 611 CURVE SMOOTH",
"135 611 OFFCURVE",
"53 512 OFFCURVE",
"53 301 CURVE SMOOTH",
"53 90 OFFCURVE",
"135 -10 OFFCURVE",
"304 -10 CURVE SMOOTH",
"416 -10 OFFCURVE",
"482 29 OFFCURVE",
"498 82 CURVE",
"485 144 LINE",
"485 113 LINE SMOOTH",
"485 36 OFFCURVE",
"532 -4 OFFCURVE",
"621 -4 CURVE SMOOTH",
"635 -4 OFFCURVE",
"652 -2 OFFCURVE",
"666 1 CURVE SMOOTH",
"680 4 OFFCURVE",
"686 15 OFFCURVE",
"686 29 CURVE SMOOTH",
"686 55 LINE SMOOTH",
"686 72 OFFCURVE",
"676 79 OFFCURVE",
"658 77 CURVE SMOOTH",
"649 76 OFFCURVE",
"641 75 OFFCURVE",
"632 75 CURVE SMOOTH",
"589 75 OFFCURVE",
"576 91 OFFCURVE",
"576 131 CURVE SMOOTH"
);
}
);
};
hints = (
{
horizontal = 1;
place = "{-10, 90}";
type = Stem;
},
{
horizontal = 1;
place = "{521, 90}";
type = Stem;
},
{
place = "{77, 93}";
type = Stem;
},
{
place = "{488, 93}";
type = Stem;
}
);
layerId = "A3B50665-EA37-4AC6-885C-1233CA61B6BD";
paths = (
{
closed = 1;
nodes = (
"497 -10 OFFCURVE",
"579 90 OFFCURVE",
"579 301 CURVE SMOOTH",
"579 512 OFFCURVE",
"497 611 OFFCURVE",
"316 611 CURVE SMOOTH",
"135 611 OFFCURVE",
"53 512 OFFCURVE",
"53 301 CURVE SMOOTH",
"53 90 OFFCURVE",
"135 -10 OFFCURVE",
"316 -10 CURVE SMOOTH"
);
},
{
closed = 1;
nodes = (
"196 77 OFFCURVE",
"147 133 OFFCURVE",
"147 301 CURVE SMOOTH",
"147 470 OFFCURVE",
"196 525 OFFCURVE",
"316 525 CURVE SMOOTH",
"436 525 OFFCURVE",
"485 470 OFFCURVE",
"485 301 CURVE SMOOTH",
"485 133 OFFCURVE",
"436 77 OFFCURVE",
"316 77 CURVE SMOOTH"
);
}
);
width = 632;
},
{
background = {
paths = (
{
closed = 1;
nodes = (
"530 -10 OFFCURVE",
"617 85 OFFCURVE",
"617 305 CURVE SMOOTH",
"617 516 OFFCURVE",
"531 610 OFFCURVE",
"332 610 CURVE SMOOTH",
"131 610 OFFCURVE",
"45 516 OFFCURVE",
"45 305 CURVE SMOOTH",
"45 85 OFFCURVE",
"132 -10 OFFCURVE",
"332 -10 CURVE SMOOTH"
);
},
{
closed = 1;
nodes = (
"242 141 OFFCURVE",
"207 189 OFFCURVE",
"207 305 CURVE SMOOTH",
"207 421 OFFCURVE",
"242 469 OFFCURVE",
"332 469 CURVE SMOOTH",
"420 469 OFFCURVE",
"455 421 OFFCURVE",
"455 305 CURVE SMOOTH",
"455 189 OFFCURVE",
"420 141 OFFCURVE",
"332 141 CURVE SMOOTH"
);
}
);
};
hints = (
{
horizontal = 1;
place = "{-10, 155}";
type = Stem;
},
{
horizontal = 1;
place = "{465, 155}";
type = Stem;
},
{
place = "{55, 162}";
type = Stem;
},
{
place = "{441, 162}";
type = Stem;
}
);
layerId = "014D4A40-7C7F-4023-B30E-1F55CE5EA091";
paths = (
{
closed = 1;
nodes = (
"530 -10 OFFCURVE",
"617 85 OFFCURVE",
"617 305 CURVE SMOOTH",
"617 516 OFFCURVE",
"531 610 OFFCURVE",
"332 610 CURVE SMOOTH",
"131 610 OFFCURVE",
"45 516 OFFCURVE",
"45 305 CURVE SMOOTH",
"45 85 OFFCURVE",
"132 -10 OFFCURVE",
"332 -10 CURVE SMOOTH"
);
},
{
closed = 1;
nodes = (
"242 136 OFFCURVE",
"207 184 OFFCURVE",
"207 301 CURVE SMOOTH",
"207 418 OFFCURVE",
"242 466 OFFCURVE",
"332 466 CURVE SMOOTH",
"420 466 OFFCURVE",
"455 418 OFFCURVE",
"455 301 CURVE SMOOTH",
"455 184 OFFCURVE",
"420 136 OFFCURVE",
"332 136 CURVE SMOOTH"
);
}
);
width = 662;
}
);
note = o;
rightMetricsKey = "=|";
unicode = 006F;
},
{
color = 3;
glyphname = p;
lastChange = "2019-02-19 15:51:40 +0000";
layers = (
{
background = {
paths = (
{
closed = 1;
nodes = (
"199 76 OFFCURVE",
"174 131 OFFCURVE",
"174 300 CURVE SMOOTH",
"174 469 OFFCURVE",
"199 525 OFFCURVE",
"341 525 CURVE SMOOTH",
"463 525 OFFCURVE",
"512 469 OFFCURVE",
"512 300 CURVE SMOOTH",
"512 131 OFFCURVE",
"463 76 OFFCURVE",
"341 76 CURVE SMOOTH"
);
},
{
closed = 1;
nodes = (
"92 600 OFFCURVE",
"83 591 OFFCURVE",
"83 575 CURVE SMOOTH",
"83 -165 LINE SMOOTH",
"83 -181 OFFCURVE",
"92 -190 OFFCURVE",
"108 -190 CURVE SMOOTH",
"151 -190 LINE SMOOTH",
"167 -190 OFFCURVE",
"176 -181 OFFCURVE",
"176 -165 CURVE SMOOTH",
"176 99 LINE",
"164 72 LINE",
"190 26 OFFCURVE",
"252 -10 OFFCURVE",
"355 -10 CURVE SMOOTH",
"524 -10 OFFCURVE",
"606 89 OFFCURVE",
"606 300 CURVE SMOOTH",
"606 511 OFFCURVE",
"524 611 OFFCURVE",
"355 611 CURVE SMOOTH",
"243 611 OFFCURVE",
"177 572 OFFCURVE",
"161 519 CURVE",
"169 494 LINE",
"169 575 LINE SMOOTH",
"169 591 OFFCURVE",
"160 600 OFFCURVE",
"144 600 CURVE SMOOTH",
"108 600 LINE SMOOTH"
);
}
);
};
hints = (
{
horizontal = 1;
place = "{-200, 21}";
target = up;
type = BottomGhost;
},
{
horizontal = 1;
place = "{-10, 90}";
type = Stem;
},
{
horizontal = 1;
place = "{521, 90}";
type = Stem;
},
{
place = "{87, 93}";
type = Stem;
},
{
place = "{497, 93}";
type = Stem;
},
{
horizontal = 1;
place = "{600, -20}";
target = down;
type = TopGhost;
}
);
layerId = "A3B50665-EA37-4AC6-885C-1233CA61B6BD";
paths = (
{
closed = 1;
nodes = (
"92 600 OFFCURVE",
"83 591 OFFCURVE",
"83 575 CURVE SMOOTH",
"83 -165 LINE SMOOTH",
"83 -181 OFFCURVE",
"92 -190 OFFCURVE",
"108 -190 CURVE SMOOTH",
"151 -190 LINE SMOOTH",
"167 -190 OFFCURVE",
"176 -181 OFFCURVE",
"176 -165 CURVE SMOOTH",
"176 99 LINE",
"164 72 LINE",
"190 26 OFFCURVE",
"252 -10 OFFCURVE",
"355 -10 CURVE SMOOTH",
"524 -10 OFFCURVE",
"606 89 OFFCURVE",
"606 300 CURVE SMOOTH",
"606 511 OFFCURVE",
"524 611 OFFCURVE",
"355 611 CURVE SMOOTH",
"243 611 OFFCURVE",
"177 572 OFFCURVE",
"161 519 CURVE",
"169 494 LINE",
"169 575 LINE SMOOTH",
"169 591 OFFCURVE",
"160 600 OFFCURVE",
"144 600 CURVE SMOOTH",
"108 600 LINE SMOOTH"
);
},
{
closed = 1;
nodes = (
"463 525 OFFCURVE",
"512 470 OFFCURVE",
"512 301 CURVE SMOOTH",
"512 133 OFFCURVE",
"463 77 OFFCURVE",
"341 77 CURVE SMOOTH",
"199 77 OFFCURVE",
"174 133 OFFCURVE",
"174 301 CURVE SMOOTH",
"174 470 OFFCURVE",
"199 525 OFFCURVE",
"341 525 CURVE SMOOTH"
);
}
);
width = 659;
},
{
background = {
paths = (
{
closed = 1;
nodes = (
"452 469 OFFCURVE",
"487 420 OFFCURVE",
"487 301 CURVE SMOOTH",
"487 182 OFFCURVE",
"452 133 OFFCURVE",
"361 133 CURVE SMOOTH",
"268 133 OFFCURVE",
"237 178 OFFCURVE",
"237 301 CURVE SMOOTH",
"237 424 OFFCURVE",
"268 469 OFFCURVE",
"361 469 CURVE SMOOTH"
);
},
{
closed = 1;
nodes = (
"75 146 OFFCURVE",
"57 128 OFFCURVE",
"21 128 CURVE SMOOTH",
"13 128 OFFCURVE",
"3 130 OFFCURVE",
"-6 132 CURVE SMOOTH",
"-31 138 OFFCURVE",
"-41 126 OFFCURVE",
"-41 98 CURVE SMOOTH",
"-41 48 LINE SMOOTH",
"-41 25 OFFCURVE",
"-32 10 OFFCURVE",
"-12 4 CURVE SMOOTH",
"6 -1 OFFCURVE",
"26 -4 OFFCURVE",
"46 -4 CURVE SMOOTH",
"175 -4 OFFCURVE",
"237 57 OFFCURVE",
"237 155 CURVE SMOOTH",
"237 210 LINE",
"214 79 LINE",
"240 18 OFFCURVE",
"298 -10 OFFCURVE",
"392 -10 CURVE SMOOTH",
"562 -10 OFFCURVE",
"649 95 OFFCURVE",
"649 300 CURVE SMOOTH",
"649 506 OFFCURVE",
"563 610 OFFCURVE",
"392 610 CURVE SMOOTH",
"305 610 OFFCURVE",
"248 585 OFFCURVE",
"218 531 CURVE",
"227 504 LINE",
"227 560 LINE SMOOTH",
"227 585 OFFCURVE",
"212 600 OFFCURVE",
"187 600 CURVE SMOOTH",
"115 600 LINE SMOOTH",
"90 600 OFFCURVE",
"75 585 OFFCURVE",
"75 560 CURVE SMOOTH",
"75 187 LINE SMOOTH"
);
}
);
};
hints = (
{
horizontal = 1;
place = "{-210, 21}";
target = up;
type = BottomGhost;
},
{
horizontal = 1;
place = "{-10, 155}";
type = Stem;
},
{
horizontal = 1;
place = "{465, 155}";
type = Stem;
},
{
place = "{65, 162}";
type = Stem;
},
{
place = "{451, 162}";
type = Stem;
},
{
horizontal = 1;
place = "{465, 135}";
type = Stem;
},
{
place = "{65, 139}";
type = Stem;
}
);
layerId = "014D4A40-7C7F-4023-B30E-1F55CE5EA091";
paths = (
{
closed = 1;
nodes = (
"89 600 OFFCURVE",
"75 586 OFFCURVE",
"75 560 CURVE SMOOTH",
"75 -150 LINE SMOOTH",
"75 -175 OFFCURVE",
"90 -190 OFFCURVE",
"115 -190 CURVE SMOOTH",
"197 -190 LINE SMOOTH",
"222 -190 OFFCURVE",
"237 -175 OFFCURVE",
"237 -150 CURVE SMOOTH",
"237 96 LINE",
"218 69 LINE",
"248 15 OFFCURVE",
"305 -10 OFFCURVE",
"392 -10 CURVE SMOOTH",
"563 -10 OFFCURVE",
"649 94 OFFCURVE",
"649 300 CURVE SMOOTH",
"649 505 OFFCURVE",
"562 610 OFFCURVE",
"392 610 CURVE SMOOTH",
"298 610 OFFCURVE",
"240 582 OFFCURVE",
"214 521 CURVE",
"227 486 LINE",
"227 560 LINE SMOOTH",
"227 586 OFFCURVE",
"213 600 OFFCURVE",
"187 600 CURVE SMOOTH",
"115 600 LINE SMOOTH"
);
},
{
closed = 1;
nodes = (
"452 469 OFFCURVE",
"487 420 OFFCURVE",
"487 301 CURVE SMOOTH",
"487 182 OFFCURVE",
"452 133 OFFCURVE",
"361 133 CURVE SMOOTH",
"268 133 OFFCURVE",
"237 178 OFFCURVE",
"237 301 CURVE SMOOTH",
"237 424 OFFCURVE",
"268 469 OFFCURVE",
"361 469 CURVE SMOOTH"
);
}
);
width = 694;
}
);
leftMetricsKey = h;
note = p;
rightMetricsKey = o;
unicode = 0070;
},
{
glyphname = q;
lastChange = "2019-02-05 11:08:29 +0000";
layers = (
{
hints = (
{
horizontal = 1;
place = "{-200, 21}";
target = up;
type = BottomGhost;
},
{
horizontal = 1;
place = "{-10, 90}";
type = Stem;
},
{
horizontal = 1;
place = "{600, -20}";
target = down;
type = TopGhost;
},
{
place = "{77, 93}";
type = Stem;
},
{
place = "{487, 93}";
type = Stem;
},
{
horizontal = 1;
place = "{521, 90}";
type = Stem;
}
);
layerId = "A3B50665-EA37-4AC6-885C-1233CA61B6BD";
paths = (
{
closed = 1;
nodes = (
"516 600 LINE SMOOTH",
"504 600 OFFCURVE",
"494 590 OFFCURVE",
"494 579 CURVE SMOOTH",
"494 537 LINE",
"467 579 OFFCURVE",
"415 611 OFFCURVE",
"318 611 CURVE SMOOTH",
"152 611 OFFCURVE",
"103 533 OFFCURVE",
"91 467 CURVE SMOOTH",
"83 417 OFFCURVE",
"77 372 OFFCURVE",
"77 300 CURVE SMOOTH",
"77 228 OFFCURVE",
"83 185 OFFCURVE",
"91 135 CURVE SMOOTH",
"103 68 OFFCURVE",
"152 -10 OFFCURVE",
"318 -10 CURVE SMOOTH",
"407 -10 OFFCURVE",
"458 17 OFFCURVE",
"487 53 CURVE",
"487 -178 LINE SMOOTH",
"487 -189 OFFCURVE",
"497 -200 OFFCURVE",
"510 -200 CURVE SMOOTH",
"558 -200 LINE SMOOTH",
"570 -200 OFFCURVE",
"580 -189 OFFCURVE",
"580 -178 CURVE SMOOTH",
"580 577 LINE SMOOTH",
"580 589 OFFCURVE",
"570 600 OFFCURVE",
"558 600 CURVE SMOOTH"
);
},
{
closed = 1;
nodes = (
"453 521 OFFCURVE",
"471 484 OFFCURVE",
"477 452 CURVE SMOOTH",
"485 404 OFFCURVE",
"488 363 OFFCURVE",
"488 300 CURVE SMOOTH",
"488 237 OFFCURVE",
"484 197 OFFCURVE",
"477 150 CURVE SMOOTH",
"471 117 OFFCURVE",
"453 80 OFFCURVE",
"331 80 CURVE SMOOTH",
"205 80 OFFCURVE",
"187 117 OFFCURVE",
"181 150 CURVE SMOOTH",
"173 197 OFFCURVE",
"170 236 OFFCURVE",
"170 300 CURVE SMOOTH",
"170 363 OFFCURVE",
"173 404 OFFCURVE",
"181 452 CURVE SMOOTH",
"187 484 OFFCURVE",
"205 521 OFFCURVE",
"330 521 CURVE SMOOTH"
);
}
);
width = 667;
},
{
hints = (
{
horizontal = 1;
place = "{-210, 21}";
target = up;
type = BottomGhost;
},
{
horizontal = 1;
place = "{-10, 155}";
type = Stem;
},
{
horizontal = 1;
place = "{465, 155}";
type = Stem;
},
{
place = "{55, 162}";
type = Stem;
},
{
place = "{441, 162}";
type = Stem;
},
{
horizontal = 1;
place = "{600, -20}";
target = down;
type = TopGhost;
},
{
place = "{464, 139}";
type = Stem;
}
);
layerId = "014D4A40-7C7F-4023-B30E-1F55CE5EA091";
paths = (
{
closed = 1;
nodes = (
"506 600 LINE SMOOTH",
"476 600 OFFCURVE",
"464 590 OFFCURVE",
"464 570 CURVE SMOOTH",
"464 530 LINE",
"441 583 OFFCURVE",
"394 620 OFFCURVE",
"295 620 CURVE SMOOTH",
"134 620 OFFCURVE",
"82 537 OFFCURVE",
"67 449 CURVE SMOOTH",
"62 421 OFFCURVE",
"55 376 OFFCURVE",
"55 305 CURVE SMOOTH",
"55 234 OFFCURVE",
"62 189 OFFCURVE",
"67 161 CURVE SMOOTH",
"82 73 OFFCURVE",
"133 -10 OFFCURVE",
"295 -10 CURVE SMOOTH",
"369 -10 OFFCURVE",
"413 10 OFFCURVE",
"441 43 CURVE",
"441 -170 LINE SMOOTH",
"441 -190 OFFCURVE",
"451 -210 OFFCURVE",
"481 -210 CURVE SMOOTH",
"563 -210 LINE SMOOTH",
"593 -210 OFFCURVE",
"603 -190 OFFCURVE",
"603 -170 CURVE SMOOTH",
"603 560 LINE SMOOTH",
"603 580 OFFCURVE",
"593 600 OFFCURVE",
"563 600 CURVE SMOOTH"
);
},
{
closed = 1;
nodes = (
"415 465 OFFCURVE",
"429 439 OFFCURVE",
"433 415 CURVE SMOOTH",
"439 380 OFFCURVE",
"441 350 OFFCURVE",
"441 305 CURVE SMOOTH",
"441 261 OFFCURVE",
"439 230 OFFCURVE",
"433 195 CURVE SMOOTH",
"429 171 OFFCURVE",
"415 145 OFFCURVE",
"330 145 CURVE SMOOTH",
"244 145 OFFCURVE",
"229 171 OFFCURVE",
"225 195 CURVE SMOOTH",
"219 230 OFFCURVE",
"217 260 OFFCURVE",
"217 305 CURVE SMOOTH",
"217 350 OFFCURVE",
"219 380 OFFCURVE",
"225 415 CURVE SMOOTH",
"229 439 OFFCURVE",
"244 465 OFFCURVE",
"330 465 CURVE SMOOTH"
);
}
);
width = 668;
}
);
note = q;
unicode = 0071;
},
{
glyphname = r;
lastChange = "2019-02-05 11:08:29 +0000";
layers = (
{
hints = (
{
horizontal = 1;
place = "{0, 21}";
target = up;
type = BottomGhost;
},
{
horizontal = 1;
place = "{521, 90}";
type = Stem;
},
{
place = "{87, 93}";
type = Stem;
},
{
horizontal = 1;
place = "{600, -20}";
target = down;
type = TopGhost;
}
);
layerId = "A3B50665-EA37-4AC6-885C-1233CA61B6BD";
paths = (
{
closed = 1;
nodes = (
"255 611 OFFCURVE",
"201 581 OFFCURVE",
"173 538 CURVE",
"173 579 LINE SMOOTH",
"173 590 OFFCURVE",
"163 600 OFFCURVE",
"151 600 CURVE SMOOTH",
"109 600 LINE SMOOTH",
"97 600 OFFCURVE",
"87 589 OFFCURVE",
"87 577 CURVE SMOOTH",
"87 22 LINE SMOOTH",
"87 11 OFFCURVE",
"97 0 OFFCURVE",
"109 0 CURVE SMOOTH",
"157 0 LINE SMOOTH",
"170 0 OFFCURVE",
"180 11 OFFCURVE",
"180 22 CURVE SMOOTH",
"180 300 LINE SMOOTH",
"180 363 OFFCURVE",
"182 404 OFFCURVE",
"190 452 CURVE SMOOTH",
"196 484 OFFCURVE",
"214 521 OFFCURVE",
"330 521 CURVE SMOOTH",
"363 521 OFFCURVE",
"389 518 OFFCURVE",
"420 515 CURVE SMOOTH",
"432 514 OFFCURVE",
"442 523 OFFCURVE",
"442 534 CURVE SMOOTH",
"442 581 LINE SMOOTH",
"442 594 OFFCURVE",
"432 604 OFFCURVE",
"420 605 CURVE",
"394 609 OFFCURVE",
"382 611 OFFCURVE",
"342 611 CURVE SMOOTH"
);
}
);
width = 450;
},
{
hints = (
{
horizontal = 1;
place = "{0, 21}";
target = up;
type = BottomGhost;
},
{
horizontal = 1;
place = "{465, 155}";
type = Stem;
},
{
place = "{65, 139}";
type = Stem;
},
{
horizontal = 1;
place = "{465, 135}";
type = Stem;
},
{
place = "{65, 162}";
type = Stem;
}
);
layerId = "014D4A40-7C7F-4023-B30E-1F55CE5EA091";
paths = (
{
closed = 1;
nodes = (
"271 620 OFFCURVE",
"224 579 OFFCURVE",
"204 532 CURVE",
"204 570 LINE SMOOTH",
"204 590 OFFCURVE",
"192 600 OFFCURVE",
"162 600 CURVE SMOOTH",
"105 600 LINE SMOOTH",
"75 600 OFFCURVE",
"65 580 OFFCURVE",
"65 560 CURVE SMOOTH",
"65 40 LINE SMOOTH",
"65 20 OFFCURVE",
"75 0 OFFCURVE",
"105 0 CURVE SMOOTH",
"187 0 LINE SMOOTH",
"217 0 OFFCURVE",
"227 20 OFFCURVE",
"227 40 CURVE SMOOTH",
"227 327 LINE SMOOTH",
"227 361 OFFCURVE",
"230 386 OFFCURVE",
"235 416 CURVE SMOOTH",
"239 439 OFFCURVE",
"251 465 OFFCURVE",
"326 465 CURVE SMOOTH",
"357 465 OFFCURVE",
"386 463 OFFCURVE",
"429 458 CURVE SMOOTH",
"452 455 OFFCURVE",
"466 468 OFFCURVE",
"466 487 CURVE SMOOTH",
"466 572 LINE SMOOTH",
"466 594 OFFCURVE",
"453 610 OFFCURVE",
"429 614 CURVE SMOOTH",
"411 617 OFFCURVE",
"392 620 OFFCURVE",
"360 620 CURVE SMOOTH"
);
}
);
width = 466;
}
);
note = r;
unicode = 0072;
},
{
color = 3;
glyphname = s;
lastChange = "2019-02-19 15:52:07 +0000";
layers = (
{
background = {
paths = (
{
closed = 1;
nodes = (
"1024 611 OFFCURVE",
"934 552 OFFCURVE",
"934 450 CURVE SMOOTH",
"934 370 OFFCURVE",
"966 332 OFFCURVE",
"1067 291 CURVE SMOOTH",
"1209 233 LINE SMOOTH",
"1269 209 OFFCURVE",
"1284 193 OFFCURVE",
"1284 154 CURVE SMOOTH",
"1284 106 OFFCURVE",
"1233 76 OFFCURVE",
"1140 76 CURVE SMOOTH",
"1086 76 OFFCURVE",
"1034 82 OFFCURVE",
"975 96 CURVE SMOOTH",
"958 100 OFFCURVE",
"948 92 OFFCURVE",
"948 75 CURVE SMOOTH",
"948 37 LINE SMOOTH",
"948 23 OFFCURVE",
"955 13 OFFCURVE",
"969 9 CURVE SMOOTH",
"1015 -4 OFFCURVE",
"1076 -10 OFFCURVE",
"1139 -10 CURVE SMOOTH",
"1290 -10 OFFCURVE",
"1382 51 OFFCURVE",
"1382 152 CURVE SMOOTH",
"1382 235 OFFCURVE",
"1346 276 OFFCURVE",
"1241 319 CURVE SMOOTH",
"1099 377 LINE SMOOTH",
"1048 398 OFFCURVE",
"1033 414 OFFCURVE",
"1033 446 CURVE SMOOTH",
"1033 498 OFFCURVE",
"1078 526 OFFCURVE",
"1177 526 CURVE SMOOTH",
"1235 526 OFFCURVE",
"1280 518 OFFCURVE",
"1318 509 CURVE SMOOTH",
"1335 505 OFFCURVE",
"1345 513 OFFCURVE",
"1345 530 CURVE SMOOTH",
"1345 567 LINE SMOOTH",
"1345 581 OFFCURVE",
"1338 591 OFFCURVE",
"1324 595 CURVE SMOOTH",
"1279 608 OFFCURVE",
"1233 611 OFFCURVE",
"1178 611 CURVE SMOOTH"
);
},
{
closed = 1;
nodes = (
"116 610 OFFCURVE",
"17 538 OFFCURVE",
"17 421 CURVE SMOOTH",
"17 195 OFFCURVE",
"339 256 OFFCURVE",
"339 178 CURVE SMOOTH",
"339 151 OFFCURVE",
"308 139 OFFCURVE",
"235 139 CURVE SMOOTH",
"186 139 OFFCURVE",
"145 145 OFFCURVE",
"60 158 CURVE SMOOTH",
"33 162 OFFCURVE",
"17 148 OFFCURVE",
"17 121 CURVE SMOOTH",
"17 55 LINE SMOOTH",
"17 31 OFFCURVE",
"29 17 OFFCURVE",
"53 10 CURVE SMOOTH",
"99 -3 OFFCURVE",
"171 -10 OFFCURVE",
"227 -10 CURVE SMOOTH",
"412 -10 OFFCURVE",
"510 57 OFFCURVE",
"510 176 CURVE SMOOTH",
"510 395 OFFCURVE",
"190 345 OFFCURVE",
"190 419 CURVE SMOOTH",
"190 447 OFFCURVE",
"216 461 OFFCURVE",
"281 461 CURVE SMOOTH",
"333 461 OFFCURVE",
"369 456 OFFCURVE",
"427 446 CURVE SMOOTH",
"454 441 OFFCURVE",
"470 456 OFFCURVE",
"470 483 CURVE SMOOTH",
"470 549 LINE SMOOTH",
"470 574 OFFCURVE",
"458 587 OFFCURVE",
"434 593 CURVE SMOOTH",
"386 604 OFFCURVE",
"340 610 OFFCURVE",
"293 610 CURVE SMOOTH"
);
}
);
};
hints = (
{
horizontal = 1;
place = "{-10, 90}";
type = Stem;
},
{
horizontal = 1;
place = "{521, 90}";
type = Stem;
},
{
place = "{66, 100}";
type = Stem;
},
{
place = "{432, 99}";
type = Stem;
}
);
layerId = "A3B50665-EA37-4AC6-885C-1233CA61B6BD";
paths = (
{
closed = 1;
nodes = (
"143 611 OFFCURVE",
"51 547 OFFCURVE",
"51 440 CURVE SMOOTH",
"51 238 OFFCURVE",
"384 289 OFFCURVE",
"384 159 CURVE SMOOTH",
"384 111 OFFCURVE",
"337 76 OFFCURVE",
"240 76 CURVE SMOOTH",
"186 76 OFFCURVE",
"134 82 OFFCURVE",
"75 96 CURVE SMOOTH",
"58 100 OFFCURVE",
"48 92 OFFCURVE",
"48 75 CURVE SMOOTH",
"48 37 LINE SMOOTH",
"48 23 OFFCURVE",
"55 13 OFFCURVE",
"69 9 CURVE SMOOTH",
"115 -4 OFFCURVE",
"176 -10 OFFCURVE",
"229 -10 CURVE SMOOTH",
"390 -10 OFFCURVE",
"482 56 OFFCURVE",
"482 163 CURVE SMOOTH",
"482 363 OFFCURVE",
"150 324 OFFCURVE",
"150 441 CURVE SMOOTH",
"150 493 OFFCURVE",
"192 526 OFFCURVE",
"285 526 CURVE SMOOTH",
"342 526 OFFCURVE",
"387 518 OFFCURVE",
"425 509 CURVE SMOOTH",
"442 505 OFFCURVE",
"452 513 OFFCURVE",
"452 530 CURVE SMOOTH",
"452 567 LINE SMOOTH",
"452 581 OFFCURVE",
"445 591 OFFCURVE",
"431 595 CURVE SMOOTH",
"386 608 OFFCURVE",
"342 611 OFFCURVE",
"287 611 CURVE SMOOTH"
);
}
);
width = 511;
},
{
background = {
paths = (
{
closed = 1;
nodes = (
"142 610 OFFCURVE",
"42 542 OFFCURVE",
"42 429 CURVE SMOOTH",
"42 330 OFFCURVE",
"87 281 OFFCURVE",
"207 248 CURVE SMOOTH",
"321 217 LINE SMOOTH",
"361 206 OFFCURVE",
"371 200 OFFCURVE",
"371 178 CURVE SMOOTH",
"371 151 OFFCURVE",
"340 139 OFFCURVE",
"267 139 CURVE SMOOTH",
"218 139 OFFCURVE",
"177 143 OFFCURVE",
"92 156 CURVE SMOOTH",
"65 160 OFFCURVE",
"49 146 OFFCURVE",
"49 119 CURVE SMOOTH",
"49 53 LINE SMOOTH",
"49 29 OFFCURVE",
"60 14 OFFCURVE",
"85 8 CURVE SMOOTH",
"131 -3 OFFCURVE",
"203 -10 OFFCURVE",
"269 -10 CURVE SMOOTH",
"445 -10 OFFCURVE",
"542 58 OFFCURVE",
"542 176 CURVE SMOOTH",
"542 269 OFFCURVE",
"484 323 OFFCURVE",
"383 350 CURVE SMOOTH",
"269 381 LINE SMOOTH",
"221 394 OFFCURVE",
"215 404 OFFCURVE",
"215 419 CURVE SMOOTH",
"215 449 OFFCURVE",
"247 461 OFFCURVE",
"313 461 CURVE SMOOTH",
"378 461 OFFCURVE",
"415 456 OFFCURVE",
"469 448 CURVE SMOOTH",
"496 444 OFFCURVE",
"512 458 OFFCURVE",
"512 485 CURVE SMOOTH",
"512 551 LINE SMOOTH",
"512 575 OFFCURVE",
"501 590 OFFCURVE",
"476 595 CURVE SMOOTH",
"427 605 OFFCURVE",
"371 610 OFFCURVE",
"315 610 CURVE SMOOTH"
);
}
);
};
hints = (
{
horizontal = 1;
place = "{-10, 151}";
type = Stem;
},
{
horizontal = 1;
place = "{469, 151}";
type = Stem;
},
{
place = "{42, 174}";
type = Stem;
},
{
place = "{387, 172}";
type = Stem;
}
);
layerId = "014D4A40-7C7F-4023-B30E-1F55CE5EA091";
paths = (
{
closed = 1;
nodes = (
"148 610 OFFCURVE",
"49 538 OFFCURVE",
"49 421 CURVE SMOOTH",
"49 195 OFFCURVE",
"371 256 OFFCURVE",
"371 178 CURVE SMOOTH",
"371 151 OFFCURVE",
"340 139 OFFCURVE",
"267 139 CURVE SMOOTH",
"218 139 OFFCURVE",
"177 145 OFFCURVE",
"92 158 CURVE SMOOTH",
"65 162 OFFCURVE",
"49 148 OFFCURVE",
"49 121 CURVE SMOOTH",
"49 55 LINE SMOOTH",
"49 31 OFFCURVE",
"61 17 OFFCURVE",
"85 10 CURVE SMOOTH",
"131 -3 OFFCURVE",
"203 -10 OFFCURVE",
"259 -10 CURVE SMOOTH",
"444 -10 OFFCURVE",
"542 57 OFFCURVE",
"542 176 CURVE SMOOTH",
"542 395 OFFCURVE",
"222 345 OFFCURVE",
"222 419 CURVE SMOOTH",
"222 447 OFFCURVE",
"248 461 OFFCURVE",
"313 461 CURVE SMOOTH",
"365 461 OFFCURVE",
"401 456 OFFCURVE",
"459 446 CURVE SMOOTH",
"486 441 OFFCURVE",
"502 456 OFFCURVE",
"502 483 CURVE SMOOTH",
"502 549 LINE SMOOTH",
"502 574 OFFCURVE",
"490 587 OFFCURVE",
"466 593 CURVE SMOOTH",
"418 604 OFFCURVE",
"372 610 OFFCURVE",
"325 610 CURVE SMOOTH"
);
}
);
width = 560;
}
);
note = s;
unicode = 0073;
},
{
color = 3;
glyphname = t;
lastChange = "2019-02-19 15:52:38 +0000";
layers = (
{
background = {
paths = (
{
closed = 1;
nodes = (
"403 86 OFFCURVE",
"376 81 OFFCURVE",
"335 81 CURVE SMOOTH",
"243 81 OFFCURVE",
"196 129 OFFCURVE",
"196 223 CURVE SMOOTH",
"196 730 LINE",
"103 730 LINE",
"103 206 LINE SMOOTH",
"103 76 OFFCURVE",
"189 -4 OFFCURVE",
"330 -4 CURVE SMOOTH",
"368 -4 OFFCURVE",
"409 4 OFFCURVE",
"442 19 CURVE",
"442 104 LINE"
);
},
{
closed = 1;
nodes = (
"397 519 LINE",
"397 600 LINE",
"3 600 LINE",
"3 519 LINE"
);
}
);
};
guideLines = (
{
angle = 90;
position = "{196, 397}";
}
);
layerId = "A3B50665-EA37-4AC6-885C-1233CA61B6BD";
paths = (
{
closed = 1;
nodes = (
"388 83 OFFCURVE",
"365 79 OFFCURVE",
"335 79 CURVE SMOOTH",
"243 79 OFFCURVE",
"196 127 OFFCURVE",
"196 221 CURVE SMOOTH",
"196 705 LINE SMOOTH",
"196 721 OFFCURVE",
"187 730 OFFCURVE",
"171 730 CURVE SMOOTH",
"128 730 LINE SMOOTH",
"112 730 OFFCURVE",
"103 721 OFFCURVE",
"103 705 CURVE SMOOTH",
"103 206 LINE SMOOTH",
"103 76 OFFCURVE",
"185 -4 OFFCURVE",
"330 -4 CURVE SMOOTH",
"361 -4 OFFCURVE",
"394 1 OFFCURVE",
"423 12 CURVE SMOOTH",
"436 17 OFFCURVE",
"442 27 OFFCURVE",
"442 41 CURVE SMOOTH",
"442 72 LINE SMOOTH",
"442 90 OFFCURVE",
"431 97 OFFCURVE",
"413 91 CURVE SMOOTH"
);
},
{
closed = 1;
nodes = (
"364 519 LINE SMOOTH",
"380 519 OFFCURVE",
"389 528 OFFCURVE",
"389 544 CURVE SMOOTH",
"389 575 LINE SMOOTH",
"389 591 OFFCURVE",
"380 600 OFFCURVE",
"364 600 CURVE SMOOTH",
"28 600 LINE SMOOTH",
"12 600 OFFCURVE",
"3 591 OFFCURVE",
"3 575 CURVE SMOOTH",
"3 544 LINE SMOOTH",
"3 528 OFFCURVE",
"12 519 OFFCURVE",
"28 519 CURVE SMOOTH"
);
}
);
width = 416;
},
{
background = {
paths = (
{
closed = 1;
nodes = (
"421 125 OFFCURVE",
"388 121 OFFCURVE",
"359 121 CURVE SMOOTH",
"291 121 OFFCURVE",
"252 149 OFFCURVE",
"252 208 CURVE SMOOTH",
"252 720 LINE",
"96 720 LINE",
"96 199 LINE SMOOTH",
"96 51 OFFCURVE",
"199 -10 OFFCURVE",
"344 -10 CURVE SMOOTH",
"370 -10 OFFCURVE",
"414 -5 OFFCURVE",
"450 12 CURVE",
"450 140 LINE"
);
},
{
closed = 1;
nodes = (
"413 474 LINE",
"413 600 LINE",
"5 600 LINE",
"5 474 LINE"
);
}
);
};
layerId = "014D4A40-7C7F-4023-B30E-1F55CE5EA091";
paths = (
{
closed = 1;
nodes = (
"390 133 OFFCURVE",
"374 132 OFFCURVE",
"359 132 CURVE SMOOTH",
"289 132 OFFCURVE",
"252 162 OFFCURVE",
"252 219 CURVE SMOOTH",
"252 690 LINE SMOOTH",
"252 716 OFFCURVE",
"238 730 OFFCURVE",
"212 730 CURVE SMOOTH",
"136 730 LINE SMOOTH",
"110 730 OFFCURVE",
"96 716 OFFCURVE",
"96 690 CURVE SMOOTH",
"96 199 LINE SMOOTH",
"96 64 OFFCURVE",
"174 -10 OFFCURVE",
"344 -10 CURVE SMOOTH",
"363 -10 OFFCURVE",
"391 -7 OFFCURVE",
"418 0 CURVE SMOOTH",
"441 7 OFFCURVE",
"450 23 OFFCURVE",
"450 46 CURVE SMOOTH",
"450 104 LINE SMOOTH",
"450 132 OFFCURVE",
"434 141 OFFCURVE",
"406 136 CURVE SMOOTH"
);
},
{
closed = 1;
nodes = (
"382 468 LINE SMOOTH",
"408 468 OFFCURVE",
"422 482 OFFCURVE",
"422 508 CURVE SMOOTH",
"422 560 LINE SMOOTH",
"422 586 OFFCURVE",
"408 600 OFFCURVE",
"382 600 CURVE SMOOTH",
"35 600 LINE SMOOTH",
"9 600 OFFCURVE",
"-5 586 OFFCURVE",
"-5 560 CURVE SMOOTH",
"-5 508 LINE SMOOTH",
"-5 482 OFFCURVE",
"9 468 OFFCURVE",
"35 468 CURVE SMOOTH"
);
}
);
width = 439;
}
);
unicode = 0074;
},
{
color = 3;
glyphname = u;
lastChange = "2019-02-19 15:52:51 +0000";
layers = (
{
background = {
paths = (
{
closed = 1;
nodes = (
"501 600 LINE SMOOTH",
"485 600 OFFCURVE",
"476 591 OFFCURVE",
"476 575 CURVE SMOOTH",
"476 269 LINE SMOOTH",
"476 130 OFFCURVE",
"431 75 OFFCURVE",
"320 75 CURVE SMOOTH",
"221 75 OFFCURVE",
"176 130 OFFCURVE",
"176 299 CURVE SMOOTH",
"176 575 LINE SMOOTH",
"176 591 OFFCURVE",
"167 600 OFFCURVE",
"151 600 CURVE SMOOTH",
"108 600 LINE SMOOTH",
"92 600 OFFCURVE",
"83 591 OFFCURVE",
"83 575 CURVE SMOOTH",
"83 299 LINE SMOOTH",
"83 88 OFFCURVE",
"159 -11 OFFCURVE",
"320 -11 CURVE SMOOTH",
"400 -11 OFFCURVE",
"462 25 OFFCURVE",
"488 71 CURVE",
"476 108 LINE",
"476 21 LINE SMOOTH",
"476 10 OFFCURVE",
"486 0 OFFCURVE",
"499 0 CURVE SMOOTH",
"547 0 LINE SMOOTH",
"559 0 OFFCURVE",
"569 11 OFFCURVE",
"569 22 CURVE SMOOTH",
"569 575 LINE SMOOTH",
"569 591 OFFCURVE",
"560 600 OFFCURVE",
"544 600 CURVE SMOOTH"
);
}
);
};
hints = (
{
horizontal = 1;
place = "{-10, 90}";
type = Stem;
},
{
horizontal = 1;
place = "{600, -20}";
target = down;
type = TopGhost;
},
{
place = "{82, 93}";
type = Stem;
},
{
place = "{479, 93}";
type = Stem;
},
{
horizontal = 1;
place = "{0, 21}";
target = up;
type = BottomGhost;
}
);
layerId = "A3B50665-EA37-4AC6-885C-1233CA61B6BD";
paths = (
{
closed = 1;
nodes = (
"569 575 LINE SMOOTH",
"569 591 OFFCURVE",
"560 600 OFFCURVE",
"544 600 CURVE SMOOTH",
"501 600 LINE SMOOTH",
"485 600 OFFCURVE",
"476 591 OFFCURVE",
"476 575 CURVE SMOOTH",
"476 269 LINE SMOOTH",
"476 130 OFFCURVE",
"431 75 OFFCURVE",
"320 75 CURVE SMOOTH",
"221 75 OFFCURVE",
"176 130 OFFCURVE",
"176 299 CURVE SMOOTH",
"176 575 LINE SMOOTH",
"176 591 OFFCURVE",
"167 600 OFFCURVE",
"151 600 CURVE SMOOTH",
"108 600 LINE SMOOTH",
"92 600 OFFCURVE",
"83 591 OFFCURVE",
"83 575 CURVE SMOOTH",
"83 299 LINE SMOOTH",
"83 88 OFFCURVE",
"159 -11 OFFCURVE",
"320 -11 CURVE SMOOTH",
"400 -11 OFFCURVE",
"462 25 OFFCURVE",
"488 71 CURVE",
"478 144 LINE",
"478 113 LINE SMOOTH",
"478 36 OFFCURVE",
"525 -4 OFFCURVE",
"614 -4 CURVE SMOOTH",
"628 -4 OFFCURVE",
"645 -2 OFFCURVE",
"659 1 CURVE SMOOTH",
"673 4 OFFCURVE",
"679 15 OFFCURVE",
"679 29 CURVE SMOOTH",
"679 55 LINE SMOOTH",
"679 72 OFFCURVE",
"669 79 OFFCURVE",
"651 77 CURVE SMOOTH",
"642 76 OFFCURVE",
"634 75 OFFCURVE",
"625 75 CURVE SMOOTH",
"582 75 OFFCURVE",
"569 91 OFFCURVE",
"569 131 CURVE SMOOTH"
);
}
);
width = 672;
},
{
background = {
paths = (
{
closed = 1;
nodes = (
"75 262 LINE SMOOTH",
"75 73 OFFCURVE",
"144 -10 OFFCURVE",
"298 -10 CURVE SMOOTH",
"377 -10 OFFCURVE",
"434 15 OFFCURVE",
"464 69 CURVE",
"455 121 LINE",
"455 30 LINE SMOOTH",
"455 10 OFFCURVE",
"467 0 OFFCURVE",
"497 0 CURVE SMOOTH",
"567 0 LINE SMOOTH",
"597 0 OFFCURVE",
"607 20 OFFCURVE",
"607 40 CURVE SMOOTH",
"607 560 LINE SMOOTH",
"607 580 OFFCURVE",
"597 600 OFFCURVE",
"567 600 CURVE SMOOTH",
"485 600 LINE SMOOTH",
"455 600 OFFCURVE",
"445 580 OFFCURVE",
"445 560 CURVE SMOOTH",
"445 262 LINE SMOOTH",
"445 174 OFFCURVE",
"410 131 OFFCURVE",
"341 131 CURVE SMOOTH",
"272 131 OFFCURVE",
"237 174 OFFCURVE",
"237 262 CURVE SMOOTH",
"237 560 LINE SMOOTH",
"237 580 OFFCURVE",
"227 600 OFFCURVE",
"197 600 CURVE SMOOTH",
"115 600 LINE SMOOTH",
"85 600 OFFCURVE",
"75 580 OFFCURVE",
"75 560 CURVE SMOOTH"
);
}
);
};
hints = (
{
horizontal = 1;
place = "{-10, 155}";
type = Stem;
},
{
horizontal = 1;
place = "{600, -20}";
target = down;
type = TopGhost;
},
{
place = "{60, 162}";
type = Stem;
},
{
place = "{434, 162}";
type = Stem;
},
{
horizontal = 1;
place = "{0, 21}";
target = up;
type = BottomGhost;
},
{
place = "{457, 139}";
type = Stem;
}
);
layerId = "014D4A40-7C7F-4023-B30E-1F55CE5EA091";
paths = (
{
closed = 1;
nodes = (
"607 560 LINE SMOOTH",
"607 580 OFFCURVE",
"597 600 OFFCURVE",
"567 600 CURVE SMOOTH",
"485 600 LINE SMOOTH",
"455 600 OFFCURVE",
"445 580 OFFCURVE",
"445 560 CURVE SMOOTH",
"445 262 LINE SMOOTH",
"445 174 OFFCURVE",
"410 131 OFFCURVE",
"341 131 CURVE SMOOTH",
"272 131 OFFCURVE",
"237 174 OFFCURVE",
"237 262 CURVE SMOOTH",
"237 560 LINE SMOOTH",
"237 580 OFFCURVE",
"227 600 OFFCURVE",
"197 600 CURVE SMOOTH",
"115 600 LINE SMOOTH",
"85 600 OFFCURVE",
"75 580 OFFCURVE",
"75 560 CURVE SMOOTH",
"75 262 LINE SMOOTH",
"75 73 OFFCURVE",
"144 -10 OFFCURVE",
"298 -10 CURVE SMOOTH",
"377 -10 OFFCURVE",
"434 15 OFFCURVE",
"464 69 CURVE",
"445 210 LINE",
"445 155 LINE SMOOTH",
"445 57 OFFCURVE",
"507 -4 OFFCURVE",
"636 -4 CURVE SMOOTH",
"656 -4 OFFCURVE",
"676 -1 OFFCURVE",
"694 4 CURVE SMOOTH",
"714 10 OFFCURVE",
"723 25 OFFCURVE",
"723 48 CURVE SMOOTH",
"723 98 LINE SMOOTH",
"723 126 OFFCURVE",
"713 138 OFFCURVE",
"688 132 CURVE SMOOTH",
"679 130 OFFCURVE",
"669 128 OFFCURVE",
"661 128 CURVE SMOOTH",
"625 128 OFFCURVE",
"607 146 OFFCURVE",
"607 187 CURVE SMOOTH"
);
}
);
width = 703;
}
);
note = u;
rightMetricsKey = a;
unicode = 0075;
},
{
color = 3;
glyphname = v;
lastChange = "2019-02-19 15:53:19 +0000";
layers = (
{
background = {
paths = (
{
closed = 1;
nodes = (
"263 29 LINE",
"315 28 LINE",
"110 600 LINE",
"2 600 LINE",
"227 0 LINE",
"346 0 LINE",
"570 600 LINE",
"468 600 LINE"
);
}
);
};
layerId = "A3B50665-EA37-4AC6-885C-1233CA61B6BD";
paths = (
{
closed = 1;
nodes = (
"265 29 LINE",
"313 28 LINE",
"115 580 LINE SMOOTH",
"110 593 OFFCURVE",
"101 600 OFFCURVE",
"87 600 CURVE SMOOTH",
"33 600 LINE SMOOTH",
"15 600 OFFCURVE",
"6 589 OFFCURVE",
"13 571 CURVE SMOOTH",
"220 20 LINE SMOOTH",
"225 7 OFFCURVE",
"234 0 OFFCURVE",
"248 0 CURVE SMOOTH",
"325 0 LINE SMOOTH",
"339 0 OFFCURVE",
"348 7 OFFCURVE",
"353 20 CURVE SMOOTH",
"559 571 LINE SMOOTH",
"566 589 OFFCURVE",
"557 600 OFFCURVE",
"539 600 CURVE SMOOTH",
"491 600 LINE SMOOTH",
"477 600 OFFCURVE",
"468 593 OFFCURVE",
"463 580 CURVE SMOOTH"
);
}
);
width = 563;
},
{
background = {
paths = (
{
closed = 1;
nodes = (
"283 80 LINE",
"353 79 LINE",
"171 600 LINE",
"-12 600 LINE",
"208 0 LINE",
"419 0 LINE",
"639 600 LINE",
"464 600 LINE"
);
}
);
};
layerId = "014D4A40-7C7F-4023-B30E-1F55CE5EA091";
paths = (
{
closed = 1;
nodes = (
"283 80 LINE",
"353 79 LINE",
"182 568 LINE SMOOTH",
"174 590 OFFCURVE",
"160 600 OFFCURVE",
"137 600 CURVE SMOOTH",
"37 600 LINE SMOOTH",
"8 600 OFFCURVE",
"-5 581 OFFCURVE",
"5 554 CURVE SMOOTH",
"196 32 LINE SMOOTH",
"204 11 OFFCURVE",
"219 0 OFFCURVE",
"242 0 CURVE SMOOTH",
"385 0 LINE SMOOTH",
"408 0 OFFCURVE",
"423 11 OFFCURVE",
"431 32 CURVE SMOOTH",
"622 554 LINE SMOOTH",
"632 581 OFFCURVE",
"619 600 OFFCURVE",
"590 600 CURVE SMOOTH",
"498 600 LINE SMOOTH",
"475 600 OFFCURVE",
"461 590 OFFCURVE",
"453 568 CURVE SMOOTH"
);
}
);
width = 627;
}
);
unicode = 0076;
},
{
color = 3;
glyphname = y;
lastChange = "2019-02-19 15:53:32 +0000";
layers = (
{
background = {
paths = (
{
closed = 1;
nodes = (
"110 600 LINE",
"2 600 LINE",
"227 0 LINE",
"326 0 LINE"
);
},
{
closed = 1;
nodes = (
"250 -190 OFFCURVE",
"304 -112 OFFCURVE",
"346 1 CURVE SMOOTH",
"570 600 LINE",
"468 600 LINE",
"283 76 LINE",
"268 49 LINE",
"257 18 LINE SMOOTH",
"227 -64 OFFCURVE",
"195 -108 OFFCURVE",
"102 -108 CURVE SMOOTH",
"56 -108 OFFCURVE",
"27 -99 OFFCURVE",
"-9 -84 CURVE",
"-9 -171 LINE",
"27 -183 OFFCURVE",
"71 -190 OFFCURVE",
"106 -190 CURVE SMOOTH"
);
}
);
};
layerId = "A3B50665-EA37-4AC6-885C-1233CA61B6BD";
paths = (
{
closed = 1;
nodes = (
"115 580 LINE SMOOTH",
"110 593 OFFCURVE",
"101 600 OFFCURVE",
"87 600 CURVE SMOOTH",
"33 600 LINE SMOOTH",
"15 600 OFFCURVE",
"7 588 OFFCURVE",
"13 571 CURVE SMOOTH",
"220 20 LINE SMOOTH",
"225 7 OFFCURVE",
"234 0 OFFCURVE",
"248 0 CURVE SMOOTH",
"324 0 LINE"
);
},
{
closed = 1;
nodes = (
"251 -190 OFFCURVE",
"304 -112 OFFCURVE",
"346 1 CURVE SMOOTH",
"559 571 LINE SMOOTH",
"565 588 OFFCURVE",
"557 600 OFFCURVE",
"539 600 CURVE SMOOTH",
"491 600 LINE SMOOTH",
"477 600 OFFCURVE",
"468 593 OFFCURVE",
"463 580 CURVE SMOOTH",
"285 76 LINE",
"268 49 LINE",
"257 18 LINE SMOOTH",
"227 -64 OFFCURVE",
"196 -108 OFFCURVE",
"105 -108 CURVE SMOOTH",
"72 -108 OFFCURVE",
"47 -103 OFFCURVE",
"23 -95 CURVE SMOOTH",
"5 -89 OFFCURVE",
"-6 -97 OFFCURVE",
"-6 -115 CURVE SMOOTH",
"-6 -149 LINE SMOOTH",
"-6 -163 OFFCURVE",
"1 -173 OFFCURVE",
"15 -177 CURVE SMOOTH",
"46 -186 OFFCURVE",
"81 -190 OFFCURVE",
"109 -190 CURVE SMOOTH"
);
}
);
width = 563;
},
{
background = {
paths = (
{
closed = 1;
nodes = (
"171 600 LINE",
"-12 600 LINE",
"208 0 LINE",
"381 0 LINE"
);
},
{
closed = 1;
nodes = (
"291 -200 OFFCURVE",
"374 -126 OFFCURVE",
"423 9 CURVE SMOOTH",
"639 600 LINE",
"464 600 LINE",
"291 104 LINE",
"271 68 LINE",
"260 38 LINE SMOOTH",
"230 -44 OFFCURVE",
"203 -69 OFFCURVE",
"119 -69 CURVE SMOOTH",
"85 -69 OFFCURVE",
"47 -64 OFFCURVE",
"11 -47 CURVE",
"11 -185 LINE",
"52 -196 OFFCURVE",
"97 -200 OFFCURVE",
"127 -200 CURVE SMOOTH"
);
}
);
};
guideLines = (
{
angle = 253.0219;
position = "{388, 508}";
}
);
layerId = "014D4A40-7C7F-4023-B30E-1F55CE5EA091";
paths = (
{
closed = 1;
nodes = (
"182 568 LINE SMOOTH",
"174 590 OFFCURVE",
"160 600 OFFCURVE",
"137 600 CURVE SMOOTH",
"37 600 LINE SMOOTH",
"8 600 OFFCURVE",
"-5 581 OFFCURVE",
"5 554 CURVE SMOOTH",
"196 32 LINE SMOOTH",
"204 11 OFFCURVE",
"219 0 OFFCURVE",
"242 0 CURVE SMOOTH",
"381 0 LINE"
);
},
{
closed = 1;
nodes = (
"291 -200 OFFCURVE",
"374 -126 OFFCURVE",
"423 9 CURVE SMOOTH",
"622 554 LINE SMOOTH",
"632 581 OFFCURVE",
"619 600 OFFCURVE",
"590 600 CURVE SMOOTH",
"498 600 LINE SMOOTH",
"475 600 OFFCURVE",
"461 590 OFFCURVE",
"453 568 CURVE SMOOTH",
"291 104 LINE",
"271 68 LINE",
"260 38 LINE SMOOTH",
"230 -44 OFFCURVE",
"203 -69 OFFCURVE",
"119 -69 CURVE SMOOTH",
"99 -69 OFFCURVE",
"77 -67 OFFCURVE",
"56 -62 CURVE SMOOTH",
"27 -56 OFFCURVE",
"11 -65 OFFCURVE",
"11 -94 CURVE SMOOTH",
"11 -149 LINE SMOOTH",
"11 -173 OFFCURVE",
"22 -189 OFFCURVE",
"46 -193 CURVE SMOOTH",
"76 -198 OFFCURVE",
"105 -200 OFFCURVE",
"127 -200 CURVE SMOOTH"
);
}
);
width = 627;
}
);
widthMetricsKey = v;
rightMetricsKey = v;
unicode = 0079;
},
{
color = 3;
glyphname = a.ss01;
lastChange = "2019-02-19 15:57:20 +0000";
layers = (
{
background = {
paths = (
{
closed = 1;
nodes = (
"424 525 OFFCURVE",
"449 470 OFFCURVE",
"449 301 CURVE SMOOTH",
"449 133 OFFCURVE",
"424 77 OFFCURVE",
"282 77 CURVE SMOOTH",
"160 77 OFFCURVE",
"111 133 OFFCURVE",
"111 301 CURVE SMOOTH",
"111 470 OFFCURVE",
"160 525 OFFCURVE",
"282 525 CURVE SMOOTH"
);
},
{
closed = 1;
nodes = (
"540 575 LINE SMOOTH",
"540 591 OFFCURVE",
"531 600 OFFCURVE",
"515 600 CURVE SMOOTH",
"477 600 LINE SMOOTH",
"461 600 OFFCURVE",
"452 591 OFFCURVE",
"452 575 CURVE SMOOTH",
"452 502 LINE",
"459 529 LINE",
"433 575 OFFCURVE",
"371 611 OFFCURVE",
"268 611 CURVE SMOOTH",
"99 611 OFFCURVE",
"17 512 OFFCURVE",
"17 301 CURVE SMOOTH",
"17 90 OFFCURVE",
"99 -10 OFFCURVE",
"268 -10 CURVE SMOOTH",
"380 -10 OFFCURVE",
"446 29 OFFCURVE",
"462 82 CURVE",
"449 144 LINE",
"449 113 LINE SMOOTH",
"449 36 OFFCURVE",
"496 -4 OFFCURVE",
"585 -4 CURVE SMOOTH",
"599 -4 OFFCURVE",
"616 -2 OFFCURVE",
"630 1 CURVE SMOOTH",
"644 4 OFFCURVE",
"650 15 OFFCURVE",
"650 29 CURVE SMOOTH",
"650 55 LINE SMOOTH",
"650 72 OFFCURVE",
"640 79 OFFCURVE",
"622 77 CURVE SMOOTH",
"613 76 OFFCURVE",
"605 75 OFFCURVE",
"596 75 CURVE SMOOTH",
"553 75 OFFCURVE",
"540 91 OFFCURVE",
"540 131 CURVE SMOOTH"
);
}
);
};
hints = (
{
horizontal = 1;
place = "{-10, 89}";
type = Stem;
},
{
horizontal = 1;
place = "{517, 91}";
type = Stem;
},
{
place = "{58, 96}";
type = Stem;
},
{
place = "{453, 93}";
type = Stem;
},
{
horizontal = 1;
place = "{0, 21}";
target = up;
type = BottomGhost;
}
);
layerId = "A3B50665-EA37-4AC6-885C-1233CA61B6BD";
paths = (
{
closed = 1;
nodes = (
"540 371 LINE SMOOTH",
"540 535 OFFCURVE",
"443 611 OFFCURVE",
"258 611 CURVE SMOOTH",
"194 611 OFFCURVE",
"148 602 OFFCURVE",
"103 592 CURVE SMOOTH",
"89 589 OFFCURVE",
"82 578 OFFCURVE",
"82 564 CURVE SMOOTH",
"82 527 LINE SMOOTH",
"82 510 OFFCURVE",
"92 502 OFFCURVE",
"109 506 CURVE SMOOTH",
"147 515 OFFCURVE",
"192 526 OFFCURVE",
"260 526 CURVE SMOOTH",
"390 526 OFFCURVE",
"446 487 OFFCURVE",
"446 371 CURVE SMOOTH",
"446 218 LINE SMOOTH",
"446 127 OFFCURVE",
"391 75 OFFCURVE",
"277 75 CURVE SMOOTH",
"187 75 OFFCURVE",
"148 101 OFFCURVE",
"148 159 CURVE SMOOTH",
"148 197 OFFCURVE",
"171 228 OFFCURVE",
"208 246 CURVE SMOOTH",
"461 369 LINE",
"461 457 LINE",
"179 319 LINE SMOOTH",
"87 274 OFFCURVE",
"52 227 OFFCURVE",
"52 154 CURVE SMOOTH",
"52 54 OFFCURVE",
"120 -10 OFFCURVE",
"269 -10 CURVE SMOOTH",
"380 -10 OFFCURVE",
"446 29 OFFCURVE",
"462 82 CURVE",
"449 144 LINE",
"449 113 LINE SMOOTH",
"449 36 OFFCURVE",
"496 -4 OFFCURVE",
"585 -4 CURVE SMOOTH",
"599 -4 OFFCURVE",
"616 -2 OFFCURVE",
"630 1 CURVE SMOOTH",
"644 4 OFFCURVE",
"650 15 OFFCURVE",
"650 29 CURVE SMOOTH",
"650 55 LINE SMOOTH",
"650 72 OFFCURVE",
"640 79 OFFCURVE",
"622 77 CURVE SMOOTH",
"613 76 OFFCURVE",
"605 75 OFFCURVE",
"596 75 CURVE SMOOTH",
"553 75 OFFCURVE",
"540 91 OFFCURVE",
"540 131 CURVE SMOOTH"
);
}
);
width = 643;
},
{
background = {
paths = (
{
closed = 1;
nodes = (
"388 469 OFFCURVE",
"419 424 OFFCURVE",
"419 301 CURVE SMOOTH",
"419 178 OFFCURVE",
"388 133 OFFCURVE",
"295 133 CURVE SMOOTH",
"204 133 OFFCURVE",
"169 182 OFFCURVE",
"169 301 CURVE SMOOTH",
"169 420 OFFCURVE",
"204 469 OFFCURVE",
"295 469 CURVE SMOOTH"
);
},
{
closed = 1;
nodes = (
"581 560 LINE SMOOTH",
"581 585 OFFCURVE",
"566 600 OFFCURVE",
"541 600 CURVE SMOOTH",
"469 600 LINE SMOOTH",
"444 600 OFFCURVE",
"429 585 OFFCURVE",
"429 560 CURVE SMOOTH",
"429 504 LINE",
"438 531 LINE",
"408 585 OFFCURVE",
"351 610 OFFCURVE",
"264 610 CURVE SMOOTH",
"93 610 OFFCURVE",
"7 506 OFFCURVE",
"7 300 CURVE SMOOTH",
"7 95 OFFCURVE",
"94 -10 OFFCURVE",
"264 -10 CURVE SMOOTH",
"358 -10 OFFCURVE",
"416 18 OFFCURVE",
"442 79 CURVE",
"419 210 LINE",
"419 155 LINE SMOOTH",
"419 57 OFFCURVE",
"481 -4 OFFCURVE",
"610 -4 CURVE SMOOTH",
"630 -4 OFFCURVE",
"650 -1 OFFCURVE",
"668 4 CURVE SMOOTH",
"688 10 OFFCURVE",
"697 25 OFFCURVE",
"697 48 CURVE SMOOTH",
"697 98 LINE SMOOTH",
"697 126 OFFCURVE",
"687 138 OFFCURVE",
"662 132 CURVE SMOOTH",
"653 130 OFFCURVE",
"643 128 OFFCURVE",
"635 128 CURVE SMOOTH",
"599 128 OFFCURVE",
"581 146 OFFCURVE",
"581 187 CURVE SMOOTH"
);
},
{
closed = 1;
nodes = (
"1222 420 OFFCURVE",
"1222 361 CURVE SMOOTH",
"1222 295 LINE SMOOTH",
"1222 159 OFFCURVE",
"1170 122 OFFCURVE",
"1089 122 CURVE SMOOTH",
"1042 122 OFFCURVE",
"1020 138 OFFCURVE",
"1020 170 CURVE SMOOTH",
"1020 193 OFFCURVE",
"1030 210 OFFCURVE",
"1059 224 CURVE SMOOTH",
"1257 321 LINE",
"1257 455 LINE",
"968 314 LINE SMOOTH",
"877 269 OFFCURVE",
"850 221 OFFCURVE",
"850 154 CURVE SMOOTH",
"850 68 OFFCURVE",
"896 -10 OFFCURVE",
"1073 -10 CURVE SMOOTH",
"1194 -10 OFFCURVE",
"1236 42 OFFCURVE",
"1254 110 CURVE",
"1242 140 LINE",
"1242 30 LINE SMOOTH",
"1242 10 OFFCURVE",
"1254 0 OFFCURVE",
"1284 0 CURVE SMOOTH",
"1341 0 LINE SMOOTH",
"1371 0 OFFCURVE",
"1381 20 OFFCURVE",
"1381 40 CURVE SMOOTH",
"1381 361 LINE SMOOTH",
"1381 515 OFFCURVE",
"1294 610 OFFCURVE",
"1074 610 CURVE SMOOTH",
"1001 610 OFFCURVE",
"948 602 OFFCURVE",
"913 595 CURVE SMOOTH",
"889 590 OFFCURVE",
"878 575 OFFCURVE",
"878 551 CURVE SMOOTH",
"878 488 LINE SMOOTH",
"878 461 OFFCURVE",
"894 447 OFFCURVE",
"921 451 CURVE SMOOTH",
"963 457 OFFCURVE",
"1004 464 OFFCURVE",
"1072 464 CURVE SMOOTH",
"1171 464 OFFCURVE"
);
}
);
};
hints = (
{
horizontal = 1;
place = "{-10, 148}";
type = Stem;
},
{
horizontal = 1;
place = "{465, 155}";
type = Stem;
},
{
place = "{45, 170}";
type = Stem;
},
{
place = "{415, 161}";
type = Stem;
},
{
horizontal = 1;
place = "{0, 21}";
target = up;
type = BottomGhost;
}
);
layerId = "014D4A40-7C7F-4023-B30E-1F55CE5EA091";
paths = (
{
closed = 1;
nodes = (
"581 371 LINE SMOOTH",
"581 537 OFFCURVE",
"479 610 OFFCURVE",
"274 610 CURVE SMOOTH",
"201 610 OFFCURVE",
"148 602 OFFCURVE",
"113 595 CURVE SMOOTH",
"89 590 OFFCURVE",
"78 575 OFFCURVE",
"78 551 CURVE SMOOTH",
"78 488 LINE SMOOTH",
"78 461 OFFCURVE",
"94 447 OFFCURVE",
"121 451 CURVE SMOOTH",
"163 457 OFFCURVE",
"204 464 OFFCURVE",
"272 464 CURVE SMOOTH",
"364 464 OFFCURVE",
"422 434 OFFCURVE",
"422 371 CURVE SMOOTH",
"422 245 LINE SMOOTH",
"422 159 OFFCURVE",
"370 122 OFFCURVE",
"289 122 CURVE SMOOTH",
"242 122 OFFCURVE",
"220 141 OFFCURVE",
"220 170 CURVE SMOOTH",
"220 193 OFFCURVE",
"230 210 OFFCURVE",
"259 224 CURVE SMOOTH",
"457 321 LINE",
"457 455 LINE",
"168 314 LINE SMOOTH",
"77 269 OFFCURVE",
"50 221 OFFCURVE",
"50 154 CURVE SMOOTH",
"50 68 OFFCURVE",
"96 -10 OFFCURVE",
"263 -10 CURVE SMOOTH",
"389 -10 OFFCURVE",
"436 42 OFFCURVE",
"454 110 CURVE",
"419 190 LINE",
"419 155 LINE SMOOTH",
"419 57 OFFCURVE",
"481 -4 OFFCURVE",
"610 -4 CURVE SMOOTH",
"630 -4 OFFCURVE",
"650 -1 OFFCURVE",
"668 4 CURVE SMOOTH",
"688 10 OFFCURVE",
"697 25 OFFCURVE",
"697 48 CURVE SMOOTH",
"697 98 LINE SMOOTH",
"697 126 OFFCURVE",
"687 138 OFFCURVE",
"662 132 CURVE SMOOTH",
"653 130 OFFCURVE",
"643 128 OFFCURVE",
"635 128 CURVE SMOOTH",
"599 128 OFFCURVE",
"581 146 OFFCURVE",
"581 187 CURVE SMOOTH"
);
}
);
width = 677;
}
);
note = a;
rightMetricsKey = a;
},
{
color = 3;
glyphname = l.ss01;
lastChange = "2019-02-19 15:25:09 +0000";
layers = (
{
background = {
paths = (
{
closed = 1;
nodes = (
"1286 779 LINE SMOOTH",
"1286 790 OFFCURVE",
"1275 801 OFFCURVE",
"1263 801 CURVE SMOOTH",
"1215 801 LINE SMOOTH",
"1203 801 OFFCURVE",
"1193 790 OFFCURVE",
"1193 779 CURVE SMOOTH",
"1193 22 LINE SMOOTH",
"1193 11 OFFCURVE",
"1203 0 OFFCURVE",
"1215 0 CURVE SMOOTH",
"1263 0 LINE SMOOTH",
"1276 0 OFFCURVE",
"1286 11 OFFCURVE",
"1286 22 CURVE SMOOTH"
);
},
{
closed = 1;
nodes = (
"1624 278 OFFCURVE",
"1571 314 OFFCURVE",
"1455 314 CURVE",
"1455 298 LINE",
"1568 298 OFFCURVE",
"1616 367 OFFCURVE",
"1621 488 CURVE SMOOTH",
"1625 579 LINE SMOOTH",
"1625 590 OFFCURVE",
"1615 600 OFFCURVE",
"1602 600 CURVE SMOOTH",
"1554 600 LINE SMOOTH",
"1542 600 OFFCURVE",
"1533 589 OFFCURVE",
"1532 577 CURVE SMOOTH",
"1528 488 LINE SMOOTH",
"1523 374 OFFCURVE",
"1475 343 OFFCURVE",
"1350 343 CURVE SMOOTH",
"1270 343 LINE",
"1270 258 LINE",
"1414 258 LINE SMOOTH",
"1529 258 OFFCURVE",
"1547 221 OFFCURVE",
"1560 166 CURVE SMOOTH",
"1570 123 LINE SMOOTH",
"1590 37 OFFCURVE",
"1631 -4 OFFCURVE",
"1718 -4 CURVE SMOOTH",
"1732 -4 OFFCURVE",
"1749 -2 OFFCURVE",
"1763 1 CURVE SMOOTH",
"1777 4 OFFCURVE",
"1783 15 OFFCURVE",
"1783 29 CURVE SMOOTH",
"1783 55 LINE SMOOTH",
"1783 72 OFFCURVE",
"1773 79 OFFCURVE",
"1755 77 CURVE SMOOTH",
"1746 76 OFFCURVE",
"1738 75 OFFCURVE",
"1729 75 CURVE SMOOTH",
"1686 75 OFFCURVE",
"1677 90 OFFCURVE",
"1663 141 CURVE SMOOTH",
"1646 201 LINE SMOOTH"
);
},
{
closed = 1;
nodes = (
"223 770 LINE SMOOTH",
"223 790 OFFCURVE",
"211 810 OFFCURVE",
"181 810 CURVE SMOOTH",
"101 810 LINE SMOOTH",
"71 810 OFFCURVE",
"61 790 OFFCURVE",
"61 770 CURVE SMOOTH",
"61 40 LINE SMOOTH",
"61 20 OFFCURVE",
"71 0 OFFCURVE",
"101 0 CURVE SMOOTH",
"183 0 LINE SMOOTH",
"213 0 OFFCURVE",
"223 20 OFFCURVE",
"223 40 CURVE SMOOTH"
);
},
{
closed = 1;
nodes = (
"486 283 OFFCURVE",
"430 317 OFFCURVE",
"335 317 CURVE",
"335 290 LINE",
"467 290 OFFCURVE",
"535 365 OFFCURVE",
"541 502 CURVE SMOOTH",
"544 570 LINE SMOOTH",
"545 590 OFFCURVE",
"532 600 OFFCURVE",
"502 600 CURVE SMOOTH",
"422 600 LINE SMOOTH",
"392 600 OFFCURVE",
"383 580 OFFCURVE",
"382 560 CURVE SMOOTH",
"379 502 LINE SMOOTH",
"374 401 OFFCURVE",
"347 375 OFFCURVE",
"246 375 CURVE SMOOTH",
"207 375 LINE",
"207 227 LINE",
"252 227 LINE SMOOTH",
"324 227 OFFCURVE",
"340 212 OFFCURVE",
"354 156 CURVE SMOOTH",
"363 121 LINE SMOOTH",
"382 47 OFFCURVE",
"426 -4 OFFCURVE",
"549 -4 CURVE SMOOTH",
"573 -4 OFFCURVE",
"593 -1 OFFCURVE",
"611 4 CURVE SMOOTH",
"631 10 OFFCURVE",
"640 25 OFFCURVE",
"640 48 CURVE SMOOTH",
"640 98 LINE SMOOTH",
"640 126 OFFCURVE",
"630 138 OFFCURVE",
"605 132 CURVE SMOOTH",
"596 130 OFFCURVE",
"586 128 OFFCURVE",
"574 128 CURVE SMOOTH",
"536 128 OFFCURVE",
"521 144 OFFCURVE",
"510 189 CURVE SMOOTH",
"501 224 LINE SMOOTH"
);
}
);
};
hints = (
{
horizontal = 1;
place = "{0, 21}";
target = up;
type = BottomGhost;
},
{
horizontal = 1;
place = "{258, 85}";
type = Stem;
},
{
horizontal = 1;
place = "{600, -20}";
target = down;
type = TopGhost;
},
{
horizontal = 1;
place = "{801, -20}";
target = down;
type = TopGhost;
},
{
place = "{87, 93}";
type = Stem;
},
{
place = "{425, 93}";
type = Stem;
}
);
layerId = "A3B50665-EA37-4AC6-885C-1233CA61B6BD";
paths = (
{
closed = 1;
nodes = (
"176 788 LINE SMOOTH",
"176 799 OFFCURVE",
"165 810 OFFCURVE",
"153 810 CURVE SMOOTH",
"105 810 LINE SMOOTH",
"93 810 OFFCURVE",
"83 799 OFFCURVE",
"83 788 CURVE SMOOTH",
"83 22 LINE SMOOTH",
"83 11 OFFCURVE",
"93 0 OFFCURVE",
"105 0 CURVE SMOOTH",
"153 0 LINE SMOOTH",
"166 0 OFFCURVE",
"176 11 OFFCURVE",
"176 22 CURVE SMOOTH"
);
}
);
width = 259;
},
{
background = {
paths = (
{
closed = 1;
nodes = (
"237 770 LINE SMOOTH",
"237 790 OFFCURVE",
"225 810 OFFCURVE",
"195 810 CURVE SMOOTH",
"115 810 LINE SMOOTH",
"85 810 OFFCURVE",
"75 790 OFFCURVE",
"75 770 CURVE SMOOTH",
"75 40 LINE SMOOTH",
"75 20 OFFCURVE",
"85 0 OFFCURVE",
"115 0 CURVE SMOOTH",
"197 0 LINE SMOOTH",
"227 0 OFFCURVE",
"237 20 OFFCURVE",
"237 40 CURVE SMOOTH"
);
},
{
closed = 1;
nodes = (
"503 283 OFFCURVE",
"447 317 OFFCURVE",
"349 317 CURVE",
"349 290 LINE",
"491 290 OFFCURVE",
"555 365 OFFCURVE",
"555 502 CURVE SMOOTH",
"555 570 LINE SMOOTH",
"555 590 OFFCURVE",
"543 600 OFFCURVE",
"513 600 CURVE SMOOTH",
"433 600 LINE SMOOTH",
"403 600 OFFCURVE",
"393 580 OFFCURVE",
"393 560 CURVE SMOOTH",
"393 532 LINE SMOOTH",
"393 401 OFFCURVE",
"371 375 OFFCURVE",
"260 375 CURVE SMOOTH",
"221 375 LINE",
"221 227 LINE",
"266 227 LINE SMOOTH",
"338 227 OFFCURVE",
"354 212 OFFCURVE",
"368 156 CURVE SMOOTH",
"377 121 LINE SMOOTH",
"396 47 OFFCURVE",
"439 -4 OFFCURVE",
"560 -4 CURVE SMOOTH",
"580 -4 OFFCURVE",
"600 -1 OFFCURVE",
"618 4 CURVE SMOOTH",
"638 10 OFFCURVE",
"647 25 OFFCURVE",
"647 48 CURVE SMOOTH",
"647 98 LINE SMOOTH",
"647 126 OFFCURVE",
"637 138 OFFCURVE",
"612 132 CURVE SMOOTH",
"603 130 OFFCURVE",
"593 128 OFFCURVE",
"585 128 CURVE SMOOTH",
"552 128 OFFCURVE",
"538 144 OFFCURVE",
"527 189 CURVE SMOOTH",
"518 224 LINE SMOOTH"
);
}
);
};
hints = (
{
horizontal = 1;
place = "{0, 21}";
target = up;
type = BottomGhost;
},
{
horizontal = 1;
place = "{227, 148}";
type = Stem;
},
{
horizontal = 1;
place = "{600, -20}";
target = down;
type = TopGhost;
},
{
horizontal = 1;
place = "{810, -20}";
target = down;
type = TopGhost;
},
{
place = "{65, 162}";
type = Stem;
},
{
place = "{383, 162}";
type = Stem;
}
);
layerId = "014D4A40-7C7F-4023-B30E-1F55CE5EA091";
paths = (
{
closed = 1;
nodes = (
"237 770 LINE SMOOTH",
"237 790 OFFCURVE",
"225 810 OFFCURVE",
"195 810 CURVE SMOOTH",
"115 810 LINE SMOOTH",
"85 810 OFFCURVE",
"75 790 OFFCURVE",
"75 770 CURVE SMOOTH",
"75 40 LINE SMOOTH",
"75 20 OFFCURVE",
"85 0 OFFCURVE",
"115 0 CURVE SMOOTH",
"197 0 LINE SMOOTH",
"227 0 OFFCURVE",
"237 20 OFFCURVE",
"237 40 CURVE SMOOTH"
);
}
);
width = 312;
}
);
leftMetricsKey = h;
note = k;
rightMetricsKey = "=|";
},
{
glyphname = period;
lastChange = "2019-02-05 11:08:29 +0000";
layers = (
{
hints = (
{
horizontal = 1;
place = "{0, 119}";
type = Stem;
},
{
place = "{73, 120}";
type = Stem;
}
);
layerId = "A3B50665-EA37-4AC6-885C-1233CA61B6BD";
paths = (
{
closed = 1;
nodes = (
"96 119 LINE SMOOTH",
"83 119 OFFCURVE",
"73 108 OFFCURVE",
"73 97 CURVE SMOOTH",
"73 22 LINE SMOOTH",
"73 11 OFFCURVE",
"83 0 OFFCURVE",
"96 0 CURVE SMOOTH",
"171 0 LINE SMOOTH",
"183 0 OFFCURVE",
"193 11 OFFCURVE",
"193 22 CURVE SMOOTH",
"193 98 LINE SMOOTH",
"193 109 OFFCURVE",
"183 119 OFFCURVE",
"171 119 CURVE SMOOTH"
);
}
);
width = 267;
},
{
hints = (
{
horizontal = 1;
place = "{0, 186}";
type = Stem;
},
{
place = "{53, 186}";
type = Stem;
}
);
layerId = "014D4A40-7C7F-4023-B30E-1F55CE5EA091";
paths = (
{
closed = 1;
nodes = (
"93 186 LINE SMOOTH",
"63 186 OFFCURVE",
"53 166 OFFCURVE",
"53 146 CURVE SMOOTH",
"53 40 LINE SMOOTH",
"53 20 OFFCURVE",
"63 0 OFFCURVE",
"93 0 CURVE SMOOTH",
"199 0 LINE SMOOTH",
"229 0 OFFCURVE",
"239 20 OFFCURVE",
"239 40 CURVE SMOOTH",
"239 156 LINE SMOOTH",
"239 176 OFFCURVE",
"227 186 OFFCURVE",
"197 186 CURVE SMOOTH"
);
}
);
width = 292;
}
);
note = period;
unicode = 002E;
},
